<svg xmlns="http://www.w3.org/2000/svg" width="434.936" height="438.935" viewBox="0 0 434.936 438.935"><defs><style>.a{fill:#e9e6da;}.b{fill:#ff8200;}.c{fill:#ff6211;}.d{fill:#6e6f71;}.e{fill:none;stroke:#fff;stroke-miterlimit:10;stroke-width:8px;}.f{fill:#0079d3;}.g{fill:#fff;}.h{fill:#003082;}</style></defs><title>bijzet-2</title><circle class="a" cx="254.886" cy="258.885" r="180.049"/><path class="b" d="M297,153.336,283.133,187.6a8.8,8.8,0,0,0,5.711,11.752c7.032,2.05,17.08,2.423,25.656-7.011,15-16.5,19-34,19-34Z"/><path class="c" d="M321.753,156.727l-21.094-2.89-4.987,2.78-5.083,12.558,5.637,31.355c5.818.133,12.392-1.724,18.274-8.194a87.117,87.117,0,0,0,10.768-14.712Z"/><circle class="d" cx="97.5" cy="163.336" r="97.5"/><path class="e" d="M62.3,130.246h-23a8,8,0,0,0-8,8v47.665a8,8,0,0,0,8,8l11.79.246a8,8,0,0,0,5.789-2.342l69.228-59.226a8,8,0,0,1,5.657-2.343h19.868a8,8,0,0,1,8,8v47.665a8,8,0,0,1-8,8H133.968"/><circle class="e" cx="77.097" cy="130.246" r="15"/><circle class="e" cx="115.573" cy="194.214" r="15"/><path class="b" d="M301,231.5c25.333-9.334-6.667-82-16.667-88.667S299,106.169,299,106.169s19.5,14.136,34,22.667c11.333,6.667,28.653,39.733,36.235,67.7a67.266,67.266,0,0,1-3.851,45.821c-10.61,22.963-24.931,58.873-19.717,75.816l-91.334,32S249.987,331.83,233,313.5"/><path class="f" d="M131.257.594,312.738,56.827a13.234,13.234,0,0,1,8.733,16.554L286.535,186.336a13.233,13.233,0,0,1-16.553,8.733L88.5,138.836a13.235,13.235,0,0,1-8.733-16.554L114.7,9.327A13.236,13.236,0,0,1,131.257.594Z"/><path class="g" d="M286.708,185.778l8.865-28.661L88.6,93.735l-8.83,28.547c-.012.039-.018.077-.029.115Z"/><path class="b" d="M233,313.5c-25.333-27.334-16.485-85.428-11.333-138.667,2.569-26.546,3.763-43.192,4.288-51.706a6.836,6.836,0,0,1,8.739-6.166c7.252,2.174,17.077,9.149,20.306,30.539,5.333,35.333,20.667,93.333,46,84"/><polygon class="f" points="250.333 364.836 245.667 336.836 346.333 313.503 354.333 344.836 250.333 364.836"/><path class="h" d="M354.881,335.944a6.567,6.567,0,0,0-6.5-3.769c-32.31,2.75-85.893,20.576-102.69,26.381a6.565,6.565,0,0,0-4.337,7.245l11.655,73.11c.627.006,1.252.024,1.88.024a179.436,179.436,0,0,0,124.7-50.18Z"/><circle class="g" cx="263.333" cy="379.836" r="9"/></svg>