<svg xmlns="http://www.w3.org/2000/svg" xmlns:xlink="http://www.w3.org/1999/xlink" width="418" height="422.664" viewBox="0 0 418 422.664"><defs><style>.a,.j{fill:none;}.b{fill:#003082;}.c{fill:#e9e6da;}.d{fill:#ff8200;}.e{fill:#ff6211;}.f{fill:#0079d3;}.g{fill:#fff;}.h{fill:#ffc917;}.i{clip-path:url(#a);}.j{stroke:#fff;stroke-miterlimit:10;stroke-width:4px;}.k{fill:#ff0045;}.l{fill:url(#b);}</style><clipPath id="a"><path class="a" d="M57.591,117.889,168.11,44.565c-3.966-5.935-7.613-11.453-10.8-16.31L46.911,101.5C49.8,105.939,53.32,111.336,57.591,117.889Z"/></clipPath><pattern id="b" width="368.504" height="340.157" patternTransform="translate(-35.756 -633.338)" patternUnits="userSpaceOnUse" viewBox="0 0 368.504 340.157"><rect class="a" width="368.504" height="340.157"/><path class="b" d="M366.631,389.29l1.245.117,22.308,2.082-3.141-19.157,15.074-20.1s-21.04-24.5-41.767-4.4L372.6,372.646Z"/><path class="b" d="M356.893,355.222c.346.569-15.358,9.516-22.268,7.835a12.876,12.876,0,1,1,6.086-25.022C347.621,339.716,356.4,354.417,356.893,355.222Z"/><path class="b" d="M-1.873,389.29l1.245.117,22.308,2.082-3.141-19.157,15.075-20.1s-21.041-24.5-41.768-4.4L4.093,372.646Z"/><path class="b" d="M39.319,345.818l10.432-24.774,21.732-1.739-6.954,28.687s23.035.869,23.035,18.254-19.993,17.821-25.643,11.3-20.863-19.124-20.863-19.124Z"/><circle class="b" cx="88.289" cy="331.857" r="12.46"/><path class="b" d="M61.051,311.573s1.159-12.17,15.068-12.749S93.794,313.6,93.794,313.6l-15.357,3.477Z"/><path class="b" d="M291.239,282.424l18.06,14.387L334.013,274.1s-1.472-7.419-9.377-6.524-9.61,4.61-23.166.1c-6.205-2.067-9.762-.524-11.8,2.013A9.087,9.087,0,0,0,291.239,282.424Z"/><path class="b" d="M342.1,278.588s-2.3-20.726,13.609-20.726,12.562,20.517,12.562,20.517l15.283,14.446s-31.4,28.264-45.222,11.515S342.1,278.588,342.1,278.588Z"/><path class="b" d="M316.67,253.357a12.74,12.74,0,0,0,16.781,9.4c.161-.059.324-.121.487-.187,10.468-4.187,9-11.933,8.375-15.074l28.473,6.281.628-21.983s-36.638-7.118-47.106,1.884C316.015,240.812,315.343,247.024,316.67,253.357Z"/><path class="b" d="M291.469,259.038s7.9-6.841,6.348-17.721-21.72-14.342-15.238-31.131c4.606-11.931,18.276-6.413,25.8-2.221a18.439,18.439,0,0,1,7.411,7.65h0a14.621,14.621,0,0,1-1.413,15.621c-4.343,5.656-9.111,14.656-7.366,25.579Z"/><path class="b" d="M321.481,199.741l4.083,21.669,28.892-.628s17.432-8.173,5.653-21.983c-9.108-10.678-21.041,5.652-21.041,5.652Z"/><path class="b" d="M366.631,219.212l1.245.116,22.308,2.082-3.141-19.157,15.074-20.1s-21.04-24.5-41.767-4.4L372.6,202.567Z"/><path class="b" d="M356.893,185.143c.346.569-15.358,9.516-22.268,7.835a12.876,12.876,0,1,1,6.086-25.022C347.621,169.637,356.4,184.339,356.893,185.143Z"/><path class="b" d="M356.948,337.41s5.7-12.27,18.255-12.75c8.871-.338,13.591,2.869,23.766,4.781A10.94,10.94,0,0,0,411.8,317.276c-.83-6.346-3.789-13.355-12.366-15.738-16.959-4.711-54.9,23.113-54.9,23.113Z"/><path class="b" d="M132.418,338.4a12.74,12.74,0,0,0,16.781,9.4c.161-.06.324-.122.487-.187,10.468-4.188,9-11.934,8.375-15.074l28.473,6.28.628-21.983s-36.638-7.118-47.106,1.885C131.763,325.851,131.091,332.063,132.418,338.4Z"/><path class="b" d="M210.186,343.207c-10.657,2.649-20.317-7.365-16.837-17.78a12.5,12.5,0,0,1,6.689-7.481c11.619-5.653,38.941,15.074,38.941,15.074l2.513,24.81L222.649,366s-9.107-10.05-9.107-23.868A23.857,23.857,0,0,1,210.186,343.207Z"/><path class="b" d="M107.217,344.078s7.9-6.841,6.348-17.722-21.72-14.342-15.238-31.131c4.606-11.931,18.276-6.413,25.8-2.221a18.442,18.442,0,0,1,7.411,7.651h0a14.621,14.621,0,0,1-1.413,15.621c-4.343,5.656-9.111,14.655-7.366,25.578Z"/><path class="b" d="M137.229,284.78l4.083,21.669,28.892-.628s17.432-8.172,5.653-21.983c-9.108-10.678-21.041,5.653-21.041,5.653Z"/><path class="b" d="M182.379,304.251l1.245.116,22.308,2.082-3.141-19.156,15.075-20.1s-21.041-24.5-41.768-4.4l12.247,24.81Z"/><path class="b" d="M172.641,270.183c.346.569-15.358,9.515-22.268,7.835A12.876,12.876,0,1,1,156.459,253C163.369,254.676,172.151,269.378,172.641,270.183Z"/><path class="b" d="M211.285,297.859s1.286-13.16,14.48-13.13,11,23.849,28.6,23.68l3.613,18s-8.143,11.1-19.158-.186-26.637-14.519-26.637-14.519Z"/><circle class="b" cx="265.381" cy="348.24" r="13.504"/><path class="b" d="M223.571,260.779,234,236.005l21.732-1.739-6.954,28.686s23.035.87,23.035,18.255-19.993,17.82-25.643,11.3-20.863-19.124-20.863-19.124Z"/><circle class="b" cx="272.541" cy="246.817" r="12.46"/><path class="b" d="M265.3,316.175a16.135,16.135,0,0,1,6.785-16.83,24.215,24.215,0,0,1,13.493-4.138c14.488,0,8.236,21.48,55.467,18.582l-10.432,19.994-51.993-4.936a16.248,16.248,0,0,1-13.32-12.672Z"/><path class="b" d="M281.549,335.918l9.184,30.614,21.94,4.592,7.653-18.878s-3.742-12.246-18.368-11.4C289.2,341.592,283.419,339.32,281.549,335.918Z"/><path class="b" d="M245.3,226.534s1.159-12.17,15.068-12.749,17.675,14.777,17.675,14.777l-15.357,3.477Z"/><path class="b" d="M-26.4,278.588s-2.3-20.726,13.609-20.726S-.23,278.379-.23,278.379l15.283,14.446s-31.4,28.264-45.222,11.515S-26.4,278.588-26.4,278.588Z"/><path class="b" d="M-51.834,253.357a12.74,12.74,0,0,0,16.781,9.4c.161-.059.324-.121.487-.187,10.468-4.187,9-11.933,8.375-15.074l28.473,6.281L2.91,231.8s-36.638-7.118-47.106,1.884C-52.489,240.812-53.161,247.024-51.834,253.357Z"/><path class="b" d="M24.868,266.522c2.5,4.953,1.914,24.208,1.281,24,0,0-16.714-9.979-19.218-14.932a10.049,10.049,0,1,1,17.937-9.068Z"/><path class="b" d="M25.934,258.167C15.277,260.817,5.617,250.8,9.1,240.388a12.5,12.5,0,0,1,6.689-7.481c11.62-5.653,38.941,15.074,38.941,15.074L57.24,272.79,38.4,280.955s-9.107-10.049-9.107-23.867A23.787,23.787,0,0,1,25.934,258.167Z"/><path class="b" d="M-1.873,219.212l1.245.116L21.68,221.41l-3.141-19.157,15.075-20.1s-21.041-24.5-41.768-4.4L4.093,202.567Z"/><path class="b" d="M27.033,212.82s1.286-13.161,14.48-13.13,11,23.849,28.6,23.68l3.614,18s-8.144,11.1-19.159-.186-26.637-14.519-26.637-14.519Z"/><circle class="b" cx="81.13" cy="263.2" r="13.504"/><path class="b" d="M93.416,257.587s13.779,25.5-18.881,33.877c-21.854,5.6-22.3,19.471-22.3,19.471S39.362,291.464,40.3,291.15s31.718-17.9,31.718-17.9Z"/><path class="b" d="M-11.556,337.41s5.7-12.27,18.255-12.75c8.871-.338,13.591,2.869,23.766,4.781A10.94,10.94,0,0,0,43.3,317.276c-.83-6.346-3.789-13.355-12.366-15.738-16.958-4.711-54.9,23.113-54.9,23.113Z"/><path class="b" d="M39.319,175.74l10.432-24.775,21.732-1.738-6.954,28.686s23.035.869,23.035,18.255-19.993,17.82-25.643,11.3-20.863-19.124-20.863-19.124Z"/><circle class="b" cx="88.289" cy="161.778" r="12.46"/><path class="b" d="M81.05,231.136a16.137,16.137,0,0,1,6.785-16.831,24.223,24.223,0,0,1,13.493-4.137c14.488,0,8.236,21.48,55.467,18.582l-10.432,19.993L94.37,243.808a16.249,16.249,0,0,1-13.32-12.672Z"/><path class="b" d="M97.3,250.879l9.184,30.614,21.94,4.592,7.653-18.879s-3.742-12.245-18.368-11.4C104.949,256.553,99.167,254.28,97.3,250.879Z"/><path class="b" d="M61.051,141.5s1.159-12.17,15.068-12.75,17.675,14.778,17.675,14.778L78.437,147Z"/><path class="b" d="M291.239,112.346l18.06,14.386,24.714-22.709s-1.472-7.418-9.377-6.523-9.61,4.609-23.166.094c-6.205-2.067-9.762-.524-11.8,2.013A9.088,9.088,0,0,0,291.239,112.346Z"/><path class="b" d="M342.1,108.51s-2.3-20.727,13.609-20.727S368.274,108.3,368.274,108.3l15.283,14.446s-31.4,28.264-45.222,11.515S342.1,108.51,342.1,108.51Z"/><path class="b" d="M316.67,83.278a12.74,12.74,0,0,0,16.781,9.4c.161-.06.324-.122.487-.187,10.468-4.188,9-11.934,8.375-15.075L370.786,83.7l.628-21.983S334.776,54.6,324.308,63.6C316.015,70.733,315.343,76.945,316.67,83.278Z"/><path class="b" d="M291.469,88.96s7.9-6.841,6.348-17.722S276.1,56.9,282.579,40.107c4.606-11.931,18.276-6.413,25.8-2.221a18.442,18.442,0,0,1,7.411,7.651h0a14.621,14.621,0,0,1-1.413,15.621c-4.343,5.656-9.111,14.655-7.366,25.578Z"/><path class="b" d="M321.481,29.662l4.083,21.669,28.892-.628s17.432-8.172,5.653-21.983c-9.108-10.678-21.041,5.653-21.041,5.653Z"/><path class="b" d="M366.631,49.133l1.245.116,22.308,2.082-3.141-19.156,15.074-20.1s-21.04-24.495-41.767-4.4L372.6,32.489Z"/><path class="b" d="M356.893,15.065c.346.569-15.358,9.515-22.268,7.835a12.876,12.876,0,1,1,6.086-25.022C347.621-.442,356.4,14.26,356.893,15.065Z"/><path class="b" d="M356.948,167.331s5.7-12.27,18.255-12.749c8.871-.339,13.591,2.869,23.766,4.78A10.94,10.94,0,0,0,411.8,147.2c-.83-6.346-3.789-13.355-12.366-15.738-16.959-4.71-54.9,23.113-54.9,23.113Z"/><path class="b" d="M106.987,197.385l18.06,14.387,24.714-22.709s-1.472-7.419-9.377-6.524-9.609,4.61-23.166.094c-6.2-2.066-9.762-.523-11.8,2.013A9.088,9.088,0,0,0,106.987,197.385Z"/><path class="b" d="M157.851,193.549s-2.3-20.727,13.609-20.727,12.562,20.518,12.562,20.518l15.283,14.446S167.9,236.05,154.083,219.3,157.851,193.549,157.851,193.549Z"/><path class="b" d="M132.418,168.317a12.74,12.74,0,0,0,16.781,9.4c.161-.059.324-.122.487-.187,10.468-4.187,9-11.934,8.375-15.074l28.473,6.281.628-21.983s-36.638-7.119-47.106,1.884C131.763,155.773,131.091,161.984,132.418,168.317Z"/><path class="b" d="M209.12,181.482c2.5,4.953,1.914,24.209,1.281,24,0,0-16.714-9.98-19.218-14.933a10.049,10.049,0,0,1,17.937-9.068Z"/><path class="b" d="M210.186,173.128c-10.657,2.65-20.317-7.365-16.837-17.78a12.5,12.5,0,0,1,6.689-7.481c11.619-5.652,38.941,15.074,38.941,15.074l2.513,24.81-18.843,8.165s-9.107-10.049-9.107-23.867A23.947,23.947,0,0,1,210.186,173.128Z"/><path class="b" d="M107.217,174s7.9-6.841,6.348-17.722-21.72-14.341-15.238-31.13c4.606-11.932,18.276-6.414,25.8-2.222a18.442,18.442,0,0,1,7.411,7.651h0a14.621,14.621,0,0,1-1.413,15.621c-4.343,5.656-9.111,14.656-7.366,25.579Z"/><path class="b" d="M137.229,114.7l4.083,21.669,28.892-.628s17.432-8.172,5.653-21.983c-9.108-10.677-21.041,5.653-21.041,5.653Z"/><path class="b" d="M182.379,134.172l1.245.117,22.308,2.082-3.141-19.157,15.075-20.1s-21.041-24.495-41.768-4.4l12.247,24.809Z"/><path class="b" d="M172.641,100.1c.346.569-15.358,9.516-22.268,7.835a12.876,12.876,0,1,1,6.086-25.022C163.369,84.6,172.151,99.3,172.641,100.1Z"/><path class="b" d="M211.285,127.781s1.286-13.161,14.48-13.13,11,23.848,28.6,23.68l3.613,18s-8.143,11.1-19.158-.187-26.637-14.518-26.637-14.518Z"/><circle class="b" cx="265.381" cy="178.161" r="13.504"/><path class="b" d="M277.668,172.547s13.779,25.5-18.881,33.878c-21.854,5.6-22.3,19.471-22.3,19.471s-12.876-19.471-11.934-19.785,31.718-17.9,31.718-17.9Z"/><path class="b" d="M172.7,252.37s5.7-12.27,18.255-12.749c8.871-.339,13.591,2.869,23.766,4.781a10.941,10.941,0,0,0,12.834-12.166c-.83-6.346-3.789-13.355-12.366-15.737-16.959-4.711-54.9,23.112-54.9,23.112Z"/><path class="b" d="M223.571,90.7,234,65.926l21.732-1.739-6.954,28.687s23.035.869,23.035,18.254-19.993,17.821-25.643,11.3-20.863-19.124-20.863-19.124Z"/><circle class="b" cx="272.541" cy="76.738" r="12.46"/><path class="b" d="M265.3,146.1a16.136,16.136,0,0,1,6.785-16.83,24.223,24.223,0,0,1,13.493-4.138c14.488,0,8.236,21.48,55.467,18.583L330.615,163.7l-51.993-4.936A16.247,16.247,0,0,1,265.3,146.1Z"/><path class="b" d="M281.549,165.839l9.184,30.614,21.94,4.592,7.653-18.878s-3.742-12.246-18.368-11.4C289.2,171.513,283.419,169.241,281.549,165.839Z"/><path class="b" d="M245.3,56.455s1.159-12.17,15.068-12.749,17.675,14.778,17.675,14.778l-15.357,3.477Z"/><path class="b" d="M-26.4,108.51s-2.3-20.727,13.609-20.727S-.23,108.3-.23,108.3l15.283,14.446s-31.4,28.264-45.222,11.515S-26.4,108.51-26.4,108.51Z"/><path class="b" d="M-51.834,83.278a12.74,12.74,0,0,0,16.781,9.4c.161-.06.324-.122.487-.187,10.468-4.188,9-11.934,8.375-15.075L2.282,83.7,2.91,61.717S-33.728,54.6-44.2,63.6C-52.489,70.733-53.161,76.945-51.834,83.278Z"/><path class="b" d="M24.868,96.443c2.5,4.953,1.914,24.208,1.281,24,0,0-16.714-9.979-19.218-14.932a10.049,10.049,0,1,1,17.937-9.068Z"/><path class="b" d="M25.934,88.088C15.277,90.738,5.617,80.724,9.1,70.309a12.5,12.5,0,0,1,6.689-7.481C27.406,57.175,54.727,77.9,54.727,77.9l2.513,24.809L38.4,110.877s-9.107-10.05-9.107-23.868A23.787,23.787,0,0,1,25.934,88.088Z"/><path class="b" d="M-1.873,49.133l1.245.116L21.68,51.331,18.539,32.175l15.075-20.1S12.573-12.419-8.154,7.679L4.093,32.489Z"/><path class="b" d="M27.033,42.741s1.286-13.16,14.48-13.13,11,23.849,28.6,23.68l3.614,18s-8.144,11.1-19.159-.186S27.928,56.587,27.928,56.587Z"/><circle class="b" cx="81.13" cy="93.122" r="13.504"/><path class="b" d="M93.416,87.508s13.779,25.5-18.881,33.878c-21.854,5.6-22.3,19.47-22.3,19.47S39.362,121.386,40.3,121.071s31.718-17.9,31.718-17.9Z"/><path class="b" d="M-11.556,167.331s5.7-12.27,18.255-12.749c8.871-.339,13.591,2.869,23.766,4.78A10.94,10.94,0,0,0,43.3,147.2c-.83-6.346-3.789-13.355-12.366-15.738-16.958-4.71-54.9,23.113-54.9,23.113Z"/><path class="b" d="M39.319,5.661,49.751-19.113l21.732-1.739L64.529,7.834S87.564,8.7,87.564,26.089s-19.993,17.82-25.643,11.3S41.058,18.265,41.058,18.265Z"/><circle class="b" cx="88.289" cy="-8.301" r="12.46"/><path class="b" d="M81.05,61.057a16.137,16.137,0,0,1,6.785-16.831,24.223,24.223,0,0,1,13.493-4.137c14.488,0,8.236,21.48,55.467,18.582L146.363,78.665,94.37,73.729A16.248,16.248,0,0,1,81.05,61.057Z"/><path class="b" d="M97.3,80.8l9.184,30.614,21.94,4.592,7.653-18.879s-3.742-12.245-18.368-11.395C104.949,86.474,99.167,84.2,97.3,80.8Z"/><path class="b" d="M106.987,27.306l18.06,14.387,24.714-22.709s-1.472-7.419-9.377-6.524-9.609,4.61-23.166.095c-6.2-2.067-9.762-.524-11.8,2.013A9.087,9.087,0,0,0,106.987,27.306Z"/><path class="b" d="M157.851,23.47s-2.3-20.726,13.609-20.726,12.562,20.517,12.562,20.517l15.283,14.446s-31.4,28.264-45.222,11.515S157.851,23.47,157.851,23.47Z"/><path class="b" d="M132.418-1.761a12.74,12.74,0,0,0,16.781,9.4c.161-.059.324-.121.487-.187,10.468-4.187,9-11.933,8.375-15.074l28.473,6.281.628-21.983s-36.638-7.118-47.106,1.884C131.763-14.306,131.091-8.094,132.418-1.761Z"/><path class="b" d="M209.12,11.4c2.5,4.954,1.914,24.209,1.281,24,0,0-16.714-9.979-19.218-14.933A10.049,10.049,0,0,1,209.12,11.4Z"/><path class="b" d="M210.186,3.049C199.529,5.7,189.869-4.315,193.349-14.73a12.5,12.5,0,0,1,6.689-7.481c11.619-5.653,38.941,15.074,38.941,15.074l2.513,24.809-18.843,8.165s-9.107-10.049-9.107-23.867A23.787,23.787,0,0,1,210.186,3.049Z"/><path class="b" d="M107.217,3.92s7.9-6.841,6.348-17.721S91.845-28.143,98.327-44.932c4.606-11.931,18.276-6.413,25.8-2.222A18.442,18.442,0,0,1,131.54-39.5h0a14.621,14.621,0,0,1-1.413,15.621c-4.343,5.656-9.111,14.656-7.366,25.579Z"/><circle class="b" cx="265.381" cy="8.082" r="13.504"/><path class="b" d="M277.668,2.469s13.779,25.5-18.881,33.877c-21.854,5.6-22.3,19.471-22.3,19.471s-12.876-19.471-11.934-19.785,31.718-17.9,31.718-17.9Z"/><path class="b" d="M172.7,82.292s5.7-12.27,18.255-12.75c8.871-.338,13.591,2.869,23.766,4.781a10.941,10.941,0,0,0,12.834-12.166c-.83-6.345-3.789-13.355-12.366-15.737-16.959-4.711-54.9,23.112-54.9,23.112Z"/><path class="b" d="M281.549-4.239l9.184,30.613,21.94,4.593,7.653-18.879S316.584-.157,301.958.693C289.2,1.435,283.419-.838,281.549-4.239Z"/></pattern></defs><title>bijzet-1</title><path class="c" d="M406.286,26.664H418a0,0,0,0,1,0,0v396a0,0,0,0,1,0,0H250.513a0,0,0,0,1,0,0V182.437A155.773,155.773,0,0,1,406.286,26.664Z"/><path class="d" d="M138.048,324.826s13.921,12.15,44.547,12.15,75.172-12.656,96.433,5.821l32.145-91.119-51.381-65.3H125.139l5.569,51.381,7.34,87.068"/><polygon class="d" points="418 296.605 332.35 217.087 253.38 324.405 360.181 422.664 418 422.664 418 296.605"/><polygon class="e" points="79.074 244.338 150.112 255.222 135.601 223.837 79.074 244.338"/><polygon class="e" points="97.551 296.732 168.589 307.615 154.078 276.23 97.551 296.732"/><path class="e" d="M162.937,326.43s43.871.337,49.946-11.137.338-25.311-9.449-27S162.937,326.43,162.937,326.43Z"/><path class="d" d="M261.375,229.931l-248.44-65.66A17.369,17.369,0,0,1,.616,142.909h0A17.369,17.369,0,0,1,20.7,130.431l252.011,49.127Z"/><polygon class="e" points="66.299 178.375 95.911 186.201 67.824 139.618 47.471 135.65 66.299 178.375"/><path class="d" d="M381.667,265.767s-15.178-7.5-21.595-42.271-23.751-67.38-59.368-85.331C270.7,123.042,222.512,57.631,208.077,37.4a8.035,8.035,0,0,0-12.366-.9c-4.536,4.8-8.619,13.889-5.084,30.763,6.581,31.405,75.173,107.724,79.222,135.626s31.236,94.1,31.236,94.1Z"/><path class="e" d="M297.78,182.327s11.136,8.1,18.223,8.1l-46.571,42.522-24.3-32.4Z"/><rect class="f" x="81.622" y="13.812" width="132.515" height="288.492" rx="16.371" transform="matrix(0.836, -0.549, 0.549, 0.836, -62.51, 107.197)"/><rect class="b" x="92.083" y="6.387" width="132.515" height="288.492" rx="16.371" transform="translate(-56.713 111.723) rotate(-33.315)"/><polygon class="g" points="39.42 90.196 149.437 15.276 274.304 206.288 161.587 275.808 39.42 90.196"/><path class="d" d="M139.893,224.189h0a21.036,21.036,0,0,1-20,20.778l-36-.218a21.034,21.034,0,0,1-22.069-21.241l.024-2.215a21.034,21.034,0,0,1,22.17-20.772L120,202.955A21.034,21.034,0,0,1,139.893,224.189Z"/><path class="d" d="M176.355,273.294h0a21.035,21.035,0,0,1-18.8,21.867l-53.738,1.965a21.034,21.034,0,0,1-23.226-19.968l-.1-2.213a21.034,21.034,0,0,1,20.97-21.983l53.837.247A21.034,21.034,0,0,1,176.355,273.294Z"/><path class="d" d="M203.53,300.753h0a15.487,15.487,0,0,1-9.883,18.789l-38.232,10.272a15.486,15.486,0,0,1-19.957-10.5l-.437-1.572a15.487,15.487,0,0,1,11.421-19.231l38.668-8.7A15.486,15.486,0,0,1,203.53,300.753Z"/><path class="h" d="M33.581,81.008,144.319,8.225s67.552,106.1,94.55,130.4,73.738,40.16,73.738,40.16L205.29,256.4S137.795,240.879,87.173,163.26,33.581,81.008,33.581,81.008Z"/><path class="f" d="M57.591,117.889,168.11,44.565c-3.966-5.935-7.613-11.453-10.8-16.31L46.911,101.5C49.8,105.939,53.32,111.336,57.591,117.889Z"/><g class="i"><line class="j" x1="68.443" y1="22.868" x2="68.443" y2="121.58"/><line class="j" x1="88.694" y1="22.868" x2="88.694" y2="121.58"/><line class="j" x1="108.944" y1="22.868" x2="108.944" y2="121.58"/><line class="j" x1="129.195" y1="22.868" x2="129.195" y2="121.58"/><line class="j" x1="149.446" y1="22.868" x2="149.446" y2="121.58"/><line class="j" x1="169.696" y1="22.868" x2="169.696" y2="121.58"/></g><path class="b" d="M164.52,82.5a4.069,4.069,0,0,0,.767,3.022l5.187,6.87L180.7,93.815l1.43-10.223-2.489-3.3-1.143,8.181-4.747-6.29a1.163,1.163,0,0,1-.227-.84l.848-6.027a4.085,4.085,0,0,0-.771-3.028l-5.189-6.874-10.227-1.426-1.427,10.224,2.488,3.3,1.142-8.18,4.748,6.291a1.156,1.156,0,0,1,.228.837Zm3.732-5.639a4.067,4.067,0,0,0-.79-3l-4.748-6.289,4.091.571,4.461,5.909a1.162,1.162,0,0,1,.208.861l-.846,6.032a4.071,4.071,0,0,0,.789,3l4.751,6.293-4.09-.571-4.46-5.911a1.162,1.162,0,0,1-.208-.862Z"/><polygon class="k" points="285.477 375.664 393.006 252.962 418 275.103 418 422.664 343.509 422.664 285.477 375.664"/><polygon class="l" points="285.477 375.664 393.006 252.962 418 275.103 418 422.664 343.509 422.664 285.477 375.664"/></svg>