<svg xmlns="http://www.w3.org/2000/svg" xmlns:xlink="http://www.w3.org/1999/xlink" width="377.651" height="438.787" viewBox="0 0 377.651 438.787"><defs><style>.a{fill:#e9e6da;}.b{fill:#003082;}.c{fill:url(#a);}.d{fill:#0079d3;}.e{fill:#ff0045;}.f{fill:#ffc917;}</style><linearGradient id="a" x1="168.996" y1="438.787" x2="168.996" y2="176.193" gradientUnits="userSpaceOnUse"><stop offset="0" stop-color="#0079d3"/><stop offset="0.176" stop-color="#0076cf"/><stop offset="0.358" stop-color="#006dc2"/><stop offset="0.544" stop-color="#005eae"/><stop offset="0.731" stop-color="#004991"/><stop offset="0.918" stop-color="#002e6c"/><stop offset="1" stop-color="#002159"/></linearGradient></defs><title>bijzet-3</title><polygon class="a" points="362.107 438.787 0 438.787 0 99.72 362.107 438.787"/><polygon class="b" points="0 438.787 365.762 438.787 0 366.724 0 438.787"/><circle class="b" cx="30.708" cy="371.765" r="30.708"/><circle class="b" cx="70.894" cy="389.318" r="23.557"/><circle class="b" cx="95.758" cy="375.215" r="20.107"/><circle class="b" cx="121.755" cy="398.828" r="23.613"/><circle class="b" cx="168.03" cy="402.473" r="30.187"/><circle class="b" cx="224.176" cy="402.473" r="28.532"/><circle class="b" cx="260.655" cy="417.875" r="19.047"/><circle class="b" cx="288.86" cy="423.156" r="13.765"/><polygon class="c" points="190.393 438.787 179.704 176.259 161.705 176.193 147.599 438.787 190.393 438.787"/><path class="b" d="M183.667,159.361l-62.942,13.222a12.452,12.452,0,0,0-9.835,13.385h0a12.453,12.453,0,0,0,11.891,11.244l64.8,2.627"/><ellipse class="d" cx="185.624" cy="179.6" rx="17" ry="20.333" transform="translate(-16.424 18.7) rotate(-5.523)"/><path class="d" d="M193.35,172.94l179.68,18.924a5.154,5.154,0,0,1,3.9,7.746h0a35.72,35.72,0,0,1-34.5,17.368l-42.462-4.472a120.615,120.615,0,0,1-45.634-14.344h0a89.734,89.734,0,0,0-33.948-10.67l-27.033-2.848S195.178,173.132,193.35,172.94Z"/><path class="d" d="M177.057,175.831,112.747,6.99A5.155,5.155,0,0,1,117.9.011h0A35.721,35.721,0,0,1,148.98,22.943l15.2,39.9A120.619,120.619,0,0,1,172,110.034h0a89.757,89.757,0,0,0,5.821,35.107l9.676,25.4S176.4,174.114,177.057,175.831Z"/><path class="d" d="M189.269,188.568,102.928,347.276a5.156,5.156,0,0,1-8.65.633h0a35.72,35.72,0,0,1-2.818-38.524l20.4-37.506A120.62,120.62,0,0,1,142.6,235.225h0a89.723,89.723,0,0,0,22.866-27.266l12.99-23.878S188.391,190.182,189.269,188.568Z"/><polygon class="e" points="313.779 213.961 334.082 216.099 347.569 189.182 327.182 187.035 313.779 213.961"/><polygon class="e" points="95.185 302.537 114.25 326.463 124.2 308.175 105.093 284.325 95.185 302.537"/><polygon class="e" points="118.378 21.774 126.92 44.2 160.891 54.215 152.308 31.681 118.378 21.774"/><path class="b" d="M338.151,438.787a23.053,23.053,0,1,0-36.27,0Z"/><path class="b" d="M368.591,438.787a19.244,19.244,0,0,0,.177-2.464,19.047,19.047,0,1,0-37.917,2.464Z"/><circle class="f" cx="288.86" cy="103.373" r="24.241"/></svg>