<?xml version="1.0" encoding="UTF-8"?>
<svg viewBox="0 0 101 101" version="1.1" xmlns="http://www.w3.org/2000/svg" xmlns:xlink="http://www.w3.org/1999/xlink">
    <!-- Generator: Sketch 50.2 (55047) - http://www.bohemiancoding.com/sketch -->
    <title>check-in-pillar--large</title>
    <desc>Created with Sketch.</desc>
    <defs></defs>
    <g id="NS-Flex-Campaign" stroke="none" stroke-width="1" fill="none" fill-rule="evenodd">
        <g id="flex__campaign--s" transform="translate(-170.000000, -1168.000000)">
            <g id="check-in-pillar--large" transform="translate(170.000000, 1168.000000)">
                <circle id="Oval" cx="34.7888889" cy="70.7" r="1.12222222"></circle>
                <circle id="Oval" cx="23.5666667" cy="61.7222222" r="1.12222222"></circle>
                <path d="M47.1333333,58.3555556 L47.1333333,78.5555556 L73.7771333,78.5555556 C73.5145333,77.4243556 73.2564222,76.3111111 73.0364667,75.3594667 C72.4304667,75.9452667 71.609,76.3111111 70.7,76.3111111 C68.8438444,76.3111111 67.3333333,74.8006 67.3333333,72.9444444 C67.3333333,71.0882889 68.8438444,69.5777778 70.7,69.5777778 C71.4810667,69.5777778 72.1925556,69.8560889 72.7626444,70.3049778 C73.3349778,69.0166667 74.4931111,68.1323556 75.7028667,67.9034222 C75.9116,67.8652667 76.1091111,67.8540444 76.3111111,67.8360889 L76.3111111,66.2111111 C76.3111111,65.5938889 75.8061111,65.0888889 75.1888889,65.0888889 L72.5584,65.0888889 C71.6718444,65.0888889 70.8054889,65.448 70.1770444,66.0742 L63.8297556,72.4214889 C62.7703778,73.4831111 61.3631111,74.0666667 59.8638222,74.0666667 L57.2333333,74.0666667 C55.3771778,74.0666667 53.8666667,72.5561556 53.8666667,70.7 L53.8666667,66.2111111 C53.8666667,64.3549556 55.3771778,62.8444444 57.2333333,62.8444444 L58.5620444,62.8444444 C59.0266444,61.5404222 60.2610889,60.6 61.7222222,60.6 C63.5783778,60.6 65.0888889,62.1105111 65.0888889,63.9666667 C65.0888889,65.8228222 63.5783778,67.3333333 61.7222222,67.3333333 C60.2610889,67.3333333 59.0266444,66.3929111 58.5620444,65.0888889 L57.2333333,65.0888889 C56.6161111,65.0888889 56.1111111,65.5938889 56.1111111,66.2111111 L56.1111111,70.7 C56.1111111,71.3172222 56.6161111,71.8222222 57.2333333,71.8222222 L59.8638222,71.8222222 C60.7503778,71.8222222 61.6167333,71.4631111 62.2451778,70.8369111 L68.5924667,64.4896222 C69.6518444,63.428 71.0591111,62.8444444 72.5584,62.8444444 L75.1888889,62.8444444 C77.0450444,62.8444444 78.5555556,64.3549556 78.5555556,66.2111111 L78.5555556,68.1637778 C79.6486,68.6351111 80.4947556,69.5575778 80.9907778,70.9154667 L83.8255111,78.5555556 L85.2888889,78.5555556 L85.2888889,58.3555556 L47.1333333,58.3555556 Z" id="Shape"></path>
                <circle id="Oval" cx="61.7222222" cy="63.9666667" r="1.12222222"></circle>
                <rect id="Rectangle-path" x="47.1333333" y="53.8666667" width="38.1555556" height="2.24444444"></rect>
                <circle id="Oval" cx="70.7" cy="72.9444444" r="1.12222222"></circle>
                <path d="M46.0111111,35.9111111 C47.8672667,35.9111111 49.3777778,34.4006 49.3777778,32.5444444 L49.3777778,12.3444444 C49.3777778,10.4882889 47.8672667,8.97777778 46.0111111,8.97777778 L12.3444444,8.97777778 C10.4882889,8.97777778 8.97777778,10.4882889 8.97777778,12.3444444 L8.97777778,32.5444444 C8.97777778,34.4006 10.4882889,35.9111111 12.3444444,35.9111111 L46.0111111,35.9111111 Z" id="Shape"></path>
                <path d="M87.5333333,61.2576222 L87.5333333,53.8666667 C87.5333333,52.6277333 86.5278222,51.6222222 85.2888889,51.6222222 L47.1333333,51.6222222 C45.8944,51.6222222 44.8888889,52.6277333 44.8888889,53.8666667 L44.8888889,78.5555556 C44.8888889,79.7944889 45.8944,80.8 47.1333333,80.8 L74.3000889,80.8 C74.7669333,82.8042889 75.1574667,84.4629333 75.2292889,84.7188 C75.5322889,85.8253111 75.9609778,86.5749556 76.6455333,87.2123778 C76.8004,87.365 83.3743778,93.9367333 83.3743778,93.9367333 C83.5920889,94.1566889 83.8793778,94.2666667 84.1666667,94.2666667 C84.4539556,94.2666667 84.7412444,94.1566889 84.9612,93.9389778 C85.3988667,93.5013111 85.3988667,92.7898222 84.9612,92.3521556 C78.2323556,85.6255556 78.2121556,85.6053556 78.1942,85.5918889 C77.8552889,85.2731778 77.6151333,84.9320222 77.3951778,84.1262667 C77.265,83.6594222 75.6781778,76.8250889 74.6569556,72.4147556 C74.4549556,71.1982667 75.2607111,70.2713111 76.1158444,70.1097111 C77.9630222,69.7730444 78.5757556,70.8481333 78.8832444,71.6920444 L81.9918,80.0683111 C82.1601333,80.5194444 82.5843333,80.7910222 83.0399556,80.7932667 L83.0444444,80.8 L85.2888889,80.8 C86.5278222,80.8 87.5333333,79.7944889 87.5333333,78.5555556 L87.5333333,64.4312667 L98.7555556,75.6534889 L98.7555556,93.1444444 C98.7555556,93.7639111 99.2583111,94.2666667 99.8777778,94.2666667 C100.497244,94.2666667 101,93.7639111 101,93.1444444 L101,74.7242889 L87.5333333,61.2576222 Z M47.1333333,53.8666667 L85.2888889,53.8666667 L85.2888889,56.1111111 L47.1333333,56.1111111 L47.1333333,53.8666667 Z M85.2888889,78.5555556 L83.8255111,78.5555556 L80.9907778,70.9154667 C80.4947556,69.5598222 79.6486,68.6351111 78.5555556,68.1637778 L78.5555556,66.2111111 C78.5555556,64.3549556 77.0450444,62.8444444 75.1888889,62.8444444 L72.5584,62.8444444 C71.0591111,62.8444444 69.6518444,63.428 68.5902222,64.4873778 L62.2429333,70.8346667 C61.6167333,71.4631111 60.7481333,71.8222222 59.8638222,71.8222222 L57.2333333,71.8222222 C56.6161111,71.8222222 56.1111111,71.3172222 56.1111111,70.7 L56.1111111,66.2111111 C56.1111111,65.5938889 56.6161111,65.0888889 57.2333333,65.0888889 L58.5620444,65.0888889 C59.0266444,66.3929111 60.2610889,67.3333333 61.7222222,67.3333333 C63.5783778,67.3333333 65.0888889,65.8228222 65.0888889,63.9666667 C65.0888889,62.1105111 63.5783778,60.6 61.7222222,60.6 C60.2610889,60.6 59.0266444,61.5404222 58.5620444,62.8444444 L57.2333333,62.8444444 C55.3771778,62.8444444 53.8666667,64.3549556 53.8666667,66.2111111 L53.8666667,70.7 C53.8666667,72.5561556 55.3771778,74.0666667 57.2333333,74.0666667 L59.8638222,74.0666667 C61.3631111,74.0666667 62.7703778,73.4831111 63.832,72.4237333 L70.1792889,66.0764444 C70.8054889,65.448 71.6740889,65.0888889 72.5584,65.0888889 L75.1888889,65.0888889 C75.8061111,65.0888889 76.3111111,65.5938889 76.3111111,66.2111111 L76.3111111,67.8360889 C76.1113556,67.8540444 75.9138444,67.8652667 75.7028667,67.9034222 C74.4931111,68.1301111 73.3349778,69.0166667 72.7626444,70.3049778 C72.1925556,69.8560889 71.4810667,69.5777778 70.7,69.5777778 C68.8438444,69.5777778 67.3333333,71.0882889 67.3333333,72.9444444 C67.3333333,74.8006 68.8438444,76.3111111 70.7,76.3111111 C71.609,76.3111111 72.4304667,75.9452667 73.0364667,75.3594667 C73.2564222,76.3111111 73.5145333,77.4243556 73.7771333,78.5555556 L47.1333333,78.5555556 L47.1333333,58.3555556 L85.2888889,58.3555556 L85.2888889,78.5555556 Z M60.6,63.9666667 C60.6,63.3494444 61.105,62.8444444 61.7222222,62.8444444 C62.3394444,62.8444444 62.8444444,63.3494444 62.8444444,63.9666667 C62.8444444,64.5838889 62.3394444,65.0888889 61.7222222,65.0888889 C61.105,65.0888889 60.6,64.5838889 60.6,63.9666667 Z M71.8222222,72.9444444 C71.8222222,73.5616667 71.3172222,74.0666667 70.7,74.0666667 C70.0827778,74.0666667 69.5777778,73.5616667 69.5777778,72.9444444 C69.5777778,72.3272222 70.0827778,71.8222222 70.7,71.8222222 C71.3172222,71.8222222 71.8222222,72.3272222 71.8222222,72.9444444 Z" id="Shape" fill="#003082" fill-rule="nonzero"></path>
                <path d="M46.0111111,38.1555556 C49.1062,38.1555556 51.6222222,35.6395333 51.6222222,32.5444444 L51.6222222,12.3444444 C51.6222222,9.24935556 49.1062,6.73333333 46.0111111,6.73333333 L12.3444444,6.73333333 C9.24935556,6.73333333 6.73333333,9.24935556 6.73333333,12.3444444 L6.73333333,32.5444444 C6.73333333,35.6395333 9.24935556,38.1555556 12.3444444,38.1555556 L46.0111111,38.1555556 Z M8.97777778,32.5444444 L8.97777778,12.3444444 C8.97777778,10.4882889 10.4882889,8.97777778 12.3444444,8.97777778 L46.0111111,8.97777778 C47.8672667,8.97777778 49.3777778,10.4882889 49.3777778,12.3444444 L49.3777778,32.5444444 C49.3777778,34.4006 47.8672667,35.9111111 46.0111111,35.9111111 L12.3444444,35.9111111 C10.4882889,35.9111111 8.97777778,34.4006 8.97777778,32.5444444 Z" id="Shape" fill="#003082" fill-rule="nonzero"></path>
                <path d="M39.2777778,69.5777778 L37.9490667,69.5777778 C37.4844667,68.2737556 36.2500222,67.3333333 34.7888889,67.3333333 C32.9327333,67.3333333 31.4222222,68.8438444 31.4222222,70.7 C31.4222222,72.5561556 32.9327333,74.0666667 34.7888889,74.0666667 C36.2500222,74.0666667 37.4844667,73.1262444 37.9490667,71.8222222 L39.2777778,71.8222222 C41.1339333,71.8222222 42.6444444,70.3117111 42.6444444,68.4555556 L42.6444444,63.9666667 C42.6444444,62.1105111 41.1339333,60.6 39.2777778,60.6 L36.3622444,60.6 C35.0918889,60.6 33.8462222,61.0354222 32.8564222,61.8299556 L24.0941111,68.8416 C23.5015778,69.3151778 22.7564222,69.5777778 21.9933111,69.5777778 L19.0777778,69.5777778 C18.4605556,69.5777778 17.9555556,69.0727778 17.9555556,68.4555556 L17.9555556,63.9666667 C17.9555556,63.3494444 18.4605556,62.8444444 19.0777778,62.8444444 L20.4064889,62.8444444 C20.8710889,64.1484667 22.1055333,65.0888889 23.5666667,65.0888889 C25.4228222,65.0888889 26.9333333,63.5783778 26.9333333,61.7222222 C26.9333333,59.8660667 25.4228222,58.3555556 23.5666667,58.3555556 C22.1055333,58.3555556 20.8710889,59.2959778 20.4064889,60.6 L19.0777778,60.6 C17.2216222,60.6 15.7111111,62.1105111 15.7111111,63.9666667 L15.7111111,68.4555556 C15.7111111,70.3117111 17.2216222,71.8222222 19.0777778,71.8222222 L21.9933111,71.8222222 C23.2636667,71.8222222 24.5093333,71.3868 25.4991333,70.5922667 L34.2614444,63.5806222 C34.8539778,63.1070444 35.5991333,62.8444444 36.3622444,62.8444444 L39.2777778,62.8444444 C39.895,62.8444444 40.4,63.3494444 40.4,63.9666667 L40.4,68.4555556 C40.4,69.0727778 39.895,69.5777778 39.2777778,69.5777778 Z M34.7888889,71.8222222 C34.1716667,71.8222222 33.6666667,71.3172222 33.6666667,70.7 C33.6666667,70.0827778 34.1716667,69.5777778 34.7888889,69.5777778 C35.4061111,69.5777778 35.9111111,70.0827778 35.9111111,70.7 C35.9111111,71.3172222 35.4061111,71.8222222 34.7888889,71.8222222 Z M23.5666667,60.6 C24.1838889,60.6 24.6888889,61.105 24.6888889,61.7222222 C24.6888889,62.3394444 24.1838889,62.8444444 23.5666667,62.8444444 C22.9494444,62.8444444 22.4444444,62.3394444 22.4444444,61.7222222 C22.4444444,61.105 22.9494444,60.6 23.5666667,60.6 Z" id="Shape" fill="#003082" fill-rule="nonzero"></path>
                <rect id="Rectangle-path" fill="#003082" fill-rule="nonzero" x="56.1111111" y="83.0444444" width="2.24444444" height="17.9555556"></rect>
                <path d="M10.1,2.24444444 L48.2555556,2.24444444 C52.5873333,2.24444444 56.1111111,5.76822222 56.1111111,10.1 L56.1111111,49.3777778 L58.3555556,49.3777778 L58.3555556,10.1 C58.3555556,4.53153333 53.8240222,0 48.2555556,0 L10.1,0 C4.53153333,0 0,4.53153333 0,10.1 L0,101 L2.24444444,101 L2.24444444,10.1 C2.24444444,5.76822222 5.76822222,2.24444444 10.1,2.24444444 Z" id="Shape" fill="#003082" fill-rule="nonzero"></path>
                <path d="M29.1777778,42.6444444 C16.8019111,42.6444444 6.73333333,52.7130222 6.73333333,65.0888889 C6.73333333,77.4647556 16.8019111,87.5333333 29.1777778,87.5333333 C34.2322667,87.5333333 38.8872444,85.8320444 42.6444444,83.0018 L42.6444444,80.8 L42.6444444,80.1019778 C39.0668,83.3160222 34.3534667,85.2888889 29.1777778,85.2888889 C18.0386,85.2888889 8.97777778,76.2280667 8.97777778,65.0888889 C8.97777778,53.9497111 18.0386,44.8888889 29.1777778,44.8888889 C33.9741556,44.8888889 38.3777556,46.5767111 41.8476667,49.3777778 L42.6444444,49.3777778 L45.1784222,49.3777778 C41.1025111,45.2278 35.4397778,42.6444444 29.1777778,42.6444444 Z" id="Shape" fill="#003082" fill-rule="nonzero"></path>
            </g>
        </g>
    </g>
</svg>