<svg xmlns="http://www.w3.org/2000/svg" width="46.083" height="46.173" viewBox="0 0 46.083 46.173"><defs><style>.cls-1{fill:#003082;}</style></defs><title>discount</title><g id="Layer_2" data-name="Layer 2"><g id="Layer_1-2" data-name="Layer 1"><path class="cls-1" d="M44.469,23.084l1.614-4.009-2.9-3.227.118-4.313L39.455,9.486,38.077,5.4l-4.323-.634-2.713-3.38-4.28.865L23.042,0,19.318,2.251l-4.279-.865L12.328,4.764,8,5.4,6.626,9.49,2.782,11.537,2.9,15.85,0,19.075l1.609,4.009L0,27.1l2.9,3.227L2.783,34.64l3.846,2.047,1.378,4.087,4.322.636,2.713,3.38,4.277-.868,3.724,2.251,3.721-2.255,4.281.872,2.71-3.39,4.322-.634,1.378-4.087L43.3,34.635l-.12-4.312,2.9-3.229ZM42.285,34.043l-3.65,1.945-1.31,3.883-4.105.6-2.574,3.213-4.066-.828L23.043,45,19.5,42.86l-4.062.824-2.578-3.211-4.1-.6L7.453,35.99,3.8,34.045l.111-4.093L1.16,26.892l1.527-3.808L1.16,19.28l2.747-3.058L3.8,12.129l3.648-1.943L8.756,6.3l4.105-.6,2.576-3.21,4.064.822,3.54-2.14,3.535,2.14,4.065-.822L33.219,5.7l4.1.6,1.31,3.883,3.65,1.946-.112,4.092,2.75,3.061-1.532,3.8,1.532,3.806-2.75,3.062Z"/><path class="cls-1" d="M17.542,20.586a3,3,0,1,0-3-3A3,3,0,0,0,17.542,20.586Zm0-5a2,2,0,1,1-2,2A2,2,0,0,1,17.542,15.586Z"/><path class="cls-1" d="M28.542,25.586a3,3,0,1,0,3,3A3,3,0,0,0,28.542,25.586Zm0,5a2,2,0,1,1,2-2A2,2,0,0,1,28.542,30.586Z"/><path class="cls-1" d="M30.9,15.232a.5.5,0,0,0-.707,0l-15,15a.5.5,0,1,0,.708.707l15-15A.5.5,0,0,0,30.9,15.232Z"/></g></g></svg>