<svg id="Layer_1" data-name="Layer 1" xmlns="http://www.w3.org/2000/svg" viewBox="0 0 31 25"><title>factuur--left</title><path d="M9.878,2.048,9.756,2H0V23H15V7.1ZM10,3.51,13.341,7H10ZM14,22H1V3H9V8h5Z"/><rect x="4" y="11" width="2" height="1"/><rect x="7" y="11" width="2" height="1"/><rect x="10" y="11" width="1" height="1"/><rect x="4" y="15" width="2" height="1"/><rect x="4" y="13" width="2" height="1"/><rect x="7" y="15" width="2" height="1"/><rect x="7" y="13" width="2" height="1"/><rect x="10" y="15" width="1" height="1"/><rect x="10" y="13" width="1" height="1"/><rect x="8" y="18" width="3" height="1"/></svg>