<svg id="Layer_1" data-name="Layer 1" xmlns="http://www.w3.org/2000/svg" viewBox="0 0 31 25"><title>factuur</title><path d="M17.878,2.048,17.756,2H8V23H23V7.1ZM18,3.51,21.341,7H18ZM22,22H9V3h8V8h5Z"/><rect x="12" y="11" width="2" height="1"/><rect x="15" y="11" width="2" height="1"/><rect x="18" y="11" width="1" height="1"/><rect x="12" y="15" width="2" height="1"/><rect x="12" y="13" width="2" height="1"/><rect x="15" y="15" width="2" height="1"/><rect x="15" y="13" width="2" height="1"/><rect x="18" y="15" width="1" height="1"/><rect x="18" y="13" width="1" height="1"/><rect x="16" y="18" width="3" height="1"/></svg>