<svg id="Layer_1" data-name="Layer 1" xmlns="http://www.w3.org/2000/svg" viewBox="0 0 31 27"><defs><style>.cls-1{fill:#003082;}</style></defs><title>filter</title><path class="cls-1" d="M8.5,9A.5.5,0,0,1,8,8.5v-4a.5.5,0,0,1,1,0v4A.5.5,0,0,1,8.5,9Z"/><path class="cls-1" d="M8.5,23a.5.5,0,0,1-.5-.5V14.312a.5.5,0,1,1,1,0V22.5A.5.5,0,0,1,8.5,23Z"/><path class="cls-1" d="M9.5,10.9a.5.5,0,0,1,0,1h-2a.5.5,0,1,1,0-1h2m0-1h-2a1.5,1.5,0,1,0,0,3h2a1.5,1.5,0,0,0,0-3Z"/><path class="cls-1" d="M22.5,6.8a.5.5,0,0,1-.5-.5V4.5a.5.5,0,0,1,1,0V6.3A.5.5,0,0,1,22.5,6.8Z"/><path class="cls-1" d="M22.5,23a.5.5,0,0,1-.5-.5V12.512a.5.5,0,0,1,1,0V22.5A.5.5,0,0,1,22.5,23Z"/><path class="cls-1" d="M23.5,8.9a.5.5,0,0,1,0,1h-2a.5.5,0,0,1,0-1h2m0-1h-2a1.5,1.5,0,0,0,0,3h2a1.5,1.5,0,0,0,0-3Z"/><path class="cls-1" d="M15.5,23a.5.5,0,0,1-.5-.5V18.512a.5.5,0,0,1,1,0V22.5A.5.5,0,0,1,15.5,23Z"/><path class="cls-1" d="M15.5,13.2a.5.5,0,0,1-.5-.5V4.5a.5.5,0,0,1,1,0v8.2A.5.5,0,0,1,15.5,13.2Z"/><path class="cls-1" d="M16.5,15.112a.5.5,0,1,1,0,1h-2a.5.5,0,0,1,0-1h2m0-1h-2a1.5,1.5,0,0,0,0,3h2a1.5,1.5,0,1,0,0-3Z"/></svg>