<svg id="Layer_1" data-name="Layer 1" xmlns="http://www.w3.org/2000/svg" width="49" height="47" viewBox="0 0 49 47"><defs><style>.cls-1{fill:#003082;}</style></defs><title>flex</title><path class="cls-1" d="M10.4,4.5a.868.868,0,0,0-.867.868v8.058a.867.867,0,1,0,1.734,0V5.368A.868.868,0,0,0,10.4,4.5Z"/><path class="cls-1" d="M10.4,24.269a.867.867,0,0,0-.867.867v16.5a.867.867,0,1,0,1.734,0v-16.5A.868.868,0,0,0,10.4,24.269Z"/><path class="cls-1" d="M12.413,16.387H8.381a2.882,2.882,0,0,0,0,5.764h4.033a2.882,2.882,0,0,0,0-5.764Zm0,4.029H8.383a1.147,1.147,0,0,1,0-2.294h4.03a1.147,1.147,0,1,1,0,2.294Z"/><path class="cls-1" d="M38.6,4.5a.868.868,0,0,0-.867.868V8.994a.867.867,0,1,0,1.734,0V5.368A.868.868,0,0,0,38.6,4.5Z"/><path class="cls-1" d="M38.6,20.642a.868.868,0,0,0-.867.868V41.632a.867.867,0,1,0,1.734,0V21.51A.868.868,0,0,0,38.6,20.642Z"/><path class="cls-1" d="M40.619,12.357h-4.03a2.883,2.883,0,0,0,0,5.765h4.03a2.883,2.883,0,0,0,0-5.765Zm0,4.03h-4.03a1.148,1.148,0,1,1,0-2.295h4.03a1.148,1.148,0,0,1,0,2.3Z"/><path class="cls-1" d="M24.5,32.731a.867.867,0,0,0-.867.867v8.034a.867.867,0,1,0,1.734,0V33.6A.867.867,0,0,0,24.5,32.731Z"/><path class="cls-1" d="M24.5,4.5a.868.868,0,0,0-.867.868v16.52a.867.867,0,1,0,1.734,0V5.368A.868.868,0,0,0,24.5,4.5Z"/><path class="cls-1" d="M26.516,24.873h-4.03a2.882,2.882,0,1,0,0,5.764h4.03a2.882,2.882,0,1,0,0-5.764Zm0,4.029h-4.03a1.147,1.147,0,1,1,0-2.294h4.03a1.147,1.147,0,1,1,0,2.294Z"/></svg>