<svg id="Layer_1" data-name="Layer 1" xmlns="http://www.w3.org/2000/svg" width="41" height="44" viewBox="0 0 41 44"><defs><style>.cls-1{fill:#003082;}</style></defs><title>heart</title><path class="cls-1" d="M5.253,24.262c1.617,1.747,13.434,13.6,14.724,14.889l.564.566.946-.944c8.246-8.272,13.337-13.421,14.335-14.5A10.7,10.7,0,0,0,39,16.746,9.861,9.861,0,0,0,36.04,9.7,10.059,10.059,0,0,0,28.961,6.8h-.084a9.337,9.337,0,0,0-8.169,4.811l-.167.3-.166-.3A9.356,9.356,0,0,0,12.2,6.805h-.087A10.045,10.045,0,0,0,2.082,16.749,10.683,10.683,0,0,0,5.253,24.262Zm6.867-15.9h.054A8.147,8.147,0,0,1,19.8,14.072l.741,1.948.736-1.962A8.108,8.108,0,0,1,28.9,8.349a8.434,8.434,0,0,1,8.518,8.4,9.253,9.253,0,0,1-2.772,6.491c-1.3,1.4-9.706,9.856-13.971,14.133l-.135.135-.135-.135C20.284,37.249,8.068,25,6.43,23.234a9.235,9.235,0,0,1-2.766-6.483A8.471,8.471,0,0,1,12.12,8.359Z"/><path class="cls-1" d="M34.9,18.771a.715.715,0,0,1-.715-.715,6.444,6.444,0,0,0-6.436-6.436.715.715,0,0,1,0-1.43,7.875,7.875,0,0,1,7.866,7.866A.715.715,0,0,1,34.9,18.771Z"/></svg>