<svg id="Layer_1" data-name="Layer 1" xmlns="http://www.w3.org/2000/svg" viewBox="0 0 41 44"><defs><style>.cls-1{fill:#003082;}</style></defs><title>heart</title><path class="cls-1" d="M5.219,23c1.617,1.746,13.427,13.592,14.717,14.881l.564.566.945-.943c8.243-8.268,13.331-13.415,14.328-14.492a10.694,10.694,0,0,0,3.177-7.524,9.855,9.855,0,0,0-2.959-7.048,10.05,10.05,0,0,0-7.075-2.889h-.084a9.335,9.335,0,0,0-8.165,4.808l-.167.3-.166-.3a9.35,9.35,0,0,0-8.173-4.808h-.087A10.039,10.039,0,0,0,2.05,15.492,10.678,10.678,0,0,0,5.219,23Zm6.864-15.9h.054a8.146,8.146,0,0,1,7.623,5.709l.74,1.948.736-1.961A8.1,8.1,0,0,1,28.856,7.1a8.43,8.43,0,0,1,8.514,8.4A9.252,9.252,0,0,1,34.6,21.98c-1.295,1.4-9.7,9.851-13.964,14.126l-.135.135-.135-.135C20.243,35.982,8.034,23.743,6.4,21.973a9.232,9.232,0,0,1-2.764-6.48A8.467,8.467,0,0,1,12.083,7.106Z"/><path class="cls-1" d="M34.709,16.7a.715.715,0,0,1-.715-.715,5.486,5.486,0,0,0-5.48-5.48.715.715,0,0,1,0-1.43,6.917,6.917,0,0,1,6.91,6.91A.715.715,0,0,1,34.709,16.7Z"/></svg>