<svg id="Layer_1" data-name="Layer 1" xmlns="http://www.w3.org/2000/svg" width="48" height="48" viewBox="0 0 48 48">
  <defs>
    <style>
      .cls-1 {
        fill: #003082;
      }
    </style>
  </defs>
  <title>invoice</title>
  <g>
    <path class="cls-1" d="M26.878,5.048,26.756,5H3V43H32V10.1ZM27,6.51,30.341,10H27ZM31,42H4V6H26v5h5Z"/>
    <rect class="cls-1" x="10" y="16" width="6" height="1"/>
    <rect class="cls-1" x="25" y="16" width="1" height="1"/>
    <rect class="cls-1" x="10" y="24" width="6" height="1"/>
    <rect class="cls-1" x="10" y="20" width="6" height="1"/>
    <rect class="cls-1" x="18" y="16" width="5" height="1"/>
    <rect class="cls-1" x="18" y="24" width="5" height="1"/>
    <rect class="cls-1" x="18" y="20" width="5" height="1"/>
    <rect class="cls-1" x="25" y="24" width="1" height="1"/>
    <rect class="cls-1" x="25" y="20" width="1" height="1"/>
    <rect class="cls-1" x="10" y="28" width="6" height="1"/>
    <rect class="cls-1" x="25" y="28" width="1" height="1"/>
    <rect class="cls-1" x="18" y="28" width="5" height="1"/>
    <rect class="cls-1" x="21" y="33" width="5" height="1"/>
  </g>
</svg>
