<svg id="Layer_1" data-name="Layer 1" xmlns="http://www.w3.org/2000/svg" width="363" height="379" viewBox="0 0 363 379"><defs><style>.cls-1{fill:#fff;}.cls-2,.cls-3,.cls-4{fill:none;}.cls-2{stroke:#e6e6e8;stroke-width:10px;}.cls-3{stroke:#ffc917;}.cls-3,.cls-4{stroke-width:20px;}.cls-4{stroke:#003082;}.cls-5{isolation:isolate;}.cls-6{fill:#767685;}.cls-7{fill:#003082;}.cls-8{fill:#6a6a7a;}.cls-9{fill:#ffc917;}.cls-10{fill:#e6e6e8;}.cls-11{fill:#0079d3;}</style></defs><title>kostenteller</title><g id="NS-Flex-Campaign"><g id="flex_campaign--xxl" data-name="flex  campaign--xxl"><g id="kostenteller"><rect id="bg" class="cls-1" width="363" height="379"/><g id="graphic"><g id="img"><g id="circle"><path id="Oval" class="cls-2" d="M114.5,298a80.881,80.881,0,0,0,52.348-19.148A82.03,82.03,0,0,0,196,216c0-45.287-36.489-82-81.5-82S33,170.713,33,216,69.489,298,114.5,298Z"/><path id="Stroke-3" class="cls-3" d="M166.327,280A82.674,82.674,0,0,0,196,216.317C196,170.854,159.734,134,115,134"/><path id="Stroke-3-2" data-name="Stroke-3" class="cls-4" d="M162,149.312A79.057,79.057,0,0,0,115,134"/></g><g id="txt"><g id="Alert-ingesteld-op-_" data-name="Alert-ingesteld-op-€" class="cls-5"><g class="cls-5"><path class="cls-6" d="M67.821,235l3.387-8.4h.955l3.451,8.4h-.867l-.932-2.244H69.544l-.9,2.244Zm2.016-2.959h3.674L72,228.227q-.059-.153-.141-.375c-.054-.149-.115-.323-.181-.522-.031.106-.073.232-.123.378s-.114.313-.188.5Z"/><path class="cls-6" d="M76.938,235v-9.07h.756V235Z"/><path class="cls-6" d="M79.253,231.867a3.477,3.477,0,0,1,.656-2.186,2.4,2.4,0,0,1,2.016-.939q2.444,0,2.443,3.375H80.009a2.7,2.7,0,0,0,.562,1.649,1.893,1.893,0,0,0,1.553.7A3.378,3.378,0,0,0,83.853,234l.023.77a4.155,4.155,0,0,1-1.723.366,2.689,2.689,0,0,1-2.208-.931A3.627,3.627,0,0,1,79.253,231.867Zm.779-.377h3.539q-.151-2.079-1.7-2.08a1.593,1.593,0,0,0-1.318.647A2.773,2.773,0,0,0,80.032,231.49Z"/><path class="cls-6" d="M85.991,228.9H86.8a4.035,4.035,0,0,1,.026.492v.117c0,.242-.015.525-.035.85q.427-1.512,1.6-1.512a2.12,2.12,0,0,1,.515.076v.779a1.5,1.5,0,0,0-.468-.076q-1.613,0-1.612,2.619V235h-.756v-4.061c0-.234-.012-.518-.026-.852S86.011,229.355,85.991,228.9Z"/><path class="cls-6" d="M89.39,229.557v-.627h1.248v-1.524l.756-.275v1.8h1.447v.627H91.394v3.127a4.139,4.139,0,0,0,.093,1.122.821.821,0,0,0,.879.555,1.807,1.807,0,0,0,.563-.117l.041.678a2.713,2.713,0,0,1-.756.107q-1.119,0-1.418-.744a5.708,5.708,0,0,1-.158-1.717v-3.011Z"/><path class="cls-6" d="M97.616,227.166v-1.031h.914v1.031ZM97.675,235v-6.1h.785V235Z"/><path class="cls-6" d="M100.458,228.9h.773q.012.363.012.667c0,.2,0,.387-.012.551a2.08,2.08,0,0,1,.821-.961,2.274,2.274,0,0,1,1.213-.334,1.784,1.784,0,0,1,1.736.926,4.619,4.619,0,0,1,.344,2.039V235h-.756v-3.059a5.42,5.42,0,0,0-.17-1.629,1.233,1.233,0,0,0-1.277-.826,1.6,1.6,0,0,0-1.459.8,3.249,3.249,0,0,0-.393,1.688V235h-.756v-4.166c-.008-.4-.017-.765-.029-1.087S100.478,229.141,100.458,228.9Z"/><path class="cls-6" d="M106.968,231.862a3.508,3.508,0,0,1,.608-2.113,2.249,2.249,0,0,1,1.92-.931,2.154,2.154,0,0,1,2.042,1.259c-.016-.137-.028-.3-.038-.494s-.019-.419-.026-.677h.738v5.854a2.934,2.934,0,0,1-.738,2.121,2.81,2.81,0,0,1-2.107.756,5.452,5.452,0,0,1-1.864-.369l.064-.824a4.395,4.395,0,0,0,1.8.478,2.064,2.064,0,0,0,1.578-.591,2.142,2.142,0,0,0,.511-1.292c.016-.237.029-.474.041-.707s.025-.47.042-.708a1.98,1.98,0,0,1-.775,1.047,2.154,2.154,0,0,1-1.256.4,2.205,2.205,0,0,1-1.932-1.02A3.792,3.792,0,0,1,106.968,231.862Zm.785.024a3.227,3.227,0,0,0,.411,1.679,1.542,1.542,0,0,0,1.408.837,1.661,1.661,0,0,0,1.455-.825,3.019,3.019,0,0,0,.458-1.68,2.769,2.769,0,0,0-.481-1.626,1.7,1.7,0,0,0-1.443-.785,1.551,1.551,0,0,0-1.4.779A3.008,3.008,0,0,0,107.753,231.886Z"/><path class="cls-6" d="M113.706,231.867a3.477,3.477,0,0,1,.656-2.186,2.4,2.4,0,0,1,2.016-.939q2.444,0,2.443,3.375h-4.359a2.7,2.7,0,0,0,.562,1.649,1.893,1.893,0,0,0,1.553.7,3.376,3.376,0,0,0,1.729-.468l.023.77a4.155,4.155,0,0,1-1.723.366,2.69,2.69,0,0,1-2.208-.931A3.627,3.627,0,0,1,113.706,231.867Zm.779-.377h3.539q-.151-2.079-1.7-2.08a1.593,1.593,0,0,0-1.318.647A2.773,2.773,0,0,0,114.485,231.49Z"/><path class="cls-6" d="M119.935,234.8l.053-.78a3.328,3.328,0,0,0,1.521.417,1.892,1.892,0,0,0,.964-.241.9.9,0,0,0,.5-.8,1.2,1.2,0,0,0-.778-1.027c-.245-.121-.486-.24-.721-.358l-.722-.358a1.505,1.505,0,0,1-.8-1.308,1.34,1.34,0,0,1,.67-1.208,2.629,2.629,0,0,1,1.407-.346,4.662,4.662,0,0,1,1.468.252l-.047.732a3.766,3.766,0,0,0-1.433-.316,1.716,1.716,0,0,0-.83.188.743.743,0,0,0-.426.686c0,.345.262.648.789.909q.368.189.736.373l.737.372a1.649,1.649,0,0,1,.79,1.409,1.463,1.463,0,0,1-.737,1.314,2.844,2.844,0,0,1-1.526.4A4.464,4.464,0,0,1,119.935,234.8Z"/><path class="cls-6" d="M124.61,229.557v-.627h1.248v-1.524l.756-.275v1.8h1.448v.627h-1.448v3.127a4.125,4.125,0,0,0,.094,1.122.821.821,0,0,0,.879.555,1.8,1.8,0,0,0,.562-.117l.041.678a2.711,2.711,0,0,1-.755.107q-1.12,0-1.418-.744a5.7,5.7,0,0,1-.159-1.717v-3.011Z"/><path class="cls-6" d="M129.058,231.867a3.471,3.471,0,0,1,.656-2.186,2.394,2.394,0,0,1,2.015-.939q2.444,0,2.444,3.375h-4.36a2.7,2.7,0,0,0,.563,1.649,1.892,1.892,0,0,0,1.553.7,3.372,3.372,0,0,0,1.728-.468l.024.77a4.158,4.158,0,0,1-1.723.366,2.688,2.688,0,0,1-2.208-.931A3.627,3.627,0,0,1,129.058,231.867Zm.779-.377h3.539q-.153-2.079-1.7-2.08a1.594,1.594,0,0,0-1.319.647A2.764,2.764,0,0,0,129.837,231.49Z"/><path class="cls-6" d="M135.772,235v-9.07h.756V235Z"/><path class="cls-6" d="M138.216,231.956a3.821,3.821,0,0,1,.573-2.141,2.132,2.132,0,0,1,1.878-1,2.157,2.157,0,0,1,2.043,1.244q-.035-.528-.035-1.067V225.93h.785V235h-.668c-.008-.109-.014-.267-.018-.473s0-.466,0-.782a1.8,1.8,0,0,1-.8.986,2.278,2.278,0,0,1-1.229.351,2.231,2.231,0,0,1-1.932-.966A3.708,3.708,0,0,1,138.216,231.956Zm.785-.064a3.562,3.562,0,0,0,.381,1.724,1.536,1.536,0,0,0,1.427.863,1.622,1.622,0,0,0,1.484-.875,3.441,3.441,0,0,0,.417-1.759,2.764,2.764,0,0,0-.481-1.649,1.693,1.693,0,0,0-1.461-.774,1.508,1.508,0,0,0-1.38.821A3.287,3.287,0,0,0,139,231.892Z"/><path class="cls-6" d="M148.353,231.947a3.455,3.455,0,0,1,.719-2.246,2.59,2.59,0,0,1,2.114-.947,2.649,2.649,0,0,1,2.161.93,3.413,3.413,0,0,1,.724,2.275,3.363,3.363,0,0,1-.73,2.242,2.9,2.9,0,0,1-4.257.006A3.406,3.406,0,0,1,148.353,231.947Zm.785.024a2.918,2.918,0,0,0,.522,1.738,1.826,1.826,0,0,0,1.549.822,1.789,1.789,0,0,0,1.543-.828,2.96,2.96,0,0,0,.511-1.744,3.133,3.133,0,0,0-.493-1.756,1.778,1.778,0,0,0-1.538-.846,1.834,1.834,0,0,0-1.589.823A3.079,3.079,0,0,0,149.138,231.971Z"/><path class="cls-6" d="M155.542,228.9h.709q.006.1.006.234v.633c0,.121,0,.253.006.393a2.032,2.032,0,0,1,.836-.991,2.329,2.329,0,0,1,1.253-.346,2.193,2.193,0,0,1,1.905.951,3.591,3.591,0,0,1,.588,2.123,3.893,3.893,0,0,1-.576,2.189,2.213,2.213,0,0,1-1.941,1,2.069,2.069,0,0,1-1.989-1.173,6.266,6.266,0,0,1,.053.954v2.715h-.786v-6.644c0-.317,0-.644-.017-.982S155.562,229.262,155.542,228.9Zm.785,3.038a3.161,3.161,0,0,0,.439,1.707,1.634,1.634,0,0,0,1.463.839,1.545,1.545,0,0,0,1.421-.833,3.4,3.4,0,0,0,.386-1.7,3.492,3.492,0,0,0-.369-1.672,1.47,1.47,0,0,0-1.362-.85,1.711,1.711,0,0,0-1.5.8A2.923,2.923,0,0,0,156.327,231.933Z"/></g><g class="cls-5"><path class="cls-6" d="M90.509,246.041v-.627h.708a5.91,5.91,0,0,1-.034-.662c0-.1,0-.2.008-.3s.013-.188.021-.278h-.7v-.627h.813a3.667,3.667,0,0,1,1.566-2.253,4.766,4.766,0,0,1,2.677-.736,3.872,3.872,0,0,1,1.395.263l-.311.648a3.068,3.068,0,0,0-1.084-.2,3.763,3.763,0,0,0-2.074.561,3.111,3.111,0,0,0-1.265,1.713h3.416l-.317.627H92.073c-.015.1-.027.214-.035.325s-.012.226-.012.343a4.56,4.56,0,0,0,.036.568h2.654l-.311.627H92.19a3.03,3.03,0,0,0,1.26,1.724,3.755,3.755,0,0,0,2.08.549,4.618,4.618,0,0,0,1.43-.2v.785a5.852,5.852,0,0,1-.63.1,6.679,6.679,0,0,1-.718.035,4.9,4.9,0,0,1-2.713-.708,3.634,3.634,0,0,1-1.571-2.28Z"/><path class="cls-6" d="M102.339,242.209l1.939-1.611h.7V249h-.791v-7.131s0-.026.012-.091.02-.163.035-.3a3.1,3.1,0,0,1-.281.317,4.962,4.962,0,0,1-.4.357c-.125.1-.25.2-.375.3s-.25.2-.375.3Z"/><path class="cls-6" d="M109.194,242.209l1.94-1.611h.7V249h-.791v-7.131s0-.026.012-.091.019-.163.035-.3a3.1,3.1,0,0,1-.281.317,5.164,5.164,0,0,1-.405.357c-.125.1-.25.2-.375.3s-.25.2-.375.3Z"/><path class="cls-6" d="M115.089,244.655a6.354,6.354,0,0,1,.521-2.752,2.3,2.3,0,0,1,2.2-1.428q2.823,0,2.824,4.344a6.555,6.555,0,0,1-.516,2.838,2.343,2.343,0,0,1-2.256,1.448Q115.09,249.105,115.089,244.655Zm.844.153a6.736,6.736,0,0,0,.334,2.281q.486,1.349,1.605,1.349t1.6-1.349a8.351,8.351,0,0,0,0-4.551q-.469-1.349-1.588-1.349Q115.933,241.189,115.933,244.808Z"/><path class="cls-6" d="M122.073,250.617l.692-2.648h.984l-.908,2.648Z"/><path class="cls-6" d="M125.437,244.655a6.339,6.339,0,0,1,.521-2.752,2.3,2.3,0,0,1,2.2-1.428q2.825,0,2.824,4.344a6.557,6.557,0,0,1-.515,2.838,2.343,2.343,0,0,1-2.256,1.448Q125.436,249.105,125.437,244.655Zm.843.153a6.761,6.761,0,0,0,.334,2.281q.486,1.349,1.606,1.349t1.6-1.349a8.325,8.325,0,0,0,0-4.551q-.468-1.349-1.588-1.349Q126.281,241.189,126.28,244.808Z"/><path class="cls-6" d="M132.292,244.655a6.354,6.354,0,0,1,.521-2.752,2.3,2.3,0,0,1,2.2-1.428q2.825,0,2.824,4.344a6.555,6.555,0,0,1-.516,2.838,2.342,2.342,0,0,1-2.256,1.448Q132.293,249.105,132.292,244.655Zm.844.153a6.736,6.736,0,0,0,.334,2.281q.486,1.349,1.6,1.349t1.6-1.349a8.351,8.351,0,0,0,0-4.551q-.47-1.349-1.588-1.349Q133.136,241.189,133.136,244.808Z"/></g></g><g id="_-46_40" data-name="€-46,40" class="cls-5"><g class="cls-5"><path class="cls-7" d="M66,209.191v-2.064h1.312q-.027-.4-.027-.984a9.513,9.513,0,0,1,.055-1.149H66V202.93h1.713a8.523,8.523,0,0,1,3.5-4.922,11.192,11.192,0,0,1,6.4-1.75,11.487,11.487,0,0,1,4.088.613l-1.435,2.9a5.279,5.279,0,0,0-2.229-.329q-4.443,0-5.92,3.487h6.618l-1.04,2.064h-6.1c-.046.574-.069.921-.069,1.039s.023.484.069,1.094H76.65l-1.039,2.064H72.18a5.985,5.985,0,0,0,2.365,2.691,6.683,6.683,0,0,0,3.568.973A10.968,10.968,0,0,0,81,212.487v3.4a18.953,18.953,0,0,1-3.035.219,12.009,12.009,0,0,1-6.8-1.784,8.315,8.315,0,0,1-3.5-5.134Z"/><path class="cls-7" d="M90.4,212.021v-3.294L97.65,196.4H102.7v12.632h2.516v2.994H102.7V216H98.867v-3.979Zm3.582-2.994h4.881v-8.121a6.347,6.347,0,0,1,.246-1.394l-.506,1.148Z"/><path class="cls-7" d="M107.057,207.021q0-10.9,8.076-10.9a17.65,17.65,0,0,1,4.263.637l-.462,3.141a7.819,7.819,0,0,0-3.239-.784q-4.384,0-4.795,5.934a4.252,4.252,0,0,1,3.863-1.873,5.168,5.168,0,0,1,4.1,1.8,7.038,7.038,0,0,1,1.566,4.788,6.522,6.522,0,0,1-1.731,4.8,6.339,6.339,0,0,1-4.715,1.746,6.1,6.1,0,0,1-5.228-2.268Q107.056,211.777,107.057,207.021Zm4.088,2.58a4.675,4.675,0,0,0,.753,2.772,2.32,2.32,0,0,0,1.974,1.057,2.232,2.232,0,0,0,1.892-.975,4.271,4.271,0,0,0,.713-2.58,4.523,4.523,0,0,0-.727-2.7,2.316,2.316,0,0,0-1.987-1.009,2.271,2.271,0,0,0-1.919.927A4.054,4.054,0,0,0,111.145,209.6Z"/><path class="cls-7" d="M122.793,219.158l1.764-7.054h4.005l-2.5,7.054Z"/><path class="cls-7" d="M130.5,212.021v-3.294L137.75,196.4h5.045v12.632h2.516v2.994h-2.516V216h-3.828v-3.979Zm3.582-2.994h4.881v-8.121a6.347,6.347,0,0,1,.246-1.394l-.506,1.148Z"/><path class="cls-7" d="M147.047,206.417q0-10.3,6.863-10.3,6.836,0,6.836,10.09,0,5.052-1.76,7.578a6.411,6.411,0,0,1-10.2-.007Q147.046,211.25,147.047,206.417Zm4.006,0q0,7.013,2.857,7.013,2.831,0,2.83-7.04a17.492,17.492,0,0,0-.656-5.6,2.283,2.283,0,0,0-2.174-1.781Q151.053,199.006,151.053,206.417Z"/></g></g></g></g><g id="legenda"><g id="Abonnement-_-5_00-Re" data-name="Abonnement-€-5,00-Re" class="cls-5"><g class="cls-5"><path class="cls-8" d="M248.362,179l3.951-9.8h1.115l4.026,9.8h-1.012l-1.087-2.618h-4.983L249.319,179Zm2.352-3.452H255l-1.764-4.45c-.045-.119-.1-.265-.164-.438s-.134-.376-.212-.608c-.036.123-.085.27-.143.44s-.133.366-.219.585Z"/><path class="cls-8" d="M258.9,179V168.418h.916v3.808c0,.136,0,.271-.007.4-.008.2-.025.4-.046.609a2.31,2.31,0,0,1,.985-1.074,2.766,2.766,0,0,1,1.424-.376A2.551,2.551,0,0,1,264.4,172.9a4.24,4.24,0,0,1,.68,2.477,4.484,4.484,0,0,1-.667,2.555,2.558,2.558,0,0,1-2.262,1.168,2.506,2.506,0,0,1-2.395-1.457c.008.1.016.24.019.408s.007.375.007.62V179Zm.9-3.613a3.744,3.744,0,0,0,.513,2.012,1.9,1.9,0,0,0,1.712.993,1.8,1.8,0,0,0,1.643-.965,3.818,3.818,0,0,0,.459-1.95,4.173,4.173,0,0,0-.424-1.979,1.732,1.732,0,0,0-1.623-1.006,1.978,1.978,0,0,0-1.719.938A3.337,3.337,0,0,0,259.806,175.387Z"/><path class="cls-8" d="M266.457,175.438a4.025,4.025,0,0,1,.84-2.62,3.022,3.022,0,0,1,2.465-1.105,3.089,3.089,0,0,1,2.521,1.085,3.975,3.975,0,0,1,.846,2.654,3.925,3.925,0,0,1-.852,2.616,3.383,3.383,0,0,1-4.966.007A3.971,3.971,0,0,1,266.457,175.438Zm.916.028a3.408,3.408,0,0,0,.609,2.028,2.129,2.129,0,0,0,1.807.959,2.087,2.087,0,0,0,1.8-.966,3.462,3.462,0,0,0,.6-2.035,3.649,3.649,0,0,0-.576-2.049,2.071,2.071,0,0,0-1.794-.986,2.138,2.138,0,0,0-1.854.959A3.6,3.6,0,0,0,267.373,175.466Z"/><path class="cls-8" d="M274.913,171.877h.9q.014.423.014.779c0,.238,0,.451-.014.643a2.408,2.408,0,0,1,.957-1.121,2.645,2.645,0,0,1,1.416-.39,2.081,2.081,0,0,1,2.025,1.08,5.391,5.391,0,0,1,.4,2.379V179h-.882v-3.568a6.317,6.317,0,0,0-.2-1.9,1.438,1.438,0,0,0-1.49-.964,1.863,1.863,0,0,0-1.7.937,3.8,3.8,0,0,0-.458,1.969V179H275v-4.86c-.01-.47-.021-.892-.034-1.269S274.936,172.164,274.913,171.877Z"/><path class="cls-8" d="M282.911,171.877h.9q.014.423.014.779c0,.238,0,.451-.014.643a2.41,2.41,0,0,1,.958-1.121,2.639,2.639,0,0,1,1.415-.39,2.081,2.081,0,0,1,2.025,1.08,5.376,5.376,0,0,1,.4,2.379V179h-.882v-3.568a6.317,6.317,0,0,0-.2-1.9,1.438,1.438,0,0,0-1.49-.964,1.863,1.863,0,0,0-1.7.937,3.8,3.8,0,0,0-.458,1.969V179H283v-4.86c-.01-.47-.021-.892-.034-1.269S282.934,172.164,282.911,171.877Z"/><path class="cls-8" d="M290.369,175.346a4.059,4.059,0,0,1,.766-2.552,2.794,2.794,0,0,1,2.351-1.095q2.851,0,2.851,3.938h-5.086a3.155,3.155,0,0,0,.656,1.923,2.209,2.209,0,0,0,1.812.818,3.933,3.933,0,0,0,2.016-.546l.028.9a4.832,4.832,0,0,1-2.01.428,3.134,3.134,0,0,1-2.576-1.086A4.231,4.231,0,0,1,290.369,175.346Zm.909-.441h4.129q-.177-2.427-1.982-2.426a1.856,1.856,0,0,0-1.538.753A3.254,3.254,0,0,0,291.278,174.905Z"/><path class="cls-8" d="M298.148,171.877h.875q0,.563,0,.917c0,.235-.006.4-.01.5a2.35,2.35,0,0,1,2.244-1.517,2.081,2.081,0,0,1,1.3.413,1.768,1.768,0,0,1,.684,1.179,2.268,2.268,0,0,1,.9-1.159,2.509,2.509,0,0,1,1.43-.433,1.94,1.94,0,0,1,1.93,1.122,5.936,5.936,0,0,1,.35,2.358V179h-.882v-3.715a5.807,5.807,0,0,0-.192-1.762,1.274,1.274,0,0,0-1.294-.969q-2.007,0-2.007,3.073V179h-.882v-3.373a9.119,9.119,0,0,0-.13-1.939,1.31,1.31,0,0,0-1.343-1.134,1.689,1.689,0,0,0-1.589,1.024,4.224,4.224,0,0,0-.411,1.96V179h-.882v-4.648Q298.21,173,298.148,171.877Z"/><path class="cls-8" d="M309.551,175.346a4.065,4.065,0,0,1,.765-2.552,2.8,2.8,0,0,1,2.352-1.095q2.85,0,2.851,3.938h-5.086a3.155,3.155,0,0,0,.656,1.923,2.207,2.207,0,0,0,1.811.818,3.934,3.934,0,0,0,2.017-.546l.027.9a4.824,4.824,0,0,1-2.009.428,3.136,3.136,0,0,1-2.577-1.086A4.231,4.231,0,0,1,309.551,175.346Zm.909-.441h4.129q-.177-2.427-1.983-2.426a1.858,1.858,0,0,0-1.538.753A3.245,3.245,0,0,0,310.46,174.905Z"/><path class="cls-8" d="M317.357,171.877h.9c.01.282.013.542.013.779s0,.451-.013.643a2.408,2.408,0,0,1,.957-1.121,2.642,2.642,0,0,1,1.415-.39,2.084,2.084,0,0,1,2.026,1.08,5.391,5.391,0,0,1,.4,2.379V179h-.882v-3.568a6.317,6.317,0,0,0-.2-1.9,1.44,1.44,0,0,0-1.491-.964,1.863,1.863,0,0,0-1.7.937,3.788,3.788,0,0,0-.458,1.969V179h-.882v-4.86c-.008-.47-.02-.892-.034-1.269S317.381,172.164,317.357,171.877Z"/><path class="cls-8" d="M324.515,172.649v-.731h1.456v-1.777l.882-.322v2.1h1.688v.731h-1.688V176.3a4.8,4.8,0,0,0,.109,1.309.957.957,0,0,0,1.025.648,2.089,2.089,0,0,0,.657-.137l.047.791a3.158,3.158,0,0,1-.881.125q-1.306,0-1.655-.868a6.687,6.687,0,0,1-.184-2v-3.514Z"/></g><g class="cls-5"><path class="cls-7" d="M248,195.6v-1.033h.656c-.01-.131-.013-.295-.013-.492a4.788,4.788,0,0,1,.027-.574H248v-1.032h.856A4.261,4.261,0,0,1,250.6,190a5.6,5.6,0,0,1,3.2-.875,5.737,5.737,0,0,1,2.044.307l-.718,1.451a2.613,2.613,0,0,0-1.114-.165,2.892,2.892,0,0,0-2.96,1.743h3.308l-.519,1.032H250.8c-.023.287-.034.46-.034.52s.011.241.034.546h2.529l-.519,1.033H251.09a2.994,2.994,0,0,0,1.182,1.344,3.333,3.333,0,0,0,1.785.488,5.509,5.509,0,0,0,1.442-.184v1.7a9.461,9.461,0,0,1-1.518.11,6,6,0,0,1-3.4-.893,4.159,4.159,0,0,1-1.751-2.566Z"/><path class="cls-7" d="M260.805,198.86l.054-1.834a3.879,3.879,0,0,0,2.084.5,2.251,2.251,0,0,0,1.468-.442,1.445,1.445,0,0,0,.542-1.178,1.49,1.49,0,0,0-.6-1.246,2.6,2.6,0,0,0-1.624-.463,6.112,6.112,0,0,0-1.738.274l.082-5.278h5.674v1.525H262.93l-.069,1.982c.338-.027.6-.041.789-.041a3.49,3.49,0,0,1,2.475.882,2.982,2.982,0,0,1,.947,2.283,3.015,3.015,0,0,1-1.051,2.452,4.516,4.516,0,0,1-2.974.877A8.875,8.875,0,0,1,260.805,198.86Z"/><path class="cls-7" d="M268.4,200.579l.882-3.527h2l-1.251,3.527Z"/><path class="cls-7" d="M272.541,194.209q0-5.149,3.432-5.148t3.418,5.044a6.643,6.643,0,0,1-.881,3.79,3.205,3.205,0,0,1-5.1,0A6.5,6.5,0,0,1,272.541,194.209Zm2,0q0,3.505,1.429,3.506t1.415-3.52a8.755,8.755,0,0,0-.328-2.8,1.141,1.141,0,0,0-1.087-.891Q274.544,190.5,274.544,194.209Z"/><path class="cls-7" d="M280.532,194.209q0-5.149,3.432-5.148t3.418,5.044a6.66,6.66,0,0,1-.88,3.79,3.206,3.206,0,0,1-5.1,0A6.508,6.508,0,0,1,280.532,194.209Zm2,0q0,3.505,1.429,3.506t1.415-3.52a8.726,8.726,0,0,0-.328-2.8,1.141,1.141,0,0,0-1.087-.891Q282.536,190.5,282.535,194.209Z"/></g><g class="cls-5"><path class="cls-8" d="M249.312,239v-9.8h1.894q3.555,0,3.555,2.539a2.235,2.235,0,0,1-.635,1.637,2.705,2.705,0,0,1-1.6.746,1.407,1.407,0,0,1,.909.513,2.407,2.407,0,0,1,.228.352,6.562,6.562,0,0,1,.291.591L255.513,239h-1.046l-1.331-2.994a4.334,4.334,0,0,0-.62-1.108,1.6,1.6,0,0,0-1.189-.41h-1.071V239Zm.944-5.346h.907a3.444,3.444,0,0,0,1.754-.411,1.621,1.621,0,0,0,.859-1.493q0-1.719-2.579-1.719h-.941Z"/><path class="cls-8" d="M256.613,235.346a4.059,4.059,0,0,1,.766-2.552,2.794,2.794,0,0,1,2.351-1.095q2.851,0,2.851,3.938H257.5a3.155,3.155,0,0,0,.656,1.923,2.209,2.209,0,0,0,1.812.818,3.931,3.931,0,0,0,2.016-.546l.028.9a4.832,4.832,0,0,1-2.01.428,3.134,3.134,0,0,1-2.576-1.086A4.231,4.231,0,0,1,256.613,235.346Zm.909-.441h4.129q-.177-2.427-1.982-2.426a1.856,1.856,0,0,0-1.538.753A3.254,3.254,0,0,0,257.522,234.905Z"/><path class="cls-8" d="M264.372,229.86v-1.2h1.066v1.2Zm.068,9.14v-7.123h.916V239Z"/><path class="cls-8" d="M267.147,238.768l.062-.91a3.9,3.9,0,0,0,1.775.486,2.205,2.205,0,0,0,1.125-.281,1.045,1.045,0,0,0,.586-.937,1.394,1.394,0,0,0-.906-1.2l-.843-.417q-.411-.206-.842-.418a1.756,1.756,0,0,1-.929-1.527,1.562,1.562,0,0,1,.782-1.409,3.079,3.079,0,0,1,1.641-.4,5.441,5.441,0,0,1,1.713.294l-.055.854a4.4,4.4,0,0,0-1.672-.369,2,2,0,0,0-.969.219.87.87,0,0,0-.5.8q0,.6.921,1.061c.285.146.572.291.858.435s.574.288.861.434a1.924,1.924,0,0,1,.922,1.643,1.709,1.709,0,0,1-.86,1.533,3.315,3.315,0,0,1-1.781.464A5.22,5.22,0,0,1,267.147,238.768Z"/><path class="cls-8" d="M273.525,239V228.418h.916v6.351l3.275-2.892h1.162l-3.6,3.11,4,4.013h-1.223l-3.61-3.671V239Z"/><path class="cls-8" d="M280.184,235.438a4.03,4.03,0,0,1,.839-2.62,3.023,3.023,0,0,1,2.465-1.105,3.092,3.092,0,0,1,2.522,1.085,3.98,3.98,0,0,1,.845,2.654,3.929,3.929,0,0,1-.851,2.616,3.384,3.384,0,0,1-4.967.007A3.976,3.976,0,0,1,280.184,235.438Zm.916.028a3.408,3.408,0,0,0,.609,2.028,2.128,2.128,0,0,0,1.807.959,2.085,2.085,0,0,0,1.8-.966,3.455,3.455,0,0,0,.6-2.035,3.648,3.648,0,0,0-.575-2.049,2.071,2.071,0,0,0-1.794-.986,2.141,2.141,0,0,0-1.855.959A3.6,3.6,0,0,0,281.1,235.466Z"/><path class="cls-8" d="M288.1,238.768l.062-.91a3.886,3.886,0,0,0,1.774.486,2.205,2.205,0,0,0,1.125-.281,1.045,1.045,0,0,0,.586-.937,1.391,1.391,0,0,0-.907-1.2l-.842-.417q-.413-.206-.841-.418a1.757,1.757,0,0,1-.93-1.527,1.562,1.562,0,0,1,.782-1.409,3.079,3.079,0,0,1,1.641-.4,5.436,5.436,0,0,1,1.713.294l-.055.854a4.4,4.4,0,0,0-1.672-.369,2,2,0,0,0-.968.219.869.869,0,0,0-.5.8q0,.6.92,1.061.43.219.86.435t.859.434a1.923,1.923,0,0,1,.923,1.643,1.706,1.706,0,0,1-.861,1.533,3.31,3.31,0,0,1-1.781.464A5.206,5.206,0,0,1,288.1,238.768Z"/><path class="cls-8" d="M293.555,232.649v-.731h1.456v-1.777l.882-.322v2.1h1.688v.731h-1.688V236.3a4.839,4.839,0,0,0,.109,1.309.959.959,0,0,0,1.025.648,2.078,2.078,0,0,0,.657-.137l.047.791a3.158,3.158,0,0,1-.881.125q-1.307,0-1.655-.868a6.687,6.687,0,0,1-.184-2v-3.514Z"/><path class="cls-8" d="M298.743,235.346a4.053,4.053,0,0,1,.766-2.552,2.8,2.8,0,0,1,2.351-1.095q2.851,0,2.851,3.938h-5.086a3.143,3.143,0,0,0,.656,1.923,2.208,2.208,0,0,0,1.812.818,3.939,3.939,0,0,0,2.016-.546l.028.9a4.825,4.825,0,0,1-2.01.428,3.135,3.135,0,0,1-2.576-1.086A4.225,4.225,0,0,1,298.743,235.346Zm.909-.441h4.129q-.179-2.427-1.982-2.426a1.856,1.856,0,0,0-1.538.753A3.237,3.237,0,0,0,299.652,234.905Z"/><path class="cls-8" d="M306.55,231.877h.9q.014.423.014.779c0,.238,0,.451-.014.643a2.408,2.408,0,0,1,.957-1.121,2.644,2.644,0,0,1,1.415-.39,2.082,2.082,0,0,1,2.026,1.08,5.391,5.391,0,0,1,.4,2.379V239h-.882v-3.568a6.317,6.317,0,0,0-.2-1.9,1.438,1.438,0,0,0-1.49-.964,1.862,1.862,0,0,0-1.7.937,3.8,3.8,0,0,0-.458,1.969V239h-.882v-4.86c-.01-.47-.021-.892-.035-1.269S306.572,232.164,306.55,231.877Z"/></g><g class="cls-5"><path class="cls-7" d="M248,255.6v-1.033h.656c-.01-.131-.013-.295-.013-.492a4.788,4.788,0,0,1,.027-.574H248v-1.032h.856A4.261,4.261,0,0,1,250.6,250a5.6,5.6,0,0,1,3.2-.875,5.737,5.737,0,0,1,2.044.307l-.718,1.451a2.613,2.613,0,0,0-1.114-.165,2.892,2.892,0,0,0-2.96,1.743h3.308l-.519,1.032H250.8c-.023.287-.034.46-.034.52s.011.241.034.546h2.529l-.519,1.033H251.09a2.994,2.994,0,0,0,1.182,1.344,3.333,3.333,0,0,0,1.785.488,5.509,5.509,0,0,0,1.442-.184v1.7a9.461,9.461,0,0,1-1.518.11,6,6,0,0,1-3.4-.893,4.159,4.159,0,0,1-1.751-2.566Z"/><path class="cls-7" d="M260.2,257.011v-1.648l3.623-6.166h2.523v6.317h1.257v1.5h-1.257V259h-1.914v-1.989Zm1.791-1.5h2.441v-4.061a3.188,3.188,0,0,1,.123-.7l-.253.574Z"/><path class="cls-7" d="M268.85,251.48l2.923-2.283h1.711V259h-1.948v-7.643l-1.661,1.415Z"/><path class="cls-7" d="M276.4,260.579l.882-3.527h2l-1.251,3.527Z"/><path class="cls-7" d="M280.252,257.011v-1.648l3.623-6.166H286.4v6.317h1.258v1.5H286.4V259h-1.914v-1.989Zm1.791-1.5h2.44v-4.061a3.188,3.188,0,0,1,.123-.7l-.252.574Z"/><path class="cls-7" d="M288.523,254.209q0-5.149,3.432-5.148t3.418,5.044a6.643,6.643,0,0,1-.881,3.79,3.2,3.2,0,0,1-5.1,0A6.491,6.491,0,0,1,288.523,254.209Zm2,0q0,3.505,1.429,3.506t1.415-3.52a8.726,8.726,0,0,0-.328-2.8,1.141,1.141,0,0,0-1.087-.891Q290.526,250.5,290.526,254.209Z"/></g></g><circle id="Oval-2" class="cls-7" cx="231" cy="177" r="7"/><circle id="Oval-2-2" data-name="Oval-2" class="cls-9" cx="231" cy="236" r="7"/></g></g><g id="periode"><g id="Nieuwe-factuurperiod" class="cls-5"><g class="cls-5"><path class="cls-8" d="M29.176,41V31.2h1.107l4.04,6.645q.5.828.807,1.442a6.4,6.4,0,0,1,.437,1.067q-.1-.6-.143-1.456t-.048-2V31.2h.882V41H35.205l-4-6.535q-.267-.452-.444-.745t-.267-.451a7.1,7.1,0,0,1-.554-1.258q.056.513.086,1.223c.02.474.031,1.031.031,1.668V41Z"/><path class="cls-8" d="M38.548,31.86v-1.2h1.066v1.2ZM38.616,41V33.877h.916V41Z"/><path class="cls-8" d="M41.323,37.346a4.059,4.059,0,0,1,.766-2.552A2.794,2.794,0,0,1,44.44,33.7q2.852,0,2.851,3.938H42.205a3.155,3.155,0,0,0,.656,1.923,2.208,2.208,0,0,0,1.812.818,3.933,3.933,0,0,0,2.016-.546l.028.9a4.828,4.828,0,0,1-2.01.428,3.135,3.135,0,0,1-2.576-1.086A4.225,4.225,0,0,1,41.323,37.346Zm.909-.441h4.129q-.177-2.427-1.982-2.426a1.857,1.857,0,0,0-1.538.753A3.237,3.237,0,0,0,42.232,36.905Z"/><path class="cls-8" d="M49.116,37.4v-3.52h.916V37.4a6.031,6.031,0,0,0,.212,1.923,1.423,1.423,0,0,0,1.46.992,1.754,1.754,0,0,0,1.535-.794,3.766,3.766,0,0,0,.553-2.175v-3.47h.882v4.5a24.155,24.155,0,0,0,.1,2.618h-.84V39.536a2.371,2.371,0,0,1-2.375,1.56,2.087,2.087,0,0,1-1.9-.909,4.37,4.37,0,0,1-.528-2.126c-.005-.1-.008-.206-.01-.315S49.116,37.521,49.116,37.4Z"/><path class="cls-8" d="M56.123,33.877h.984l1.4,4.357q.185.658.315,1.216t.2,1.051a15.69,15.69,0,0,1,.431-1.887l1.51-4.737h1.06l1.545,4.658c.094.358.182.7.265,1.017s.154.632.21.935a8.634,8.634,0,0,1,.284-1.19l.544-1.835,1.063-3.585h.916L64.555,41H63.5l-1.715-5.022-.206-.856a6.136,6.136,0,0,1-.123-.643q-.3,1.407-.881,3.281L59.528,41H58.477Z"/><path class="cls-8" d="M67.635,37.346a4.059,4.059,0,0,1,.765-2.552A2.8,2.8,0,0,1,70.752,33.7q2.85,0,2.851,3.938H68.517a3.143,3.143,0,0,0,.656,1.923,2.207,2.207,0,0,0,1.811.818A3.937,3.937,0,0,0,73,39.832l.027.9a4.824,4.824,0,0,1-2.009.428,3.136,3.136,0,0,1-2.577-1.086A4.231,4.231,0,0,1,67.635,37.346Zm.909-.441h4.129q-.178-2.427-1.983-2.426a1.857,1.857,0,0,0-1.538.753A3.245,3.245,0,0,0,68.544,36.905Z"/><path class="cls-8" d="M78.5,34.656v-.731h1.483a9.544,9.544,0,0,1,.174-2.361,1.7,1.7,0,0,1,1.809-1.2,2.676,2.676,0,0,1,.779.128l-.068.781a1.683,1.683,0,0,0-.65-.129q-1.155,0-1.155,1.843c0,.055,0,.129,0,.223s.006.188.011.284.007.185.01.268,0,.136,0,.164h1.641v.731H80.9V41h-.916V34.656Z"/><path class="cls-8" d="M83.768,39.035q0-2.341,3.889-2.342c.11,0,.221,0,.335,0s.23,0,.349.01V36.59q0-2.024-1.791-2.023a3.984,3.984,0,0,0-1.983.62l.028-.934a5.293,5.293,0,0,1,2.16-.465,2.378,2.378,0,0,1,1.82.629,2.728,2.728,0,0,1,.593,1.56q.027.2.041.683t.007,1.272l.007,1.4q.006.954.082,1.664h-.848c0-.095-.008-.188-.01-.28s0-.184,0-.275c0-.127,0-.254.007-.38s.011-.247.021-.366a2.589,2.589,0,0,1-2.42,1.4,2.437,2.437,0,0,1-1.62-.526A1.9,1.9,0,0,1,83.768,39.035Zm.916.027a1.2,1.2,0,0,0,.451.98,1.572,1.572,0,0,0,1.046.35,1.841,1.841,0,0,0,1.77-.912,4.28,4.28,0,0,0,.39-2.062c-.174-.014-.356-.021-.547-.021a4.056,4.056,0,0,0-2.7.672A1.3,1.3,0,0,0,84.684,39.062Z"/><path class="cls-8" d="M90.911,37.408A3.437,3.437,0,0,1,94.5,33.829a5.369,5.369,0,0,1,1.675.265l-.062.9a3.81,3.81,0,0,0-1.558-.335,2.6,2.6,0,0,0-1.949.765,2.694,2.694,0,0,0-.752,1.96,2.948,2.948,0,0,0,.7,2,2.381,2.381,0,0,0,1.9.867,3.712,3.712,0,0,0,1.7-.4l.089.889a4.967,4.967,0,0,1-1.832.292,3.311,3.311,0,0,1-2.522-1.028A3.636,3.636,0,0,1,90.911,37.408Z"/><path class="cls-8" d="M97.043,34.649v-.731H98.5V32.141l.882-.322v2.1h1.688v.731H99.381V38.3a4.8,4.8,0,0,0,.109,1.309.959.959,0,0,0,1.026.648,2.078,2.078,0,0,0,.656-.137l.048.791a3.159,3.159,0,0,1-.882.125q-1.306,0-1.654-.868a6.675,6.675,0,0,1-.185-2V34.649Z"/><path class="cls-8" d="M102.758,37.4v-3.52h.916V37.4a6.039,6.039,0,0,0,.211,1.923,1.425,1.425,0,0,0,1.461.992,1.756,1.756,0,0,0,1.535-.794,3.766,3.766,0,0,0,.553-2.175v-3.47h.881v4.5a24.094,24.094,0,0,0,.1,2.618h-.841V39.536A2.37,2.37,0,0,1,105.2,41.1a2.088,2.088,0,0,1-1.9-.909,4.37,4.37,0,0,1-.528-2.126c0-.1-.007-.206-.01-.315S102.758,37.521,102.758,37.4Z"/><path class="cls-8" d="M110.729,37.4v-3.52h.916V37.4a6.039,6.039,0,0,0,.211,1.923,1.423,1.423,0,0,0,1.46.992,1.756,1.756,0,0,0,1.536-.794,3.773,3.773,0,0,0,.552-2.175v-3.47h.882v4.5a23.836,23.836,0,0,0,.1,2.618h-.841V39.536a2.37,2.37,0,0,1-2.375,1.56,2.088,2.088,0,0,1-1.9-.909,4.37,4.37,0,0,1-.528-2.126c0-.1-.008-.206-.01-.315S110.729,37.521,110.729,37.4Z"/><path class="cls-8" d="M118.768,33.877h.94a4.7,4.7,0,0,1,.03.574v.137c0,.282-.018.613-.041.991q.5-1.764,1.866-1.764a2.5,2.5,0,0,1,.6.089v.909a1.767,1.767,0,0,0-.547-.088q-1.88,0-1.88,3.055V41h-.882V36.263c0-.274-.014-.6-.03-.995S118.791,34.415,118.768,33.877Z"/><path class="cls-8" d="M123.505,33.877h.827c0,.077.007.169.007.273v.739c0,.141,0,.295.007.459a2.375,2.375,0,0,1,.976-1.157,2.715,2.715,0,0,1,1.461-.4,2.557,2.557,0,0,1,2.222,1.108,4.192,4.192,0,0,1,.686,2.477,4.544,4.544,0,0,1-.672,2.555,2.58,2.58,0,0,1-2.264,1.168,2.412,2.412,0,0,1-2.32-1.368,7.293,7.293,0,0,1,.061,1.113v3.167h-.916V36.256q0-.553-.02-1.145T123.505,33.877Zm.916,3.545a3.688,3.688,0,0,0,.512,1.991,1.907,1.907,0,0,0,1.706.979,1.8,1.8,0,0,0,1.659-.972,3.954,3.954,0,0,0,.45-1.984,4.092,4.092,0,0,0-.43-1.952,1.717,1.717,0,0,0-1.59-.992,2,2,0,0,0-1.748.938A3.412,3.412,0,0,0,124.421,37.422Z"/><path class="cls-8" d="M131.059,37.346a4.059,4.059,0,0,1,.765-2.552,2.8,2.8,0,0,1,2.352-1.095q2.85,0,2.85,3.938H131.94a3.149,3.149,0,0,0,.657,1.923,2.207,2.207,0,0,0,1.811.818,3.94,3.94,0,0,0,2.017-.546l.027.9a4.825,4.825,0,0,1-2.01.428,3.135,3.135,0,0,1-2.576-1.086A4.231,4.231,0,0,1,131.059,37.346Zm.909-.441H136.1q-.179-2.427-1.983-2.426a1.857,1.857,0,0,0-1.538.753A3.245,3.245,0,0,0,131.968,36.905Z"/><path class="cls-8" d="M138.92,33.877h.94a4.675,4.675,0,0,1,.031.574v.137c0,.282-.018.613-.041.991q.5-1.764,1.866-1.764a2.5,2.5,0,0,1,.6.089v.909a1.761,1.761,0,0,0-.546-.088q-1.881,0-1.88,3.055V41h-.882V36.263c0-.274-.015-.6-.031-.995S138.943,34.415,138.92,33.877Z"/><path class="cls-8" d="M143.678,31.86v-1.2h1.066v1.2Zm.068,9.14V33.877h.916V41Z"/><path class="cls-8" d="M146.48,37.438a4.03,4.03,0,0,1,.84-2.62,3.024,3.024,0,0,1,2.466-1.1,3.092,3.092,0,0,1,2.521,1.085,3.98,3.98,0,0,1,.845,2.654,3.925,3.925,0,0,1-.852,2.616,3.383,3.383,0,0,1-4.966.007A3.971,3.971,0,0,1,146.48,37.438Zm.916.028a3.409,3.409,0,0,0,.61,2.028,2.129,2.129,0,0,0,1.807.959,2.087,2.087,0,0,0,1.8-.966,3.455,3.455,0,0,0,.6-2.035,3.656,3.656,0,0,0-.575-2.049,2.071,2.071,0,0,0-1.794-.986,2.141,2.141,0,0,0-1.855.959A3.6,3.6,0,0,0,147.4,37.466Z"/><path class="cls-8" d="M154.547,37.449a4.458,4.458,0,0,1,.669-2.5,2.489,2.489,0,0,1,2.191-1.163,2.516,2.516,0,0,1,2.383,1.45q-.04-.615-.041-1.244V30.418h.916V41h-.779c-.01-.127-.016-.311-.021-.552s-.007-.545-.007-.912a2.106,2.106,0,0,1-.928,1.152,2.661,2.661,0,0,1-1.433.408,2.6,2.6,0,0,1-2.254-1.127A4.319,4.319,0,0,1,154.547,37.449Zm.916-.076a4.15,4.15,0,0,0,.445,2.013,1.789,1.789,0,0,0,1.664,1.006,1.9,1.9,0,0,0,1.732-1.02,4.024,4.024,0,0,0,.486-2.054,3.225,3.225,0,0,0-.561-1.922,1.975,1.975,0,0,0-1.705-.9,1.761,1.761,0,0,0-1.609.958A3.823,3.823,0,0,0,155.463,37.373Z"/><path class="cls-8" d="M162.429,37.346a4.059,4.059,0,0,1,.765-2.552,2.8,2.8,0,0,1,2.352-1.095q2.85,0,2.85,3.938h-5.085a3.143,3.143,0,0,0,.656,1.923,2.207,2.207,0,0,0,1.811.818,3.937,3.937,0,0,0,2.017-.546l.027.9a4.825,4.825,0,0,1-2.01.428,3.135,3.135,0,0,1-2.576-1.086A4.231,4.231,0,0,1,162.429,37.346Zm.909-.441h4.129q-.179-2.427-1.983-2.426a1.857,1.857,0,0,0-1.538.753A3.245,3.245,0,0,0,163.338,36.905Z"/></g><g class="cls-5"><path class="cls-7" d="M29.222,56.332,32.981,53.4h2.2V66h-2.5V56.174L30.54,57.993Z"/><path class="cls-7" d="M39.013,62.55a2.933,2.933,0,0,1,2.352-3.15,3.038,3.038,0,0,1-1.684-1.048,3.108,3.108,0,0,1,.568-4.24,5.043,5.043,0,0,1,3.152-.891,4.786,4.786,0,0,1,2.951.821,2.614,2.614,0,0,1,1.089,2.2,2.857,2.857,0,0,1-2.118,2.947,3.075,3.075,0,0,1,2.488,3.273,3.406,3.406,0,0,1-1.171,2.752A4.869,4.869,0,0,1,43.4,66.2a4.826,4.826,0,0,1-3.212-.992A3.3,3.3,0,0,1,39.013,62.55Zm2.54-.035a1.744,1.744,0,0,0,.533,1.324,1.939,1.939,0,0,0,1.4.509A1.63,1.63,0,0,0,45.235,62.6a1.749,1.749,0,0,0-.485-1.294,4.265,4.265,0,0,0-1.594-.881,3.344,3.344,0,0,0-1.264.916A1.951,1.951,0,0,0,41.553,62.515Zm.123-6.019a1.452,1.452,0,0,0,.383,1.07,5.084,5.084,0,0,0,1.564.869,3.813,3.813,0,0,0,1.11-.89,1.667,1.667,0,0,0,.3-1.014,1.431,1.431,0,0,0-.467-1.092,1.651,1.651,0,0,0-1.172-.434,1.814,1.814,0,0,0-1.233.421A1.353,1.353,0,0,0,41.676,56.5Z"/><path class="cls-7" d="M54.306,61.149a5.156,5.156,0,0,1,1.054-3.386,3.438,3.438,0,0,1,2.8-1.282,3.369,3.369,0,0,1,1.682.405,3.422,3.422,0,0,1,1.243,1.3,1.024,1.024,0,0,1-.032-.171c-.015-.109-.029-.266-.043-.471s-.02-.41-.02-.615V52.4h2.409V63.284q0,1.223.07,2.716h-2.32V64.4a3.059,3.059,0,0,1-1.185,1.344,3.535,3.535,0,0,1-1.751.4,3.445,3.445,0,0,1-2.878-1.308A5.846,5.846,0,0,1,54.306,61.149Zm2.505.122a3.617,3.617,0,0,0,.571,2.148,1.79,1.79,0,0,0,1.529.8,1.818,1.818,0,0,0,1.516-.793,3.306,3.306,0,0,0,.594-2.037,3.381,3.381,0,0,0-.6-2.1,1.906,1.906,0,0,0-1.595-.793,1.734,1.734,0,0,0-1.468.736A3.371,3.371,0,0,0,56.811,61.271Z"/><path class="cls-7" d="M65.529,63.337a2.382,2.382,0,0,1,1.164-2.2,6.99,6.99,0,0,1,3.535-.7q.458,0,1.348.07a2.542,2.542,0,0,0-.5-1.77,2.065,2.065,0,0,0-1.568-.533,4.623,4.623,0,0,0-2.9.975l-.07-2.061a7.574,7.574,0,0,1,3.234-.7,4.734,4.734,0,0,1,2.78.782,2.635,2.635,0,0,1,.713.7,3.25,3.25,0,0,1,.374,1.156,13.376,13.376,0,0,1,.136,2.167v2q0,1.653.088,2.769H71.726l-.044-1.406a3.188,3.188,0,0,1-3,1.547,3.386,3.386,0,0,1-2.3-.743A2.585,2.585,0,0,1,65.529,63.337Zm2.365.088a.976.976,0,0,0,.414.831,1.8,1.8,0,0,0,1.083.3,3.254,3.254,0,0,0,.873-.1,1.638,1.638,0,0,0,1.153-1.173,4.928,4.928,0,0,0,.194-1.318l-.643-.053a5.626,5.626,0,0,0-2.308.364A1.2,1.2,0,0,0,67.894,63.425Z"/><path class="cls-7" d="M75.769,61.228a5.318,5.318,0,0,1,1.042-3.481,3.5,3.5,0,0,1,2.854-1.266,2.943,2.943,0,0,1,2.88,1.688l.07-1.529h2.25v8.226a5.458,5.458,0,0,1-1.175,3.907,4.887,4.887,0,0,1-3.647,1.208,8.088,8.088,0,0,1-1.591-.144,12.181,12.181,0,0,1-1.715-.505l.192-2.1a5.811,5.811,0,0,0,2.824.794,3.194,3.194,0,0,0,1.673-.431,2.154,2.154,0,0,0,.744-.661A2.393,2.393,0,0,0,82.483,66a17.718,17.718,0,0,0,.132-1.876A3.349,3.349,0,0,1,79.462,66a3.219,3.219,0,0,1-2.7-1.3A5.568,5.568,0,0,1,75.769,61.228Zm2.5-.053a3.489,3.489,0,0,0,.564,2.083,1.752,1.752,0,0,0,1.489.782,1.893,1.893,0,0,0,1.541-.8,3.048,3.048,0,0,0,.625-1.946,3.17,3.17,0,0,0-.617-2.013,1.905,1.905,0,0,0-1.567-.791,1.762,1.762,0,0,0-1.475.738A3.136,3.136,0,0,0,78.273,61.175Z"/><path class="cls-7" d="M86.957,61.275a5.023,5.023,0,0,1,1.235-3.563,4.269,4.269,0,0,1,3.283-1.327,3.932,3.932,0,0,1,3.093,1.252,4.848,4.848,0,0,1,1.117,3.349c0,.268-.018.638-.053,1.112H89.348a2.362,2.362,0,0,0,.83,1.726,2.905,2.905,0,0,0,1.929.629,5.759,5.759,0,0,0,2.918-.947l.071,2.087a8.371,8.371,0,0,1-3.279.644,4.8,4.8,0,0,1-3.577-1.3A4.992,4.992,0,0,1,86.957,61.275Zm2.355-.962h4.07q-.027-2.144-1.96-2.144a1.938,1.938,0,0,0-1.442.569A2.543,2.543,0,0,0,89.312,60.313Z"/><path class="cls-7" d="M97.706,56.64h2.285l.053,1.507a3.9,3.9,0,0,1,4.463-1.432,2.46,2.46,0,0,1,.91.584,2.8,2.8,0,0,1,.571.918,4.908,4.908,0,0,1,.3,1.152,10.077,10.077,0,0,1,.083,1.358V66h-2.408V61.309a4.616,4.616,0,0,0-.369-2.126,1.339,1.339,0,0,0-1.283-.671,2.721,2.721,0,0,0-.6.061,1.718,1.718,0,0,0-.563.254,1.687,1.687,0,0,0-.492.518,2.912,2.912,0,0,0-.329.889,6.111,6.111,0,0,0-.128,1.329V66H97.794V58.925Q97.794,57.791,97.706,56.64Z"/></g></g><g id="bar"><rect id="line" class="cls-10" x="28" y="88" width="100" height="3"/><rect id="fill" class="cls-7" x="28" y="88" width="62.617" height="3"/></g></g><g id="Bekijk-details" class="cls-5"><g class="cls-5"><path class="cls-11" d="M29.2,344v-9.8h2.017a4.639,4.639,0,0,1,2.338.512,2.132,2.132,0,0,1,1.1,1.986,2.089,2.089,0,0,1-1.83,2.164,2.318,2.318,0,0,1,1.549.794,2.48,2.48,0,0,1,.589,1.664q0,2.682-3.732,2.683Zm.944-5.51h1.037a3.34,3.34,0,0,0,1.671-.37,1.508,1.508,0,0,0,.8-1.411q0-1.677-2.435-1.678H30.14Zm0,4.676H31.2q2.775,0,2.776-1.883,0-1.957-2.776-1.959H30.14Z"/><path class="cls-11" d="M36.6,340.346a4.059,4.059,0,0,1,.765-2.552,2.8,2.8,0,0,1,2.352-1.095q2.85,0,2.85,3.938H37.481a3.149,3.149,0,0,0,.657,1.923,2.207,2.207,0,0,0,1.811.818,3.94,3.94,0,0,0,2.017-.546l.027.9a4.825,4.825,0,0,1-2.01.428,3.135,3.135,0,0,1-2.576-1.086A4.231,4.231,0,0,1,36.6,340.346Zm.909-.441h4.129q-.178-2.427-1.983-2.426a1.857,1.857,0,0,0-1.538.753A3.245,3.245,0,0,0,37.509,339.905Z"/><path class="cls-11" d="M44.488,344V333.418H45.4v6.351l3.275-2.892h1.162l-3.6,3.11,4,4.013H49.014l-3.61-3.671V344Z"/><path class="cls-11" d="M51.611,334.86v-1.2h1.067v1.2ZM51.68,344v-7.123H52.6V344Z"/><path class="cls-11" d="M53.58,346.919l.041-.807a1.589,1.589,0,0,0,.52.117.835.835,0,0,0,.881-.588,4.192,4.192,0,0,0,.1-1.162v-7.6h.882v7.984a2.958,2.958,0,0,1-.31,1.552,1.58,1.58,0,0,1-1.42.595A2.89,2.89,0,0,1,53.58,346.919Zm1.456-12.059v-1.2h1.046v1.2Z"/><path class="cls-11" d="M58.345,344V333.418h.916v6.351l3.274-2.892H63.7l-3.6,3.11,4,4.013H62.87l-3.609-3.671V344Z"/><path class="cls-11" d="M69.043,340.449a4.458,4.458,0,0,1,.669-2.5,2.489,2.489,0,0,1,2.191-1.163,2.516,2.516,0,0,1,2.383,1.45q-.041-.615-.041-1.244v-3.576h.916V344h-.779q-.013-.191-.021-.552c0-.24-.007-.545-.007-.912a2.106,2.106,0,0,1-.928,1.152,2.661,2.661,0,0,1-1.433.408,2.6,2.6,0,0,1-2.254-1.127A4.319,4.319,0,0,1,69.043,340.449Zm.916-.076a4.15,4.15,0,0,0,.445,2.013,1.789,1.789,0,0,0,1.664,1.006,1.9,1.9,0,0,0,1.732-1.02,4.024,4.024,0,0,0,.486-2.054,3.225,3.225,0,0,0-.561-1.922,1.975,1.975,0,0,0-1.7-.9,1.761,1.761,0,0,0-1.609.958A3.823,3.823,0,0,0,69.959,340.373Z"/><path class="cls-11" d="M76.925,340.346a4.059,4.059,0,0,1,.765-2.552,2.8,2.8,0,0,1,2.352-1.095q2.85,0,2.851,3.938H77.807a3.143,3.143,0,0,0,.656,1.923,2.207,2.207,0,0,0,1.811.818,3.934,3.934,0,0,0,2.017-.546l.027.9a4.824,4.824,0,0,1-2.009.428,3.136,3.136,0,0,1-2.577-1.086A4.231,4.231,0,0,1,76.925,340.346Zm.909-.441h4.129q-.178-2.427-1.983-2.426a1.857,1.857,0,0,0-1.538.753A3.245,3.245,0,0,0,77.834,339.905Z"/><path class="cls-11" d="M83.891,337.649v-.731h1.456v-1.777l.882-.322v2.1h1.688v.731H86.229V341.3a4.8,4.8,0,0,0,.109,1.309.959.959,0,0,0,1.025.648,2.084,2.084,0,0,0,.657-.137l.047.791a3.158,3.158,0,0,1-.881.125q-1.307,0-1.655-.868a6.687,6.687,0,0,1-.184-2v-3.514Z"/><path class="cls-11" d="M89.113,342.035q0-2.342,3.89-2.342c.109,0,.221,0,.335,0s.23,0,.349.01v-.117q0-2.023-1.791-2.023a3.984,3.984,0,0,0-1.983.62l.027-.934a5.3,5.3,0,0,1,2.161-.465,2.38,2.38,0,0,1,1.82.629,2.728,2.728,0,0,1,.593,1.56c.018.131.031.359.041.683s.011.747.007,1.272l.006,1.4q.007.954.082,1.664H93.8c0-.1-.008-.188-.011-.28s0-.184,0-.275c0-.127,0-.254.007-.38s.011-.247.02-.366a2.588,2.588,0,0,1-2.42,1.4,2.441,2.441,0,0,1-1.62-.526A1.9,1.9,0,0,1,89.113,342.035Zm.916.027a1.205,1.205,0,0,0,.451.98,1.574,1.574,0,0,0,1.046.35,1.843,1.843,0,0,0,1.771-.912,4.28,4.28,0,0,0,.39-2.062c-.174-.014-.356-.021-.547-.021a4.059,4.059,0,0,0-2.7.672A1.3,1.3,0,0,0,90.029,342.062Z"/><path class="cls-11" d="M96.756,334.86v-1.2h1.066v1.2Zm.068,9.14v-7.123h.916V344Z"/><path class="cls-11" d="M100.1,344V333.418h.881V344Z"/><path class="cls-11" d="M102.8,343.768l.062-.91a3.889,3.889,0,0,0,1.774.486,2.2,2.2,0,0,0,1.125-.281,1.046,1.046,0,0,0,.587-.937,1.4,1.4,0,0,0-.907-1.2c-.287-.141-.567-.281-.842-.417l-.842-.418a1.757,1.757,0,0,1-.93-1.527,1.562,1.562,0,0,1,.782-1.409,3.079,3.079,0,0,1,1.641-.4,5.436,5.436,0,0,1,1.713.294l-.055.854a4.4,4.4,0,0,0-1.672-.369,2,2,0,0,0-.968.219.87.87,0,0,0-.5.8q0,.6.92,1.061.429.219.859.435t.86.434a1.924,1.924,0,0,1,.922,1.643,1.709,1.709,0,0,1-.86,1.533,3.312,3.312,0,0,1-1.781.464A5.207,5.207,0,0,1,102.8,343.768Z"/></g></g><g id="Pas-kostenalert-aan" class="cls-5"><g class="cls-5"><path class="cls-11" d="M137.285,344v-9.8h1.846q3.617,0,3.616,2.807a2.431,2.431,0,0,1-1.126,2.2,4.639,4.639,0,0,1-2.5.589h-.894V344Zm.944-5.038h.879q2.655,0,2.655-1.972t-2.627-1.959h-.907Z"/><path class="cls-11" d="M143.848,342.035q0-2.342,3.889-2.342c.11,0,.221,0,.335,0s.23,0,.349.01v-.117q0-2.023-1.791-2.023a3.984,3.984,0,0,0-1.983.62l.028-.934a5.293,5.293,0,0,1,2.16-.465,2.378,2.378,0,0,1,1.82.629,2.728,2.728,0,0,1,.593,1.56q.027.2.041.683t.007,1.272l.007,1.4q.006.954.082,1.664h-.848c0-.1-.008-.188-.01-.28s0-.184,0-.275c0-.127,0-.254.007-.38s.012-.247.021-.366a2.589,2.589,0,0,1-2.42,1.4,2.437,2.437,0,0,1-1.62-.526A1.9,1.9,0,0,1,143.848,342.035Zm.916.027a1.2,1.2,0,0,0,.451.98,1.572,1.572,0,0,0,1.046.35,1.841,1.841,0,0,0,1.77-.912,4.28,4.28,0,0,0,.39-2.062c-.173-.014-.356-.021-.547-.021a4.058,4.058,0,0,0-2.7.672A1.3,1.3,0,0,0,144.764,342.062Z"/><path class="cls-11" d="M151,343.768l.062-.91a3.889,3.889,0,0,0,1.774.486,2.2,2.2,0,0,0,1.125-.281,1.044,1.044,0,0,0,.587-.937,1.393,1.393,0,0,0-.907-1.2l-.842-.417-.842-.418a1.757,1.757,0,0,1-.93-1.527,1.561,1.561,0,0,1,.783-1.409,3.076,3.076,0,0,1,1.64-.4,5.431,5.431,0,0,1,1.713.294l-.055.854a4.4,4.4,0,0,0-1.671-.369,2,2,0,0,0-.969.219.87.87,0,0,0-.5.8q0,.6.92,1.061.429.219.859.435t.86.434a1.922,1.922,0,0,1,.922,1.643,1.707,1.707,0,0,1-.86,1.533,3.312,3.312,0,0,1-1.781.464A5.211,5.211,0,0,1,151,343.768Z"/><path class="cls-11" d="M161.293,344V333.418h.916v6.351l3.274-2.892h1.163l-3.6,3.11,4,4.013h-1.224l-3.609-3.671V344Z"/><path class="cls-11" d="M167.951,340.438a4.03,4.03,0,0,1,.84-2.62,3.02,3.02,0,0,1,2.465-1.1,3.094,3.094,0,0,1,2.522,1.085,3.986,3.986,0,0,1,.845,2.654,3.925,3.925,0,0,1-.852,2.616,3.383,3.383,0,0,1-4.966.007A3.971,3.971,0,0,1,167.951,340.438Zm.916.028a3.4,3.4,0,0,0,.61,2.028,2.129,2.129,0,0,0,1.807.959,2.087,2.087,0,0,0,1.8-.966,3.455,3.455,0,0,0,.6-2.035,3.649,3.649,0,0,0-.576-2.049,2.07,2.07,0,0,0-1.793-.986,2.138,2.138,0,0,0-1.855.959A3.6,3.6,0,0,0,168.867,340.466Z"/><path class="cls-11" d="M175.867,343.768l.062-.91a3.893,3.893,0,0,0,1.775.486,2.205,2.205,0,0,0,1.125-.281,1.045,1.045,0,0,0,.586-.937,1.393,1.393,0,0,0-.907-1.2l-.842-.417-.842-.418a1.756,1.756,0,0,1-.929-1.527,1.56,1.56,0,0,1,.782-1.409,3.076,3.076,0,0,1,1.64-.4,5.431,5.431,0,0,1,1.713.294l-.054.854a4.406,4.406,0,0,0-1.672-.369,2,2,0,0,0-.969.219.87.87,0,0,0-.5.8q0,.6.92,1.061.429.219.859.435t.86.434a1.922,1.922,0,0,1,.922,1.643,1.708,1.708,0,0,1-.859,1.533,3.318,3.318,0,0,1-1.782.464A5.211,5.211,0,0,1,175.867,343.768Z"/><path class="cls-11" d="M181.322,337.649v-.731h1.456v-1.777l.882-.322v2.1h1.689v.731H183.66V341.3a4.783,4.783,0,0,0,.11,1.309.959.959,0,0,0,1.025.648,2.068,2.068,0,0,0,.656-.137l.048.791a3.159,3.159,0,0,1-.882.125q-1.306,0-1.654-.868a6.675,6.675,0,0,1-.185-2v-3.514Z"/><path class="cls-11" d="M186.511,340.346a4.059,4.059,0,0,1,.765-2.552,2.8,2.8,0,0,1,2.352-1.095q2.85,0,2.851,3.938h-5.086a3.143,3.143,0,0,0,.656,1.923,2.206,2.206,0,0,0,1.811.818,3.94,3.94,0,0,0,2.017-.546l.027.9a4.82,4.82,0,0,1-2.009.428,3.137,3.137,0,0,1-2.577-1.086A4.225,4.225,0,0,1,186.511,340.346Zm.909-.441h4.129q-.179-2.427-1.983-2.426a1.858,1.858,0,0,0-1.538.753A3.228,3.228,0,0,0,187.42,339.905Z"/><path class="cls-11" d="M194.317,336.877h.9q.014.423.013.779c0,.238,0,.451-.013.643a2.4,2.4,0,0,1,.957-1.121,2.642,2.642,0,0,1,1.415-.39,2.081,2.081,0,0,1,2.025,1.08,5.374,5.374,0,0,1,.4,2.379V344h-.882v-3.568a6.308,6.308,0,0,0-.2-1.9,1.438,1.438,0,0,0-1.49-.964,1.863,1.863,0,0,0-1.7.937,3.8,3.8,0,0,0-.458,1.969V344h-.882v-4.86c-.01-.47-.02-.892-.034-1.269S194.34,337.164,194.317,336.877Z"/><path class="cls-11" d="M201.81,342.035q0-2.342,3.889-2.342c.11,0,.221,0,.335,0s.23,0,.349.01v-.117q0-2.023-1.791-2.023a3.981,3.981,0,0,0-1.983.62l.028-.934a5.293,5.293,0,0,1,2.16-.465,2.378,2.378,0,0,1,1.82.629,2.721,2.721,0,0,1,.593,1.56c.019.131.032.359.041.683s.011.747.007,1.272l.007,1.4q.008.954.082,1.664H206.5c0-.1-.008-.188-.011-.28s0-.184,0-.275c0-.127,0-.254.007-.38s.012-.247.021-.366a2.589,2.589,0,0,1-2.42,1.4,2.439,2.439,0,0,1-1.62-.526A1.9,1.9,0,0,1,201.81,342.035Zm.916.027a1.2,1.2,0,0,0,.451.98,1.572,1.572,0,0,0,1.046.35,1.842,1.842,0,0,0,1.77-.912,4.28,4.28,0,0,0,.39-2.062c-.174-.014-.356-.021-.547-.021a4.054,4.054,0,0,0-2.7.672A1.3,1.3,0,0,0,202.726,342.062Z"/><path class="cls-11" d="M209.527,344V333.418h.882V344Z"/><path class="cls-11" d="M212.228,340.346a4.053,4.053,0,0,1,.765-2.552,2.8,2.8,0,0,1,2.352-1.095q2.85,0,2.85,3.938h-5.086a3.143,3.143,0,0,0,.657,1.923,2.206,2.206,0,0,0,1.811.818,3.94,3.94,0,0,0,2.017-.546l.027.9a4.825,4.825,0,0,1-2.01.428,3.135,3.135,0,0,1-2.576-1.086A4.225,4.225,0,0,1,212.228,340.346Zm.909-.441h4.129q-.18-2.427-1.983-2.426a1.857,1.857,0,0,0-1.538.753A3.228,3.228,0,0,0,213.137,339.905Z"/><path class="cls-11" d="M220.089,336.877h.94a4.675,4.675,0,0,1,.031.574v.137c0,.282-.019.613-.041.991q.5-1.764,1.866-1.764a2.5,2.5,0,0,1,.6.089v.909a1.762,1.762,0,0,0-.547-.088q-1.879,0-1.879,3.055V344h-.882v-4.737c0-.274-.015-.6-.032-1S220.111,337.415,220.089,336.877Z"/><path class="cls-11" d="M224.054,337.649v-.731h1.456v-1.777l.882-.322v2.1h1.688v.731h-1.688V341.3a4.8,4.8,0,0,0,.109,1.309.957.957,0,0,0,1.025.648,2.089,2.089,0,0,0,.657-.137l.047.791a3.158,3.158,0,0,1-.881.125q-1.3,0-1.655-.868a6.687,6.687,0,0,1-.184-2v-3.514Z"/><path class="cls-11" d="M233.193,342.035q0-2.342,3.89-2.342c.109,0,.222,0,.335,0s.23,0,.349.01v-.117q0-2.023-1.791-2.023a3.984,3.984,0,0,0-1.983.62l.028-.934a5.293,5.293,0,0,1,2.16-.465,2.38,2.38,0,0,1,1.82.629,2.735,2.735,0,0,1,.593,1.56q.025.2.041.683c.01.323.011.747.007,1.272l.006,1.4q.006.954.082,1.664h-.847c0-.1-.008-.188-.01-.28s0-.184,0-.275c0-.127,0-.254.007-.38s.011-.247.02-.366a2.588,2.588,0,0,1-2.419,1.4,2.44,2.44,0,0,1-1.621-.526A1.9,1.9,0,0,1,233.193,342.035Zm.916.027a1.2,1.2,0,0,0,.452.98,1.571,1.571,0,0,0,1.045.35,1.842,1.842,0,0,0,1.771-.912,4.28,4.28,0,0,0,.39-2.062c-.173-.014-.356-.021-.547-.021a4.056,4.056,0,0,0-2.7.672A1.3,1.3,0,0,0,234.109,342.062Z"/><path class="cls-11" d="M240.378,342.035q0-2.342,3.89-2.342c.109,0,.22,0,.335,0s.229,0,.348.01v-.117q0-2.023-1.791-2.023a3.98,3.98,0,0,0-1.982.62l.027-.934a5.293,5.293,0,0,1,2.16-.465,2.381,2.381,0,0,1,1.821.629,2.728,2.728,0,0,1,.592,1.56,6.62,6.62,0,0,1,.041.683q.014.484.007,1.272l.007,1.4q.007.954.082,1.664h-.848c0-.1-.007-.188-.01-.28s0-.184,0-.275c0-.127,0-.254.007-.38s.011-.247.02-.366a2.588,2.588,0,0,1-2.42,1.4,2.439,2.439,0,0,1-1.62-.526A1.9,1.9,0,0,1,240.378,342.035Zm.916.027a1.2,1.2,0,0,0,.451.98,1.572,1.572,0,0,0,1.046.35,1.843,1.843,0,0,0,1.771-.912,4.293,4.293,0,0,0,.389-2.062c-.174-.014-.355-.021-.547-.021a4.056,4.056,0,0,0-2.7.672A1.3,1.3,0,0,0,241.294,342.062Z"/><path class="cls-11" d="M248.068,336.877h.9q.013.423.013.779c0,.238,0,.451-.013.643a2.408,2.408,0,0,1,.957-1.121,2.642,2.642,0,0,1,1.415-.39,2.084,2.084,0,0,1,2.026,1.08,5.391,5.391,0,0,1,.4,2.379V344h-.882v-3.568a6.275,6.275,0,0,0-.2-1.9,1.438,1.438,0,0,0-1.49-.964,1.863,1.863,0,0,0-1.7.937,3.788,3.788,0,0,0-.458,1.969V344h-.882v-4.86c-.009-.47-.02-.892-.034-1.269S248.092,337.164,248.068,336.877Z"/></g></g></g></g></g></svg>