<svg id="Layer_1" data-name="Layer 1" xmlns="http://www.w3.org/2000/svg" width="56" height="56" viewBox="0 0 56 56">
  <defs>
    <style>
      .cls-1 {
        fill: #003082;
      }
    </style>
  </defs>
  <title>nooitmeer</title>
  <g>
    <path class="cls-1" d="M27.978,8l1.993,2H27.282a.4.4,0,0,1-.275-.114L25.54,8.414A1.394,1.394,0,0,0,24.556,8h-2.94l-2.491,2.5L21.616,13h1.409l-1.993-2h2.69a.4.4,0,0,1,.278.11l1.471,1.47a1.39,1.39,0,0,0,.981.42H29.39l2.49-2.5L29.387,8Zm1,4h-2.53a.4.4,0,0,1-.277-.126L24.7,10.4a1.387,1.387,0,0,0-.978-.4H21.033l1-1H24.56a.389.389,0,0,1,.277.119L26.3,10.594a1.387,1.387,0,0,0,.981.406h2.691Z"/>
    <rect class="cls-1" x="30" y="27" width="2" height="1"/>
    <rect class="cls-1" x="30" y="24" width="2" height="1"/>
    <path class="cls-1" d="M48.868,2.838l-.736-.676L38,13.184V6H13V40.382L2.632,51.662l.736.676L13,41.86V42h2v9h1V42H35v9h1V42h2V14.662ZM14,7H37v7H14Zm0,8H36.331l-2.758,3H17V31h4.624L14,39.294Zm17.255,7H32v-.811L33,20.1V30H23.9Zm-.439-1H30v.887L22.543,30H18V19H32.654ZM37,41H14v-.228L22.982,31H34V19.014l3-3.264Z"/>
  </g>
</svg>
