<svg id="Layer_1" data-name="Layer 1" xmlns="http://www.w3.org/2000/svg" width="48" height="56" viewBox="0 0 48 56">
  <defs>
    <style>
      .cls-1 {
        fill: #003082;
      }
    </style>
  </defs>
  <title>nooitmeer</title>
  <g>
    <path class="cls-1" d="M25.978,8l1.993,2H25.282a.4.4,0,0,1-.275-.114L23.54,8.414A1.394,1.394,0,0,0,22.556,8h-2.94l-2.491,2.5L19.616,13h1.409l-1.993-2h2.69a.4.4,0,0,1,.278.11l1.471,1.47a1.39,1.39,0,0,0,.981.42H27.39l2.49-2.5L27.387,8Zm1,4h-2.53a.4.4,0,0,1-.277-.126L22.7,10.4a1.387,1.387,0,0,0-.978-.4H19.033l1-1H22.56a.389.389,0,0,1,.277.119L24.3,10.594a1.387,1.387,0,0,0,.981.406h2.691Z"/>
    <rect class="cls-1" x="28" y="27" width="2" height="1"/>
    <rect class="cls-1" x="28" y="24" width="2" height="1"/>
    <path class="cls-1" d="M46.868,2.838l-.736-.676L36,13.184V6H11V40.382L.632,51.662l.736.676L11,41.86V42h2v9h1V42H33v9h1V42h2V14.662ZM12,7H35v7H12Zm0,8H34.331l-2.758,3H15V31h4.624L12,39.294Zm17.255,7H30v-.811L31,20.1V30H21.9Zm-.439-1H28v.887L20.543,30H16V19H30.654ZM35,41H12v-.228L20.982,31H32V19.014l3-3.264Z"/>
  </g>
</svg>
