<?xml version="1.0" encoding="UTF-8"?>
<svg viewBox="0 0 222 222" version="1.1" xmlns="http://www.w3.org/2000/svg" xmlns:xlink="http://www.w3.org/1999/xlink">
    <!-- Generator: Sketch 50.2 (55047) - http://www.bohemiancoding.com/sketch -->
    <title>icon</title>
    <desc>Created with Sketch.</desc>
    <defs></defs>
    <g id="Archive" stroke="none" stroke-width="1" fill="none" fill-rule="evenodd">
        <g id="flex__campaign--s" transform="translate(-26.000000, -725.000000)">
            <g id="section" transform="translate(0.000000, 580.000000)">
                <g id="content" transform="translate(28.000000, 148.000000)">
                    <g id="icon">
                        <g id="07_icons/01_general/ticket-machine--large" transform="translate(57.000000, 16.000000)">
                            <g id="ticket-machine--large">
                                <path d="M4.08,143.111111 L97.92,143.111111 L97.92,36.8 L4.08,36.8 L4.08,143.111111 Z M16.32,49.0666667 L85.68,49.0666667 L85.68,102.222222 L16.32,102.222222 L16.32,49.0666667 Z" id="Shape"></path>
                                <path d="M54.27216,18.7843556 L48.27864,12.7532444 C47.99304,12.4588444 47.58912,12.2666667 47.14848,12.2666667 L36.83832,12.2666667 L32.77056,16.3555556 L43.74168,16.3555556 C45.29616,16.3555556 46.70784,16.9688889 47.73192,17.9829333 L53.7336,24.0181333 C54.02736,24.3125333 54.4272,24.5333333 54.86784,24.5333333 L65.178,24.5333333 L69.24168,20.4444444 L58.2624,20.4444444 C56.70792,20.4444444 55.29624,19.7984 54.27216,18.7843556 Z" id="Shape"></path>
                                <path d="M20.4,98.1333333 L81.6,98.1333333 L81.6,53.1555556 L20.4,53.1555556 L20.4,98.1333333 Z M69.36,61.3333333 L77.52,61.3333333 L77.52,65.4222222 L69.36,65.4222222 L69.36,61.3333333 Z M69.36,73.6 L77.52,73.6 L77.52,77.6888889 L69.36,77.6888889 L69.36,73.6 Z M69.36,85.8666667 L77.52,85.8666667 L77.52,89.9555556 L69.36,89.9555556 L69.36,85.8666667 Z" id="Shape"></path>
                                <path d="M4.08,4.08888889 L4.08,32.7111111 L97.92,32.7111111 L97.92,4.08888889 L4.08,4.08888889 Z M66.85896,28.6222222 L54.87192,28.6222222 C53.30928,28.6222222 51.89352,27.9352889 50.86944,26.9008 L44.86776,20.8901333 C44.574,20.6120889 44.18232,20.4444444 43.74576,20.4444444 L32.77056,20.4444444 L40.902,28.6222222 L35.15328,28.6222222 L24.99,18.4040889 L35.15328,8.17777778 L47.14848,8.17777778 C48.7152,8.17777778 50.13504,8.83608889 51.15912,9.87057778 L57.14448,15.8894222 C57.43416,16.1715556 57.82992,16.3555556 58.26648,16.3555556 L69.2376,16.3555556 L61.10616,8.17777778 L66.85488,8.17777778 L77.01816,18.4 L66.85896,28.6222222 Z" id="Shape"></path>
                                <path d="M0,0 L0,32.7111111 L0,36.8 L0,147.2 L8.16,147.2 L8.16,184 L12.24,184 L12.24,147.2 L89.76,147.2 L89.76,184 L93.84,184 L93.84,147.2 L102,147.2 L102,36.8 L102,32.7111111 L102,0 L0,0 Z M97.92,143.111111 L4.08,143.111111 L4.08,36.8 L97.92,36.8 L97.92,143.111111 Z M4.08,32.7111111 L4.08,4.08888889 L97.92,4.08888889 L97.92,32.7111111 L4.08,32.7111111 Z" id="Shape" fill="#003082" fill-rule="nonzero"></path>
                                <path d="M61.11024,8.17777778 L69.24168,16.3555556 L58.27056,16.3555556 C57.834,16.3555556 57.43824,16.1715556 57.14856,15.8894222 L51.1632,9.87057778 C50.13096,8.83608889 48.7152,8.17777778 47.14848,8.17777778 L35.15328,8.17777778 L24.99,18.4040889 L35.15328,28.6222222 L40.902,28.6222222 L32.77056,20.4444444 L43.74576,20.4444444 C44.18232,20.4444444 44.574,20.6120889 44.86776,20.8942222 L50.86944,26.9048889 C51.89352,27.9352889 53.30928,28.6222222 54.87192,28.6222222 L66.85896,28.6222222 L77.01816,18.4 L66.85896,8.17777778 L61.11024,8.17777778 Z M65.178,24.5333333 L54.86784,24.5333333 C54.4272,24.5333333 54.02736,24.3125333 53.73768,24.0181333 L47.736,17.9829333 C46.71192,16.9688889 45.30024,16.3555556 43.74576,16.3555556 L32.77464,16.3555556 L36.8424,12.2666667 L47.15256,12.2666667 C47.59728,12.2666667 47.99712,12.4588444 48.28272,12.7532444 L54.27624,18.7843556 C55.29624,19.7984 56.70792,20.4444444 58.26648,20.4444444 L69.24576,20.4444444 L65.178,24.5333333 Z" id="Shape" fill="#003082" fill-rule="nonzero"></path>
                                <path d="M85.68,49.0666667 L16.32,49.0666667 L16.32,102.222222 L85.68,102.222222 L85.68,49.0666667 Z M81.6,98.1333333 L20.4,98.1333333 L20.4,53.1555556 L81.6,53.1555556 L81.6,98.1333333 Z" id="Shape" fill="#003082" fill-rule="nonzero"></path>
                                <rect id="Rectangle-path" fill="#003082" fill-rule="nonzero" x="69.36" y="85.8666667" width="8.16" height="4.08888889"></rect>
                                <rect id="Rectangle-path" fill="#003082" fill-rule="nonzero" x="69.36" y="73.6" width="8.16" height="4.08888889"></rect>
                                <rect id="Rectangle-path" fill="#003082" fill-rule="nonzero" x="69.36" y="61.3333333" width="8.16" height="4.08888889"></rect>
                            </g>
                        </g>
                        <path d="M1.02358491,215.976415 L216.387892,0.612107675" id="Line" stroke="#003082" stroke-width="4" stroke-linecap="square"></path>
                    </g>
                </g>
            </g>
        </g>
    </g>
</svg>