<svg id="Layer_1" data-name="Layer 1" xmlns="http://www.w3.org/2000/svg" viewBox="0 0 31 25"><title>ov-chip</title><path d="M22,7.3V4a.945.945,0,0,0-1-1H4A.945.945,0,0,0,3,4V15a.945.945,0,0,0,1,1H16.1c.2.9.4,1.6.4,1.7a2.384,2.384,0,0,0,.6,1.1l3,3c.1.1.2.1.4.1a.472.472,0,0,0,.5-.5c0-.1-.1-.3-.1-.4l-3-3a1.612,1.612,0,0,1-.4-.7c-.1-.2-.8-3.3-1.2-5.2a.832.832,0,0,1,.6-1,.9.9,0,0,1,1.2.6v.1l1.4,3.7a.55.55,0,0,0,.5.3h1a.945.945,0,0,0,1-1V8.7l5,5v7.8a.5.5,0,0,0,1,0V13.3ZM4,4H21V5H4ZM21,15h-.7L19,11.6a2.163,2.163,0,0,0-1.1-1.2V9.5A1.391,1.391,0,0,0,16.5,8H15.3a2.875,2.875,0,0,0-1.8.7l-2.8,2.8a1.5,1.5,0,0,1-1.1.4H8.5c-.3.1-.5-.1-.5-.4v-2A.472.472,0,0,1,8.5,9h.6a1.487,1.487,0,0,0,2.8-1A1.446,1.446,0,0,0,10,7.1a1.352,1.352,0,0,0-.9.9H8.5A1.538,1.538,0,0,0,7,9.5v2A1.538,1.538,0,0,0,8.5,13H9.7a2.875,2.875,0,0,0,1.8-.7l2.8-2.8a1.231,1.231,0,0,1,1-.5h1.2a.472.472,0,0,1,.5.5v.7h-.3a1.63,1.63,0,0,0-1.3,1.1,1.613,1.613,0,0,0-.9-.3,1.5,1.5,0,1,0,1,2.6c.1.4.2.9.3,1.4H4V6H21ZM10,8.5a.5.5,0,1,1,.5.5A.472.472,0,0,1,10,8.5Zm5,4a.5.5,0,1,1-.5-.5A.472.472,0,0,1,15,12.5Z"/></svg>