<svg id="Layer_1" data-name="Layer 1" xmlns="http://www.w3.org/2000/svg" viewBox="0 0 31 25"><defs><style>.cls-1{fill:#003082;}</style></defs><title>ov-chip</title><path class="cls-1" d="M22,7.293V4a1,1,0,0,0-1-1H4A1,1,0,0,0,3,4V15a1,1,0,0,0,1,1H16.1c.208.893.382,1.632.414,1.746a2.208,2.208,0,0,0,.631,1.111l3,3A.5.5,0,0,0,20.5,22a.5.5,0,0,0,.354-.853c-3-3-3.007-3.006-3.015-3.012a1.222,1.222,0,0,1-.356-.653c-.058-.208-.765-3.253-1.22-5.218a.876.876,0,0,1,.65-1.027.975.975,0,0,1,1.233.705l1.385,3.732A.5.5,0,0,0,20,16l0,0h1a1,1,0,0,0,1-1V8.707l5,5V21.5a.5.5,0,0,0,1,0V13.293ZM4,4H21V5H4ZM21,15h-.652l-1.263-3.4A2.022,2.022,0,0,0,18,10.37V9.5A1.5,1.5,0,0,0,16.5,8H15.328a2.486,2.486,0,0,0-1.768.732L10.732,11.56a1.507,1.507,0,0,1-1.06.44H8.5a.5.5,0,0,1-.5-.5v-2A.5.5,0,0,1,8.5,9h.592a1.5,1.5,0,1,0,0-1H8.5A1.5,1.5,0,0,0,7,9.5v2A1.5,1.5,0,0,0,8.5,13H9.672a2.486,2.486,0,0,0,1.768-.732L14.268,9.44A1.507,1.507,0,0,1,15.328,9H16.5a.5.5,0,0,1,.5.5v.724c-.089.008-.177.013-.271.03a1.847,1.847,0,0,0-1.31,1.07A1.48,1.48,0,0,0,14.5,11a1.5,1.5,0,1,0,1.041,2.576c.1.424.213.92.33,1.424H4V6H21ZM10,8.5a.5.5,0,1,1,.5.5A.5.5,0,0,1,10,8.5Zm5,4a.5.5,0,1,1-.5-.5A.5.5,0,0,1,15,12.5Z"/></svg>