<svg id="Layer_1" data-name="Layer 1" xmlns="http://www.w3.org/2000/svg" viewBox="0 0 31 25"><title>ov-chip--left</title><path d="M19,7.293V4a1,1,0,0,0-1-1H1A1,1,0,0,0,0,4V15a1,1,0,0,0,1,1H13.1c.208.893.382,1.632.414,1.746a2.209,2.209,0,0,0,.631,1.111l3,3a.5.5,0,0,0,.709-.71c-3-3-3.007-3.006-3.015-3.012a1.22,1.22,0,0,1-.356-.653c-.058-.208-.765-3.253-1.22-5.218a.876.876,0,0,1,.65-1.027.975.975,0,0,1,1.217.648c.006.019.011.038.016.057l1.385,3.732A.5.5,0,0,0,17,16h1a1,1,0,0,0,1-1V8.707l5,5V21.5a.5.5,0,0,0,1,0V13.293ZM1,4H18V5H1ZM18,15h-.652l-1.263-3.4A2.022,2.022,0,0,0,15,10.37V9.5A1.5,1.5,0,0,0,13.5,8H12.328a2.486,2.486,0,0,0-1.768.732L7.732,11.56a1.5,1.5,0,0,1-1.06.44H5.5a.5.5,0,0,1-.5-.5v-2A.5.5,0,0,1,5.5,9h.592a1.5,1.5,0,1,0,0-1H5.5A1.5,1.5,0,0,0,4,9.5v2A1.5,1.5,0,0,0,5.5,13H6.672a2.486,2.486,0,0,0,1.768-.732L11.268,9.44A1.5,1.5,0,0,1,12.328,9H13.5a.5.5,0,0,1,.5.5v.724c-.089.008-.177.013-.271.03a1.848,1.848,0,0,0-1.31,1.07A1.477,1.477,0,0,0,11.5,11a1.5,1.5,0,1,0,1.041,2.576c.1.424.213.92.33,1.424H1V6H18ZM7,8.5a.5.5,0,1,1,.5.5A.5.5,0,0,1,7,8.5Zm5,4a.5.5,0,1,1-.5-.5A.5.5,0,0,1,12,12.5Z"/></svg>