<?xml version="1.0" encoding="UTF-8"?>
<svg viewBox="0 0 150 88" version="1.1" xmlns="http://www.w3.org/2000/svg" xmlns:xlink="http://www.w3.org/1999/xlink">
    <!-- Generator: Sketch 50.2 (55047) - http://www.bohemiancoding.com/sketch -->
    <title>07_icons/01_general/train-public-transport--large</title>
    <desc>Created with Sketch.</desc>
    <defs></defs>
    <g id="Archive" stroke="none" stroke-width="1" fill="none" fill-rule="evenodd">
        <g id="flex__campaign--s" transform="translate(-71.000000, -990.000000)">
            <g id="07_icons/01_general/train-public-transport--large" transform="translate(70.000000, 990.000000)">
                <g id="train-public-transport--large">
                    <rect id="Rectangle-path" x="34.4385965" y="29.1176471" width="2.64912281" height="10.5882353"></rect>
                    <path d="M37.0877193,26.4705882 L37.0877193,23.8235294 C37.0877193,22.365 35.9009123,21.1764706 34.4385965,21.1764706 L15.8947368,21.1764706 C14.4324211,21.1764706 13.245614,22.365 13.245614,23.8235294 L13.245614,26.4705882 L37.0877193,26.4705882 Z" id="Shape"></path>
                    <rect id="Rectangle-path" x="13.245614" y="29.1176471" width="2.64912281" height="10.5882353"></rect>
                    <rect id="Rectangle-path" x="18.5438596" y="29.1176471" width="13.245614" height="10.5882353"></rect>
                    <rect id="Rectangle-path" x="119.210526" y="18.5294118" width="23.8421053" height="21.1764706"></rect>
                    <path d="M59.3165088,6.48 L63.4862281,34.5335294 C71.3938596,37.0455882 80.0008596,37.0455882 87.9084912,34.5335294 L92.0861579,6.44029412 C87.0581228,4.32 81.5373509,3.14470588 75.7490175,3.14470588 C69.9209474,3.14470588 64.368386,4.33323529 59.3165088,6.48 Z" id="Shape"></path>
                    <path d="M145.701754,18.5294118 L145.701754,39.7058824 C145.701754,41.1670588 144.514947,42.3529412 143.052632,42.3529412 L119.210526,42.3529412 C117.748211,42.3529412 116.561404,41.1670588 116.561404,39.7058824 L116.561404,18.5294118 C115.099088,18.5294118 113.912281,19.7179412 113.912281,21.1764706 L113.912281,52.9411765 C113.912281,54.3997059 115.099088,55.5882353 116.561404,55.5882353 L145.701754,55.5882353 C147.16407,55.5882353 148.350877,54.3997059 148.350877,52.9411765 L148.350877,21.1764706 C148.350877,19.7179412 147.16407,18.5294118 145.701754,18.5294118 Z M123.184211,51.6176471 C121.721895,51.6176471 120.535088,50.4317647 120.535088,48.9705882 C120.535088,47.5094118 121.721895,46.3235294 123.184211,46.3235294 C124.646526,46.3235294 125.833333,47.5094118 125.833333,48.9705882 C125.833333,50.4317647 124.646526,51.6176471 123.184211,51.6176471 Z M139.078947,51.6176471 C137.616632,51.6176471 136.429825,50.4317647 136.429825,48.9705882 C136.429825,47.5094118 137.616632,46.3235294 139.078947,46.3235294 C140.541263,46.3235294 141.72807,47.5094118 141.72807,48.9705882 C141.72807,50.4317647 140.541263,51.6176471 139.078947,51.6176471 Z" id="Shape"></path>
                    <path d="M90.2900526,36.5294118 L89.5244561,36.7888235 C85.0606842,38.3002941 80.4088246,39.0679412 75.6986842,39.0679412 C70.9885439,39.0679412 66.3340351,38.3002941 61.8702632,36.7888235 L61.1046667,36.5294118 L56.8157368,7.68441176 C55.4964737,8.35147059 54.2142982,9.07676471 52.979807,9.87088235 L52.979807,54.7226471 C59.5045965,58.8705882 67.2214912,61.3085294 75.5105965,61.3085294 C83.7891053,61.3085294 91.4954035,58.8758824 98.0148947,54.7385294 L98.0148947,9.56911765 C96.9022632,8.87294118 95.7604912,8.22970588 94.5842807,7.63941176 L90.2900526,36.5294118 Z M66.3605263,52.6764706 C64.2968596,52.6764706 62.6252632,51.0061765 62.6252632,48.9441176 C62.6252632,46.8820588 64.2968596,45.2117647 66.3605263,45.2117647 C68.424193,45.2117647 70.0957895,46.8820588 70.0957895,48.9441176 C70.0957895,51.0061765 68.424193,52.6764706 66.3605263,52.6764706 Z M85.0368421,52.6764706 C82.9731754,52.6764706 81.3015789,51.0061765 81.3015789,48.9441176 C81.3015789,46.8820588 82.9731754,45.2117647 85.0368421,45.2117647 C87.1005088,45.2117647 88.7721053,46.8820588 88.7721053,48.9441176 C88.7721053,51.0061765 87.1005088,52.6764706 85.0368421,52.6764706 Z" id="Shape"></path>
                    <path d="M15.8947368,55.5882353 L34.4385965,55.5882353 C35.9009123,55.5882353 37.0877193,54.3997059 37.0877193,52.9411765 L37.0877193,42.3529412 L13.245614,42.3529412 L13.245614,52.9411765 C13.245614,54.3997059 14.4324211,55.5882353 15.8947368,55.5882353 Z M31.7894737,46.3235294 C32.8862105,46.3235294 33.7763158,47.2129412 33.7763158,48.3088235 C33.7763158,49.4047059 32.8862105,50.2941176 31.7894737,50.2941176 C30.6927368,50.2941176 29.8026316,49.4047059 29.8026316,48.3088235 C29.8026316,47.2129412 30.6927368,46.3235294 31.7894737,46.3235294 Z M18.5438596,46.3235294 C19.6405965,46.3235294 20.5307018,47.2129412 20.5307018,48.3088235 C20.5307018,49.4047059 19.6405965,50.2941176 18.5438596,50.2941176 C17.4471228,50.2941176 16.5570175,49.4047059 16.5570175,48.3088235 C16.5570175,47.2129412 17.4471228,46.3235294 18.5438596,46.3235294 Z" id="Shape"></path>
                    <ellipse id="Oval" fill="#003082" fill-rule="nonzero" cx="18.5438596" cy="48.3088235" rx="1.98684211" ry="1.98529412"></ellipse>
                    <ellipse id="Oval" fill="#003082" fill-rule="nonzero" cx="31.7894737" cy="48.3088235" rx="1.98684211" ry="1.98529412"></ellipse>
                    <path d="M15.8947368,58.2352941 L34.4385965,58.2352941 C37.3632281,58.2352941 39.7368421,55.8661765 39.7368421,52.9411765 L39.7368421,42.3529412 L39.7368421,26.4705882 L39.7368421,23.8235294 C39.7368421,20.8985294 37.3632281,18.5294118 34.4385965,18.5294118 L15.8947368,18.5294118 C12.9701053,18.5294118 10.5964912,20.8985294 10.5964912,23.8235294 L10.5964912,26.4705882 L10.5964912,42.3529412 L10.5964912,52.9411765 C10.5964912,55.8661765 12.9701053,58.2352941 15.8947368,58.2352941 Z M37.0877193,39.7058824 L34.4385965,39.7058824 L34.4385965,29.1176471 L37.0877193,29.1176471 L37.0877193,39.7058824 Z M15.8947368,39.7058824 L13.245614,39.7058824 L13.245614,29.1176471 L15.8947368,29.1176471 L15.8947368,39.7058824 Z M18.5438596,29.1176471 L31.7894737,29.1176471 L31.7894737,39.7058824 L18.5438596,39.7058824 L18.5438596,29.1176471 Z M13.245614,23.8235294 C13.245614,22.365 14.4324211,21.1764706 15.8947368,21.1764706 L34.4385965,21.1764706 C35.9009123,21.1764706 37.0877193,22.365 37.0877193,23.8235294 L37.0877193,26.4705882 L13.245614,26.4705882 L13.245614,23.8235294 Z M37.0877193,42.3529412 L37.0877193,52.9411765 C37.0877193,54.3997059 35.9009123,55.5882353 34.4385965,55.5882353 L15.8947368,55.5882353 C14.4324211,55.5882353 13.245614,54.3997059 13.245614,52.9411765 L13.245614,42.3529412 L37.0877193,42.3529412 Z" id="Shape" fill="#003082" fill-rule="nonzero"></path>
                    <path d="M13.245614,3.97058824 C13.245614,4.70117647 13.8390175,5.29411765 14.5701754,5.29411765 L17.2431404,5.29411765 C17.2431404,5.4 17.2298947,5.50588235 17.2590351,5.61441176 L19.1664035,13.2352941 L21.895,13.2352941 L19.9081579,5.29411765 L30.4251754,5.29411765 L28.4383333,13.2352941 L31.1669298,13.2352941 L33.0742982,5.61441176 C33.1007895,5.50588235 33.090193,5.4 33.090193,5.29411765 L35.7631579,5.29411765 C36.4943158,5.29411765 37.0877193,4.70117647 37.0877193,3.97058824 C37.0877193,3.24 36.4943158,2.64705882 35.7631579,2.64705882 L14.5701754,2.64705882 C13.8390175,2.64705882 13.245614,3.24 13.245614,3.97058824 Z" id="Shape" fill="#003082" fill-rule="nonzero"></path>
                    <path d="M2.64912281,75.4411765 C2.90078947,75.4411765 3.15510526,75.3697059 3.38292982,75.2188235 L19.2776667,64.6305882 C19.6591404,64.3764706 19.8419298,63.9555882 19.8445789,63.5294118 L16.157,63.5294118 L1.91531579,73.0164706 C1.30601754,73.4214706 1.14177193,74.2420588 1.54708772,74.8508824 C1.80140351,75.2347059 2.22261404,75.4411765 2.64912281,75.4411765 Z" id="Shape" fill="#003082" fill-rule="nonzero"></path>
                    <path d="M23.8421053,75.4411765 C24.2447719,75.4411765 24.6421404,75.2585294 24.9017544,74.9117647 L32.8491228,64.3235294 C33.0292632,64.0852941 33.0928421,63.8073529 33.0928421,63.5294118 L30.1364211,63.5294118 L22.7824561,73.3235294 C22.3427018,73.9085294 22.4619123,74.7370588 23.0473684,75.1764706 C23.2857895,75.3538235 23.5639474,75.4411765 23.8421053,75.4411765 Z" id="Shape" fill="#003082" fill-rule="nonzero"></path>
                    <ellipse id="Oval" fill="#003082" fill-rule="nonzero" cx="123.184211" cy="48.9705882" rx="2.64912281" ry="2.64705882"></ellipse>
                    <ellipse id="Oval" fill="#003082" fill-rule="nonzero" cx="139.078947" cy="48.9705882" rx="2.64912281" ry="2.64705882"></ellipse>
                    <path d="M145.701754,15.8823529 L116.561404,15.8823529 C113.636772,15.8823529 111.263158,18.2514706 111.263158,21.1764706 L111.263158,52.9411765 C111.263158,55.8661765 113.636772,58.2352941 116.561404,58.2352941 L145.701754,58.2352941 C148.626386,58.2352941 151,55.8661765 151,52.9411765 L151,21.1764706 C151,18.2514706 148.626386,15.8823529 145.701754,15.8823529 Z M143.052632,18.5294118 L143.052632,39.7058824 L119.210526,39.7058824 L119.210526,18.5294118 L143.052632,18.5294118 Z M148.350877,52.9411765 C148.350877,54.3997059 147.16407,55.5882353 145.701754,55.5882353 L116.561404,55.5882353 C115.099088,55.5882353 113.912281,54.3997059 113.912281,52.9411765 L113.912281,21.1764706 C113.912281,19.7179412 115.099088,18.5294118 116.561404,18.5294118 L116.561404,39.7058824 C116.561404,41.1670588 117.748211,42.3529412 119.210526,42.3529412 L143.052632,42.3529412 C144.514947,42.3529412 145.701754,41.1670588 145.701754,39.7058824 L145.701754,18.5294118 C147.16407,18.5294118 148.350877,19.7179412 148.350877,21.1764706 L148.350877,52.9411765 Z" id="Shape" fill="#003082" fill-rule="nonzero"></path>
                    <path d="M107.289474,23.8235294 C106.558316,23.8235294 105.964912,24.4164706 105.964912,25.1470588 L105.964912,31.7647059 C105.964912,32.4952941 106.558316,33.0882353 107.289474,33.0882353 C108.020632,33.0882353 108.614035,32.4952941 108.614035,31.7647059 L108.614035,25.1470588 C108.614035,24.4164706 108.020632,23.8235294 107.289474,23.8235294 Z" id="Shape" fill="#003082" fill-rule="nonzero"></path>
                    <path d="M116.561404,64.1911765 C116.561404,65.2870588 117.451509,66.1764706 118.548246,66.1764706 L119.872807,66.1764706 C120.969544,66.1764706 121.859649,65.2870588 121.859649,64.1911765 L121.859649,60.8823529 L116.561404,60.8823529 L116.561404,64.1911765 Z" id="Shape" fill="#003082" fill-rule="nonzero"></path>
                    <path d="M142.390351,66.1764706 L143.714912,66.1764706 C144.811649,66.1764706 145.701754,65.2870588 145.701754,64.1911765 L145.701754,60.8823529 L140.403509,60.8823529 L140.403509,64.1911765 C140.403509,65.2870588 141.293614,66.1764706 142.390351,66.1764706 Z" id="Shape" fill="#003082" fill-rule="nonzero"></path>
                    <ellipse id="Oval" fill="#003082" fill-rule="nonzero" cx="66.3605263" cy="48.9441176" rx="3.73526316" ry="3.73235294"></ellipse>
                    <ellipse id="Oval" fill="#003082" fill-rule="nonzero" cx="85.0368421" cy="48.9441176" rx="3.73526316" ry="3.73235294"></ellipse>
                    <path d="M75.7490175,0.497647059 C66.3128421,0.497647059 57.5627895,3.44382353 50.3333333,8.44411765 L50.3333333,8.75117647 L50.3333333,47.6470588 L50.3333333,55.4770588 L50.3333333,56.1838235 C57.5151053,61.0808824 66.1830351,63.9555882 75.5132456,63.9555882 C84.8328596,63.9555882 93.490193,61.0914706 100.666667,56.205 L100.666667,55.4770588 L100.666667,47.6470588 L100.666667,8.75117647 L100.666667,8.08676471 C93.5378772,3.29823529 84.9653158,0.497647059 75.7490175,0.497647059 Z M92.0861579,6.44029412 L87.9084912,34.5335294 C80.0008596,37.0455882 71.3938596,37.0455882 63.4862281,34.5335294 L59.3165088,6.48 C64.368386,4.33323529 69.9209474,3.14470588 75.7490175,3.14470588 C81.54,3.14470588 87.0581228,4.32 92.0861579,6.44029412 Z M98.0175439,54.7411765 C91.4980526,58.8785294 83.7917544,61.3111765 75.5132456,61.3111765 C67.2241404,61.3111765 59.5072456,58.8732353 52.9824561,54.7252941 L52.9824561,9.87088235 C54.2169474,9.07411765 55.4991228,8.34882353 56.818386,7.68441176 L61.1046667,36.5294118 L61.8702632,36.7888235 C66.3340351,38.3002941 70.9858947,39.0679412 75.6986842,39.0679412 C80.4114737,39.0679412 85.0606842,38.3002941 89.5244561,36.7888235 L90.2900526,36.5294118 L94.5842807,7.63941176 C95.7604912,8.22970588 96.9049123,8.87558824 98.0148947,9.56911765 L98.0148947,54.7411765 L98.0175439,54.7411765 Z" id="Shape" fill="#003082" fill-rule="nonzero"></path>
                    <path d="M89.9880526,71.4705882 L87.1296491,71.4705882 C87.1455439,71.6267647 87.1799825,71.7829412 87.2541579,71.9311765 L91.0000175,79.4117647 L60.0662105,79.4117647 L63.8094211,71.9311765 C63.8835965,71.7829412 63.9180351,71.6267647 63.9339298,71.4705882 L61.0781754,71.4705882 L53.9679298,85.6747059 C53.6394386,86.3285294 53.907,87.1226471 54.5613333,87.4508824 C54.7520702,87.5461765 54.9534035,87.5911765 55.1520877,87.5911765 C55.6395263,87.5911765 56.1057719,87.3238235 56.3388947,86.8605882 L58.7416491,82.0588235 L92.3245789,82.0588235 L94.7273333,86.8579412 C94.9604561,87.3211765 95.4267018,87.5885294 95.9141404,87.5885294 C96.1128246,87.5885294 96.3141579,87.5435294 96.5048947,87.4482353 C97.1592281,87.12 97.4241404,86.3258824 97.0982982,85.6720588 L89.9880526,71.4705882 Z" id="Shape" fill="#003082" fill-rule="nonzero"></path>
                </g>
            </g>
        </g>
    </g>
</svg>