<svg id="Layer_1" data-name="Layer 1" xmlns="http://www.w3.org/2000/svg" viewBox="0 0 53 47"><defs><style>.cls-1{fill:#003082;}</style></defs><title>public-transport</title><circle class="cls-1" cx="5.764" cy="26.379" r="0.631"/><circle class="cls-1" cx="9.968" cy="26.379" r="0.631"/><path class="cls-1" d="M4.924,29.531h5.885A1.682,1.682,0,0,0,12.49,27.85V18.6a1.681,1.681,0,0,0-1.681-1.681H4.924A1.681,1.681,0,0,0,3.242,18.6V27.85A1.682,1.682,0,0,0,4.924,29.531Zm6.725-5.885h-.84V20.283h.84Zm-6.725,0H4.083V20.283h.841Zm.84-3.363h4.2v3.363h-4.2ZM4.083,18.6a.841.841,0,0,1,.841-.841h5.885a.841.841,0,0,1,.84.841v.841H4.083Zm7.566,5.885V27.85a.84.84,0,0,1-.84.84H4.924a.84.84,0,0,1-.841-.84V24.487Z"/><path class="cls-1" d="M4.083,12.3a.42.42,0,0,0,.42.42h.849a.35.35,0,0,0,0,.1l.6,2.42h.866L6.2,12.717H9.535L8.9,15.239H9.77l.606-2.42a.437.437,0,0,0,.005-.1h.848a.421.421,0,0,0,0-.841H4.5A.421.421,0,0,0,4.083,12.3Z"/><path class="cls-1" d="M.72,35a.42.42,0,0,0,.233-.071L6,31.562a.413.413,0,0,0,.18-.349H5.008L.487,34.229A.42.42,0,0,0,.72,35Z"/><path class="cls-1" d="M7.446,35a.422.422,0,0,0,.336-.168L10.3,31.465a.414.414,0,0,0,.078-.252H9.443L7.11,34.323A.42.42,0,0,0,7.446,35Z"/><circle class="cls-1" cx="43.972" cy="26.589" r="0.841"/><circle class="cls-1" cx="49.017" cy="26.589" r="0.841"/><path class="cls-1" d="M51.118,16.08H41.871a1.682,1.682,0,0,0-1.682,1.681V27.85a1.682,1.682,0,0,0,1.682,1.681h9.247A1.682,1.682,0,0,0,52.8,27.85V17.761a1.682,1.682,0,0,0-1.682-1.681Zm-.84.841v6.725H42.711V16.921ZM51.959,27.85a.84.84,0,0,1-.841.84H41.871a.84.84,0,0,1-.841-.84V17.761a.84.84,0,0,1,.841-.84v6.725a.84.84,0,0,0,.84.841h7.567a.84.84,0,0,0,.84-.841V16.921a.84.84,0,0,1,.841.84Z"/><path class="cls-1" d="M38.508,21.124a.421.421,0,0,0,.841,0v-2.1a.421.421,0,0,0-.841,0"/><path class="cls-1" d="M41.871,31.423a.63.63,0,0,0,.63.63h.421a.63.63,0,0,0,.63-.63V30.372H41.871Z"/><path class="cls-1" d="M50.068,32.053h.42a.63.63,0,0,0,.63-.63V30.372H49.437v1.051A.63.63,0,0,0,50.068,32.053Z"/><circle class="cls-1" cx="22.35" cy="26.676" r="1.41"/><path class="cls-1" d="M25.894,6.874a16.8,16.8,0,0,0-9.594,3V29.911a16.858,16.858,0,0,0,19,.008V9.741A16.8,16.8,0,0,0,25.894,6.874Zm6.167,2.245L30.484,20.732a15.282,15.282,0,0,1-9.219,0l-1.574-11.6A15.9,15.9,0,0,1,32.061,9.119ZM34.3,29.366a15.781,15.781,0,0,1-17-.006V10.415a15.442,15.442,0,0,1,1.448-.826l1.618,11.9.289.1a16.251,16.251,0,0,0,10.439,0l.289-.1L33,9.574q.666.333,1.3.729V29.366Z"/><path class="cls-1" d="M31.269,34.836H30.19a.506.506,0,0,0,.047.174l1.414,2.826H19.974l1.413-2.826a.506.506,0,0,0,.047-.174H20.356L17.672,40.2a.5.5,0,0,0,.895.448l.907-1.814H32.151l.907,1.813a.5.5,0,0,0,.9-.448Z"/><rect class="cls-1" x="27.745" y="26.01" width="3.31" height="1.332" rx="0.666" ry="0.666"/></svg>