<?xml version="1.0" encoding="UTF-8"?>
<svg width="181px" height="182px" viewBox="0 0 181 182" version="1.1" xmlns="http://www.w3.org/2000/svg" xmlns:xlink="http://www.w3.org/1999/xlink">
    <!-- Generator: Sketch 50.2 (55047) - http://www.bohemiancoding.com/sketch -->
    <title>switch-class--large</title>
    <desc>Created with Sketch.</desc>
    <defs>
        <filter x="-0.6%" y="-0.6%" width="101.1%" height="102.2%" filterUnits="objectBoundingBox" id="filter-1">
            <feOffset dx="0" dy="2" in="SourceAlpha" result="shadowOffsetOuter1"></feOffset>
            <feColorMatrix values="0 0 0 0 0   0 0 0 0 0   0 0 0 0 0  0 0 0 0.2 0" type="matrix" in="shadowOffsetOuter1" result="shadowMatrixOuter1"></feColorMatrix>
            <feMerge>
                <feMergeNode in="shadowMatrixOuter1"></feMergeNode>
                <feMergeNode in="SourceGraphic"></feMergeNode>
            </feMerge>
        </filter>
    </defs>
    <g id="NS-Flex-Campaign" stroke="none" stroke-width="1" fill="none" fill-rule="evenodd">
        <g id="flex__campaign--xxl" transform="translate(-818.000000, -1585.000000)" fill="#FFFFFF" fill-rule="nonzero">
            <g id="switch-class--large" filter="url(#filter-1)" transform="translate(818.000000, 1584.000000)">
                <polygon id="Shape" points="126.231723 126.414723 124.993553 136.588745 129.498468 137.141638 129.992957 131.102638 144.967809 146.081383 148.810809 142.242277 129.603596 123.038957"></polygon>
                <path d="M40.7590426,42.9667234 C42.4332979,41.2924681 44.7577872,40.8836383 46.5449574,42.6669149 C49.5041064,45.6299574 49.0680213,57.1511702 48.7098085,61.2939787 L51.9454043,64.5334681 L64.8410638,51.6378085 L61.769,48.5657447 C61.769,48.5657447 53.8688511,56.5749149 53.8143404,56.5204043 C54.1686596,51.2795957 54.1102553,42.0634043 50.189383,38.1425319 C46.5955745,34.5487234 42.0711915,35.3975319 38.6954255,38.7732979 C36.4215532,41.0471702 35.3741702,43.0757447 34.1398936,46.0154255 L37.8738723,49.0874894 C38.2865957,46.8603404 39.1392979,44.5864681 40.7590426,42.9667234 Z" id="Shape"></path>
                <path d="M71.5964894,161.815489 C68.7930851,162.407319 65.9079149,162.707128 63.0149574,162.707128 C40.1360638,162.707128 21.5206809,144.091745 21.5206809,121.212851 C21.5206809,119.032426 21.7542979,116.867574 22.0891489,114.726085 L31.6090426,128.949468 L34.8446383,126.77683 L21.8360638,107.347681 L3.40368085,121.734596 L5.79825532,124.80666 L18.0553617,115.232255 C17.7944894,117.210213 17.6270638,119.199851 17.6270638,121.205064 C17.6270638,146.233234 37.9867872,166.592957 63.0149574,166.592957 C66.1765745,166.592957 69.3342979,166.265894 72.4024681,165.619553 C73.4537447,165.397617 74.1234468,164.365809 73.9054043,163.314532 C73.6834681,162.267149 72.647766,161.60134 71.5964894,161.815489 Z" id="Shape"></path>
                <path d="M109.014149,19.1767234 C111.817553,18.5848936 114.702723,18.2850851 117.595681,18.2850851 C140.474574,18.2850851 159.089957,36.9004681 159.089957,59.7793617 C159.089957,61.9597872 158.85634,64.1207447 158.521489,66.2661277 L149.001596,52.0427447 L145.766,54.215383 L158.774574,73.6445319 L177.206957,59.257617 L174.812383,56.1855532 L162.551383,65.7599574 C162.812255,63.782 162.983574,61.7884681 162.983574,59.7871489 C162.983574,34.7589787 142.623851,14.3992553 117.595681,14.3992553 C114.434064,14.3992553 111.27634,14.7263191 108.20817,15.3726596 C107.156894,15.5945957 106.487191,16.6264043 106.705234,17.6776809 C106.931064,18.7250638 107.947298,19.3986596 109.014149,19.1767234 Z" id="Shape"></path>
                <path d="M136.362915,67.4264255 C132.699021,63.7625319 126.262872,63.7625319 122.598979,67.4264255 L67.2356383,122.785872 C63.4393617,126.582149 63.4393617,132.757426 67.2356383,136.549809 L110.957064,180.271234 L113.709851,177.518447 L69.9884255,133.800915 C67.7145532,131.523149 67.7145532,127.820319 69.9884255,125.542553 L125.351766,70.1792128 C127.539979,67.9871064 131.421915,67.9871064 133.610128,70.1792128 L177.335447,113.900638 L180.088234,111.147851 L136.362915,67.4264255 Z" id="Shape"></path>
                <path d="M51.3769362,116.653426 C53.9856596,116.653426 56.4269574,115.644979 58.2608511,113.811085 L113.624191,58.4516383 C115.458085,56.6177447 116.466532,54.1764468 116.466532,51.5677234 C116.466532,48.9628936 115.454191,46.5177021 113.624191,44.6838085 L69.8988723,0.958489362 L67.1460851,3.7112766 L110.867511,47.4365957 C111.965511,48.5345957 112.572915,50.0024894 112.572915,51.5677234 C112.572915,53.1329574 111.969404,54.6008511 110.867511,55.6988511 L55.5080638,111.058298 C53.3198511,113.246511 49.4495957,113.250404 47.2497021,111.058298 L3.52438298,67.3329787 L0.771595745,70.085766 L44.4930213,113.807191 C46.3269149,115.644979 48.7721064,116.653426 51.3769362,116.653426 Z" id="Shape"></path>
            </g>
        </g>
    </g>
</svg>