<svg id="Layer_1" data-name="Layer 1" xmlns="http://www.w3.org/2000/svg" viewBox="0 0 31 27"><title>binoculars</title><path d="M25.969,14.993a.492.492,0,0,0-.017-.148L22.5,5.545A2.493,2.493,0,0,0,20.186,4H19.52a2.5,2.5,0,0,0-2.5,2.5V8H14V6.5A2.5,2.5,0,0,0,11.5,4h-.666A2.5,2.5,0,0,0,8.519,5.558L5.083,14.807a.456.456,0,0,0-.029.159A4.947,4.947,0,0,0,4,18a5,5,0,0,0,9.9,1h3.2a5,5,0,1,0,8.869-4.007ZM19.52,5h.666a1.488,1.488,0,0,1,1.378.905l2.883,7.761a4.905,4.905,0,0,0-6.427,1.341V6.5A1.5,1.5,0,0,1,19.52,5ZM17,9v7H14V9ZM9.449,5.924A1.5,1.5,0,0,1,10.834,5H11.5A1.5,1.5,0,0,1,13,6.5v8.531a4.907,4.907,0,0,0-6.422-1.378ZM9,22a4,4,0,1,1,4-4A4,4,0,0,1,9,22Zm5-4c0-.114-.026-.221-.034-.333A.5.5,0,0,0,14,17.5V17h3.02v.5a.424.424,0,0,0,.021.1c-.011.134-.04.263-.04.4Zm8,4a4,4,0,1,1,4-4A4,4,0,0,1,22,22Z"/><path d="M9,15a3,3,0,0,0-3,3,.5.5,0,0,0,1,0,2,2,0,0,1,2-2,.5.5,0,0,0,0-1Z"/><path d="M22,15a3,3,0,0,0-3,3,.5.5,0,0,0,1,0,2,2,0,0,1,2-2,.5.5,0,0,0,0-1Z"/></svg>