<svg id="Layer_1" data-name="Layer 1" xmlns="http://www.w3.org/2000/svg" width="45" height="50" viewBox="0 0 45 50">
  <defs>
    <style>
      .cls-1 {
        fill: #003082;
      }
    </style>
  </defs>
  <title>checkout</title>
  <g>
    <path class="cls-1" d="M39,29.293V26a1,1,0,0,0-1-1H21a1,1,0,0,0-1,1V37a1,1,0,0,0,1,1H33.1c.208.893.382,1.632.414,1.746a2.209,2.209,0,0,0,.631,1.111l3,3a.5.5,0,0,0,.709-.71c-3-3-3.007-3.006-3.015-3.012a1.22,1.22,0,0,1-.356-.653c-.058-.208-.765-3.253-1.22-5.218a.876.876,0,0,1,.65-1.027.975.975,0,0,1,1.218.646.544.544,0,0,1,.015.054l1.385,3.732A.5.5,0,0,0,37,38h1a1,1,0,0,0,1-1V30.707l5,5V43.5a.5.5,0,0,0,1,0V35.293ZM21,26H38v1H21ZM38,37h-.652l-1.263-3.4A2.022,2.022,0,0,0,35,32.37V31.5A1.5,1.5,0,0,0,33.5,30H32.328a2.486,2.486,0,0,0-1.768.732L27.732,33.56a1.5,1.5,0,0,1-1.06.44H25.5a.5.5,0,0,1-.5-.5v-2a.5.5,0,0,1,.5-.5h.592a1.5,1.5,0,1,0,0-1H25.5A1.5,1.5,0,0,0,24,31.5v2A1.5,1.5,0,0,0,25.5,35h1.172a2.486,2.486,0,0,0,1.768-.732l2.828-2.828a1.5,1.5,0,0,1,1.06-.44H33.5a.5.5,0,0,1,.5.5v.724c-.089.008-.177.013-.271.03a1.848,1.848,0,0,0-1.31,1.07A1.477,1.477,0,0,0,31.5,33a1.5,1.5,0,1,0,1.041,2.576c.1.424.213.92.33,1.424H21V28H38ZM27,30.5a.5.5,0,1,1,.5.5A.5.5,0,0,1,27,30.5Zm5,4a.5.5,0,1,1-.5-.5A.5.5,0,0,1,32,34.5Z"/>
    <path class="cls-1" d="M20.5,19A2.5,2.5,0,0,0,23,16.5v-9A2.5,2.5,0,0,0,20.5,5H5.5A2.5,2.5,0,0,0,3,7.5v9A2.5,2.5,0,0,0,5.5,19ZM4,16.5v-9A1.5,1.5,0,0,1,5.5,6h15A1.5,1.5,0,0,1,22,7.5v9A1.5,1.5,0,0,1,20.5,18H5.5A1.5,1.5,0,0,1,4,16.5Z"/>
    <path class="cls-1" d="M17.5,33h-.592a1.5,1.5,0,1,0,0,1H17.5A1.5,1.5,0,0,0,19,32.5v-2A1.5,1.5,0,0,0,17.5,29H16.2a2.5,2.5,0,0,0-1.562.548l-3.9,3.124A1.5,1.5,0,0,1,9.8,33H8.5a.5.5,0,0,1-.5-.5v-2a.5.5,0,0,1,.5-.5h.592a1.5,1.5,0,1,0,0-1H8.5A1.5,1.5,0,0,0,7,30.5v2A1.5,1.5,0,0,0,8.5,34H9.8a2.5,2.5,0,0,0,1.562-.548l3.9-3.124A1.5,1.5,0,0,1,16.2,30h1.3a.5.5,0,0,1,.5.5v2A.5.5,0,0,1,17.5,33Zm-2,1a.5.5,0,1,1,.5-.5A.5.5,0,0,1,15.5,34Zm-5-5a.5.5,0,1,1-.5.5A.5.5,0,0,1,10.5,29Z"/>
    <rect class="cls-1" x="25" y="39" width="1" height="8"/>
    <path class="cls-1" d="M4.5,3h17A3.5,3.5,0,0,1,25,6.5V24h1V6.5A4.505,4.505,0,0,0,21.5,2H4.5A4.505,4.505,0,0,0,0,6.5V47H1V6.5A3.5,3.5,0,0,1,4.5,3Z"/>
    <path class="cls-1" d="M13,21a10,10,0,1,0,6,17.981V37.689A9,9,0,1,1,18.645,24h1.484A9.965,9.965,0,0,0,13,21Z"/>
  </g>
</svg>
