<svg id="Layer_1" data-name="Layer 1" xmlns="http://www.w3.org/2000/svg" viewBox="0 0 31 25"><title>heart--small</title><path d="M15.5,22l-.356-.357c-.271-.271-6.637-6.652-7.5-7.584A5.574,5.574,0,0,1,6,10.162,5.205,5.205,0,0,1,11.236,5,4.861,4.861,0,0,1,15.5,7.5,4.854,4.854,0,0,1,19.763,5a5.248,5.248,0,0,1,3.7,1.5h0A5.093,5.093,0,0,1,25,10.162a5.571,5.571,0,0,1-1.645,3.9c-.863.932-7.229,7.312-7.5,7.584ZM11.236,5.986A4.21,4.21,0,0,0,7,10.162,4.64,4.64,0,0,0,8.383,13.4c.734.793,5.729,5.808,7.117,7.2,1.388-1.392,6.382-6.407,7.117-7.2A4.644,4.644,0,0,0,24,10.162,4.121,4.121,0,0,0,22.76,7.2h0a4.244,4.244,0,0,0-3-1.219,4.043,4.043,0,0,0-3.794,2.845l-.466,1.24-.47-1.238A4.058,4.058,0,0,0,11.236,5.986Z"/><path d="M22.249,10.917a.5.5,0,0,1-.5-.5,2.166,2.166,0,0,0-2.163-2.163.5.5,0,0,1,0-1,3.167,3.167,0,0,1,3.163,3.163A.5.5,0,0,1,22.249,10.917Z"/></svg>