<svg id="Layer_1" data-name="Layer 1" xmlns="http://www.w3.org/2000/svg" viewBox="0 0 56 56"><defs><style>.cls-1{fill:#003082}</style></defs><title>kalender</title><path class="cls-1" d="M45 22.571V48.4H5v1h41V21.956a11.121 11.121 0 0 1-1 .615zM11 18.4h2v2h-2zM19 18.4h2v2h-2zM26 18.4h2v2h-2zM19 25.4h2v2h-2zM26 25.4h2v2h-2zM34 25.4h2v2h-2zM11 32.4h2v2h-2zM19 32.4h2v2h-2z"/><path class="cls-1" d="M34 32.4h2v2h-2zM11 39.4h2v2h-2zM19 39.4h2v2h-2zM26 39.4h2v2h-2zM15 23.4H9v6h6zm-2 4h-2v-2h2zM30 30.4h-6v6h6zm-2 4h-2v-2h2z"/><path class="cls-1" d="M11 7.4v3H3v37h41V23.057q-.489.21-1 .379V46.4H4v-35h7v2a1 1 0 0 0 2 0v-2h14.479c.026-.338.06-.671.112-1H13v-3a1 1 0 1 0-2 0z"/><path class="cls-1" d="M48.644 12.312l.722-1.792-1.3-1.441.052-1.928-1.718-.915-.615-1.826-1.931-.283-1.212-1.509-1.911.388L39.074 2l-1.662 1-1.912-.382-1.211 1.509-1.932.283-.615 1.827-1.717.915.052 1.928-1.3 1.44.72 1.792-.72 1.793 1.3 1.442-.052 1.928 1.718.914.615 1.826 1.931.283 1.212 1.51 1.91-.388 1.662 1 1.661-1.006 1.911.386 1.211-1.5 1.931-.282.615-1.826 1.72-.915-.054-1.927 1.3-1.443zm-.439 1.588l-1.146 1.277.047 1.706-1.523.812-.547 1.621-1.712.251-1.076 1.341-1.7-.346-1.478.9-1.47-.9-1.7.343-1.077-1.34-1.712-.252-.547-1.621-1.522-.811.046-1.707-1.147-1.274.638-1.588-.638-1.587 1.146-1.274-.046-1.707 1.521-.812.547-1.622 1.713-.252L35.9 3.719l1.7.343 1.479-.894 1.477.894 1.7-.343 1.077 1.339 1.712.252.547 1.621 1.522.812-.046 1.707 1.132 1.275-.64 1.587z"/><path class="cls-1" d="M34.944 9.813A1.412 1.412 0 1 0 36.356 8.4a1.412 1.412 0 0 0-1.412 1.413zm2.353 0a.941.941 0 1 1-.941-.941.942.942 0 0 1 .944.94zM41.532 13.577a1.412 1.412 0 1 0 1.412 1.412 1.413 1.413 0 0 0-1.412-1.412zm0 2.353a.941.941 0 1 1 .941-.941.943.943 0 0 1-.941.941zM42.64 9.038a.235.235 0 0 0-.333-.333l-7.059 7.059a.235.235 0 1 0 .332.333z"/></svg>