<?xml version="1.0" encoding="UTF-8"?>
<svg width="122px" height="42px" viewBox="0 0 122 42" version="1.1" xmlns="http://www.w3.org/2000/svg" xmlns:xlink="http://www.w3.org/1999/xlink">
    <!-- Generator: Sketch 50 (54983) - http://www.bohemiancoding.com/sketch -->
    <title>app-store</title>
    <desc>Created with Sketch.</desc>
    <defs></defs>
    <g id="NEW-CANVAS" stroke="none" stroke-width="1" fill="none" fill-rule="evenodd">
        <g id="campaign--xxl" transform="translate(-277.000000, -954.000000)">
            <g id="container" transform="translate(0.000000, 685.000000)">
                <g id="section" transform="translate(134.000000, 56.000000)">
                    <g id="99_misc/app-store" transform="translate(144.000000, 214.000000)">
                        <g id="app-store">
                            <rect id="Rectangle-2" stroke-opacity="0.25" stroke="#FFFFFF" fill="#070721" x="-0.5" y="-0.5" width="121" height="41" rx="3"></rect>
                            <g id="Group" transform="translate(9.000000, 8.000000)" fill="#FFFFFF" fill-rule="nonzero">
                                <g id="_Group_">
                                    <g id="_Group_2">
                                        <g id="_Group_3">
                                            <path d="M15.76888,12.30068 C15.790737,10.6042091 16.6801229,9.03718611 18.12544,8.14862 C17.2095126,6.84051277 15.730392,6.04087835 14.13428,5.99094 C12.45504,5.81468 10.82709,6.99577 9.97138,6.99577 C9.09911,6.99577 7.78161,6.00844 6.36288,6.03763 C4.49620126,6.09793842 2.79813717,7.13352548 1.88996,8.7655 C-0.04404,12.11392 1.39855,17.03497 3.25116,19.74158 C4.17806,21.06693 5.26134,22.54738 6.67879,22.49488 C8.06585,22.43735 8.58389,21.6104 10.25819,21.6104 C11.91695,21.6104 12.40298,22.49488 13.84919,22.4615 C15.33757,22.43734 16.27532,21.13026 17.1697,19.79236 C17.8356761,18.8479997 18.3481437,17.8042759 18.68812,16.69985 C16.9203766,15.9521813 15.7709432,14.2200343 15.76888,12.30068 Z" id="_Path_"></path>
                                            <path d="M13.03725,4.21089 C13.8487766,3.23668191 14.248585,1.98450245 14.15177,0.72027 C12.9119378,0.850490487 11.7666802,1.44304968 10.94419,2.37988 C10.1320187,3.30418903 9.72057463,4.51343268 9.80048,5.74127 C11.0569368,5.75420677 12.2499161,5.19015322 13.03725,4.21089 Z" id="_Path_2"></path>
                                        </g>
                                    </g>
                                    <g id="Group" transform="translate(25.000000, 9.000000)">
                                        <path d="M8.30227,10.13965 L3.56887,10.13965 L2.43215,13.4961 L0.42727,13.4961 L4.91067,1.0781 L6.99367,1.0781 L11.47707,13.4961 L9.438,13.4961 L8.30227,10.13965 Z M4.0591,8.59082 L7.8111,8.59082 L5.96149,3.14355 L5.90973,3.14355 L4.0591,8.59082 Z" id="Shape"></path>
                                        <path d="M21.15969,8.96973 C21.15969,11.78321 19.65383,13.59082 17.38137,13.59082 C16.2067553,13.6522646 15.1003324,13.0370307 14.53274,12.00682 L14.48974,12.00682 L14.48974,16.4912 L12.63134,16.4912 L12.63134,4.44238 L14.4302,4.44238 L14.4302,5.94824 L14.46438,5.94824 C15.0571883,4.92448792 16.1648043,4.30951884 17.34719,4.34765 C19.645,4.34766 21.15969,6.16406 21.15969,8.96973 Z M19.24953,8.96973 C19.24953,7.13673 18.30226,5.93164 16.85695,5.93164 C15.43703,5.93164 14.48195,7.16211 14.48195,8.96973 C14.48195,10.79395 15.43703,12.01563 16.85695,12.01563 C18.30227,12.01563 19.24953,10.81934 19.24953,8.96973 Z" id="Shape"></path>
                                        <path d="M31.12453,8.96973 C31.12453,11.78321 29.61867,13.59082 27.34621,13.59082 C26.1715953,13.6522646 25.0651724,13.0370307 24.49758,12.00682 L24.45458,12.00682 L24.45458,16.4912 L22.59618,16.4912 L22.59618,4.44238 L24.395,4.44238 L24.395,5.94824 L24.42918,5.94824 C25.0219926,4.92448854 26.1296128,4.30952307 27.312,4.34766 C29.60988,4.34766 31.12453,6.16406 31.12453,8.96973 Z M29.21437,8.96973 C29.21437,7.13673 28.2671,5.93164 26.82179,5.93164 C25.40187,5.93164 24.44679,7.16211 24.44679,8.96973 C24.44679,10.79395 25.40187,12.01563 26.82179,12.01563 C28.26711,12.01563 29.21438,10.81934 29.21438,8.96973 L29.21437,8.96973 Z" id="Shape"></path>
                                        <path d="M37.71047,10.03613 C37.84817,11.26758 39.04447,12.07613 40.67922,12.07613 C42.24563,12.07613 43.37258,11.26754 43.37258,10.15718 C43.37258,9.19331 42.69289,8.61618 41.08352,8.22066 L39.47415,7.83296 C37.19388,7.28218 36.13528,6.21577 36.13528,4.4853 C36.13528,2.34272 38.00247,0.87104 40.65383,0.87104 C43.27783,0.87104 45.07668,2.34272 45.13723,4.4853 L43.26123,4.4853 C43.14893,3.24604 42.12451,2.498 40.62744,2.498 C39.13037,2.498 38.10596,3.25484 38.10596,4.3564 C38.10596,5.23433 38.76026,5.75093 40.36084,6.1464 L41.729,6.48234 C44.27685,7.08488 45.33545,8.10834 45.33545,9.92472 C45.33545,12.24796 43.48486,13.70304 40.5415,13.70304 C37.78759,13.70304 35.92822,12.28214 35.8081,10.03604 L37.71047,10.03613 Z" id="Shape"></path>
                                        <path d="M49.34621,2.2998 L49.34621,4.44238 L51.06789,4.44238 L51.06789,5.91406 L49.34621,5.91406 L49.34621,10.90527 C49.34621,11.68066 49.69094,12.04199 50.44777,12.04199 C50.6521614,12.0384259 50.8562221,12.0240726 51.0591,11.99899 L51.0591,13.46188 C50.7188283,13.5254596 50.3729708,13.5542545 50.02687,13.54782 C48.19387,13.54782 47.47902,12.85934 47.47902,11.10348 L47.47902,5.91406 L46.16262,5.91406 L46.16262,4.44238 L47.479,4.44238 L47.479,2.2998 L49.34621,2.2998 Z" id="Shape"></path>
                                        <path d="M52.065,8.96973 C52.065,6.1211 53.74273,4.33106 56.35895,4.33106 C58.98395,4.33106 60.65387,6.12106 60.65387,8.96973 C60.65387,11.82618 58.99274,13.6084 56.35895,13.6084 C53.72609,13.6084 52.065,11.82617 52.065,8.96973 Z M58.76031,8.96973 C58.76031,7.01563 57.8648,5.86231 56.35894,5.86231 C54.85308,5.86231 53.95855,7.02442 53.95855,8.96973 C53.95855,10.93164 54.85308,12.07618 56.35894,12.07618 C57.8648,12.07618 58.76027,10.93164 58.76027,8.96973 L58.76031,8.96973 Z" id="Shape"></path>
                                        <path d="M62.18606,4.44238 L63.95852,4.44238 L63.95852,5.98338 L64.00152,5.98338 C64.248696,4.99136841 65.1576526,4.30863156 66.17925,4.34764 C66.393414,4.34689223 66.6069872,4.37015075 66.81597,4.41698 L66.81597,6.15526 C66.545601,6.07264332 66.2635596,6.03471129 65.98097,6.04296 C65.4346182,6.02079544 64.9058709,6.23853473 64.5335615,6.63900597 C64.161252,7.03947722 63.9825766,7.58267074 64.04445,8.12596 L64.04445,13.49608 L62.18605,13.49608 L62.18606,4.44238 Z" id="Shape"></path>
                                        <path d="M75.3843,10.83691 C75.1343,12.48046 73.53371,13.60839 71.48586,13.60839 C68.85207,13.60839 67.21731,11.84374 67.21731,9.01269 C67.21731,6.17285 68.86086,4.33105 71.40774,4.33105 C73.91262,4.33105 75.48782,6.05175 75.48782,8.79687 L75.48782,9.43359 L69.09329,9.43359 L69.09329,9.54589 C69.0335874,10.2199216 69.2663316,10.8871194 69.7323199,11.3777699 C70.1983083,11.8684204 70.8526275,12.1352333 71.52884,12.11034 C72.4306823,12.1948396 73.2809431,11.6769777 73.61966,10.8369 L75.3843,10.83691 Z M69.1020624,8.13477 L73.62844,8.13476 C73.6621655,7.52909749 73.4416965,6.93682308 73.0201501,6.50063155 C72.5986036,6.06444001 72.0142008,5.82388041 71.40774,5.83691 C70.7964818,5.83326223 70.2090907,6.07393463 69.7761255,6.50543324 C69.3431603,6.93693186 69.1004963,7.52350292 69.1020624,8.13477 Z" id="Shape"></path>
                                    </g>
                                </g>
                            </g>
                            <g id="_Group_4" transform="translate(35.000000, 8.000000)" fill="#FFFFFF" fill-rule="nonzero">
                                <g id="Group">
                                    <path d="M2.82619,0.731 C3.61513656,0.674384181 4.38789226,0.974547428 4.93176129,1.54887182 C5.47563032,2.12319621 5.73328587,2.91114479 5.63381,3.69584 C5.63381,5.60209 4.60354,6.69784 2.82619,6.69784 L0.67092,6.69784 L0.67092,0.731 L2.82619,0.731 Z M1.59767,5.854 L2.72267,5.854 C3.28649194,5.88770201 3.83548652,5.66555901 4.21721851,5.24925179 C4.5989505,4.83294457 4.77277961,4.26679442 4.69044,3.708 C4.76678901,3.15152453 4.59045658,2.59004622 4.20967108,2.17713398 C3.82888557,1.76422175 3.28349567,1.5430863 2.72267,1.57421 L1.59767,1.57421 L1.59767,5.854 Z" id="Shape"></path>
                                    <path d="M6.68068,4.44434 C6.60346713,3.63722505 6.99048366,2.85611193 7.67941593,2.42859737 C8.36834819,2.0010828 9.24008181,2.0010828 9.92901407,2.42859737 C10.6179463,2.85611193 11.0049629,3.63722505 10.92775,4.44434 C11.0064319,5.25232226 10.6197687,6.03495038 9.93022554,6.4633853 C9.24068243,6.89182022 8.36774757,6.89182022 7.67820446,6.4633853 C6.98866134,6.03495038 6.60199806,5.25232226 6.68068,4.44434 Z M10.01368,4.44434 C10.01368,3.46827 9.5752,2.89747 8.80568,2.89747 C8.03322,2.89747 7.59868,3.46827 7.59868,4.44435 C7.59868,5.42824 8.03325,5.99464 8.80568,5.99464 C9.57522,5.99463 10.01369,5.42432 10.01369,4.44434 L10.01368,4.44434 Z" id="Shape"></path>
                                    <polygon id="Shape" points="16.57326 6.69775 15.65139 6.69775 14.72073 3.38134 14.65042 3.38134 13.72366 6.69775 12.81057 6.69775 11.56936 2.19482 12.47073 2.19482 13.27737 5.63082 13.34378 5.63082 14.26956 2.19482 15.1221 2.19482 16.04788 5.63082 16.11819 5.63082 16.92092 2.19482 17.80959 2.19482"></polygon>
                                    <path d="M18.85354,2.19482 L19.709,2.19482 L19.709,2.91015 L19.77541,2.91015 C20.0063449,2.38347794 20.5459729,2.06130747 21.11916,2.1079 C21.5629768,2.07453177 21.9978859,2.2447899 22.3010908,2.57060207 C22.6042957,2.89641424 22.7428931,3.34242376 22.67775,3.7827 L22.67775,6.6977 L21.78908,6.6977 L21.78908,4.00586 C21.78908,3.28223 21.47463,2.92236 20.8174,2.92236 C20.5163658,2.90833912 20.2242202,3.02648257 20.0175546,3.24581678 C19.810889,3.465151 19.710315,3.76380101 19.7422,4.06347 L19.7422,6.69775 L18.85353,6.69775 L18.85354,2.19482 Z" id="Shape"></path>
                                    <polygon id="Shape" points="24.09377 0.437 24.98244 0.437 24.98244 6.69774 24.09377 6.69774"></polygon>
                                    <path d="M26.21779,4.44434 C26.1406364,3.63717225 26.527714,2.85603936 27.2166974,2.4285182 C27.9056808,2.00099704 28.7774592,2.00099704 29.4664426,2.4285182 C30.155426,2.85603936 30.5425036,3.63717225 30.46535,4.44434 C30.543932,5.25235119 30.1571979,6.03495719 29.4676205,6.46337324 C28.7780432,6.89178929 27.9050968,6.89178929 27.2155195,6.46337324 C26.5259421,6.03495719 26.139208,5.25235119 26.21779,4.44434 Z M29.55079,4.44434 C29.55079,3.46827 29.11231,2.89747 28.34279,2.89747 C27.57033,2.89747 27.13579,3.46827 27.13579,4.44435 C27.13579,5.42824 27.57036,5.99464 28.34279,5.99464 C29.11232,5.99463 29.5508,5.42432 29.5508,4.44434 L29.55079,4.44434 Z" id="Shape"></path>
                                    <path d="M31.4009,5.42432 C31.4009,4.61377 32.00442,4.14649 33.0757,4.08008 L34.29543,4.00977 L34.29543,3.6211 C34.29543,3.14551 33.98098,2.87696 33.37356,2.87696 C32.87747,2.87696 32.53372,3.05909 32.43508,3.37745 L31.57473,3.37745 C31.66555,2.60401 32.39309,2.10792 33.41457,2.10792 C34.54348,2.10792 35.1802,2.66992 35.1802,3.6211 L35.1802,6.69776 L34.32473,6.69776 L34.32473,6.06495 L34.25442,6.06495 C33.9638686,6.52707633 33.4471736,6.79716323 32.90188,6.77195 C32.5196161,6.81171181 32.1383711,6.68791066 31.8523958,6.43115244 C31.5664205,6.17439423 31.4024061,5.80864331 31.4009,5.42432 Z M34.29543,5.03955 L34.29543,4.66309 L33.19582,4.7334 C32.5757,4.7749 32.29445,4.98584 32.29445,5.38281 C32.29445,5.78808 32.64601,6.02392 33.12945,6.02392 C33.4156361,6.05288986 33.7013264,5.96447505 33.9211204,5.77891559 C34.1409144,5.59335613 34.2759916,5.32654106 34.29543,5.03955 Z" id="Shape"></path>
                                    <path d="M36.34816,4.44434 C36.34816,3.02149 37.07961,2.12012 38.2173,2.12012 C38.7917768,2.09365013 39.3298275,2.40147287 39.59816,2.91012 L39.66457,2.91012 L39.66457,0.437 L40.55324,0.437 L40.55324,6.69774 L39.70168,6.69774 L39.70168,5.98631 L39.63137,5.98631 C39.3427542,6.49073698 38.7980745,6.79335648 38.21731,6.77195 C37.0718,6.772 36.34816,5.87061 36.34816,4.44434 Z M37.26616,4.44434 C37.26616,5.39942 37.71636,5.97413 38.46929,5.97413 C39.21829,5.97413 39.6812,5.39113 39.6812,4.44825 C39.6812,3.50977 39.21343,2.91846 38.46929,2.91846 C37.72121,2.91846 37.26613,3.49707 37.26613,4.44434 L37.26616,4.44434 Z" id="Shape"></path>
                                    <path d="M44.33742,0.86328 C44.3233967,0.627766113 44.4544851,0.4075328 44.6681927,0.307570102 C44.8819002,0.207607403 45.1349678,0.248149912 45.3067526,0.409870128 C45.4785374,0.571590343 45.5342664,0.821752626 45.4473725,1.04109914 C45.3604786,1.26044566 45.1485509,1.40457597 44.91262,1.40478 C44.7637021,1.41237359 44.618132,1.35888293 44.5095618,1.25667369 C44.4009916,1.15446446 44.3388202,1.01238484 44.33742,0.86328 Z M44.46926,2.19482 L45.355,2.19482 L45.355,6.69775 L44.46926,6.69775 L44.46926,2.19482 Z" id="Shape"></path>
                                    <path d="M46.78859,2.19482 L47.64406,2.19482 L47.64406,2.91015 L47.71047,2.91015 C47.9414049,2.38347794 48.4810329,2.06130747 49.05422,2.1079 C49.4980368,2.07453177 49.9329459,2.2447899 50.2361508,2.57060207 C50.5393557,2.89641424 50.6779531,3.34242376 50.61281,3.7827 L50.61281,6.6977 L49.72414,6.6977 L49.72414,4.00586 C49.72414,3.28223 49.40969,2.92236 48.75246,2.92236 C48.4514258,2.90833912 48.1592802,3.02648257 47.9526146,3.24581678 C47.745949,3.465151 47.645375,3.76380101 47.67726,4.06347 L47.67726,6.69775 L46.78859,6.69775 L46.78859,2.19482 Z" id="Shape"></path>
                                    <path d="M54.20754,4.44434 C54.20754,3.02149 54.93899,2.12012 56.07668,2.12012 C56.6511568,2.09365013 57.1892075,2.40147287 57.45754,2.91012 L57.52395,2.91012 L57.52395,0.437 L58.41262,0.437 L58.41262,6.69774 L57.56106,6.69774 L57.56106,5.98631 L57.49075,5.98631 C57.2021342,6.49073698 56.6574545,6.79335648 56.07669,6.77195 C54.93117,6.772 54.20754,5.87061 54.20754,4.44434 Z M55.12554,4.44434 C55.12554,5.39942 55.57574,5.97413 56.32867,5.97413 C57.07767,5.97413 57.54058,5.39113 57.54058,4.44825 C57.54058,3.50977 57.07281,2.91846 56.32867,2.91846 C55.58059,2.91846 55.12551,3.49707 55.12551,4.44434 L55.12554,4.44434 Z" id="Shape"></path>
                                    <path d="M63.67824,5.48193 C63.429047,6.33130948 62.6070889,6.88010304 61.72707,6.78466 C61.1266356,6.8005072 60.5495859,6.55162641 60.149025,6.10405126 C59.7484641,5.65647611 59.5648867,5.05545417 59.647,4.46045 C59.5670674,3.86379048 59.7499582,3.26180373 60.1482908,2.81044696 C60.5466234,2.35909018 61.121202,2.10277675 61.72317,2.10791 C62.9761,2.10791 63.73196,2.96391 63.73196,4.37791 L63.73196,4.688 L60.55227,4.688 L60.55227,4.7378 C60.524132,5.07194014 60.6382507,5.40244775 60.8665608,5.6480407 C61.0948709,5.89363365 61.4161879,6.03152392 61.75149,6.0278 C62.1862619,6.07999468 62.6094825,5.86433304 62.82278,5.4819 L63.67824,5.48193 Z M60.55224,4.03076 L62.82665,4.03076 C62.8493029,3.72516044 62.7418485,3.42420507 62.5307669,3.20205909 C62.3196854,2.97991311 62.0246075,2.85723623 61.71825,2.86426 C61.4077437,2.86036163 61.1088223,2.98202516 60.8892929,3.2016525 C60.6697634,3.42127985 60.5482332,3.72025549 60.55227,4.03076 L60.55224,4.03076 Z" id="Shape"></path>
                                </g>
                            </g>
                        </g>
                    </g>
                </g>
            </g>
        </g>
    </g>
</svg>