<?xml version="1.0" encoding="UTF-8"?>
<svg width="137px" height="42px" viewBox="0 0 137 42" version="1.1" xmlns="http://www.w3.org/2000/svg" xmlns:xlink="http://www.w3.org/1999/xlink">
    <!-- Generator: Sketch 50 (54983) - http://www.bohemiancoding.com/sketch -->
    <title>google-play</title>
    <desc>Created with Sketch.</desc>
    <defs>
        <linearGradient x1="91.4935632%" y1="4.96309595%" x2="-38.2914625%" y2="71.9170158%" id="linearGradient-1">
            <stop stop-color="#00A0FF" offset="0%"></stop>
            <stop stop-color="#00A1FF" offset="0.7%"></stop>
            <stop stop-color="#00BEFF" offset="26%"></stop>
            <stop stop-color="#00D2FF" offset="51.2%"></stop>
            <stop stop-color="#00DFFF" offset="76%"></stop>
            <stop stop-color="#00E3FF" offset="100%"></stop>
        </linearGradient>
        <linearGradient x1="107.544015%" y1="49.9883096%" x2="-130.451461%" y2="49.9883096%" id="linearGradient-2">
            <stop stop-color="#FFE000" offset="0%"></stop>
            <stop stop-color="#FFBD00" offset="40.9%"></stop>
            <stop stop-color="#FFA500" offset="77.5%"></stop>
            <stop stop-color="#FF9C00" offset="100%"></stop>
        </linearGradient>
        <linearGradient x1="86.2467789%" y1="17.8390075%" x2="-50.1348355%" y2="194.659623%" id="linearGradient-3">
            <stop stop-color="#FF3A44" offset="0%"></stop>
            <stop stop-color="#C31162" offset="100%"></stop>
        </linearGradient>
        <linearGradient x1="-18.8050578%" y1="-54.0485395%" x2="42.0986397%" y2="24.9262036%" id="linearGradient-4">
            <stop stop-color="#32A071" offset="0%"></stop>
            <stop stop-color="#2DA771" offset="6.9%"></stop>
            <stop stop-color="#15CF74" offset="47.6%"></stop>
            <stop stop-color="#06E775" offset="80.1%"></stop>
            <stop stop-color="#00F076" offset="100%"></stop>
        </linearGradient>
    </defs>
    <g id="NEW-CANVAS" stroke="none" stroke-width="1" fill="none" fill-rule="evenodd">
        <g id="campaign--xxl" transform="translate(-133.000000, -954.000000)">
            <g id="container" transform="translate(0.000000, 685.000000)">
                <g id="section" transform="translate(134.000000, 56.000000)">
                    <g id="99_misc/google-play" transform="translate(0.000000, 214.000000)">
                        <g id="google-play">
                            <rect id="Rectangle-2" stroke-opacity="0.25" stroke="#FFFFFF" fill="#070721" x="-0.5" y="-0.5" width="136" height="41" rx="3"></rect>
                            <path d="M68.136,21.752 C65.789236,21.7608287 63.8931331,23.6688533 63.8990134,26.0156266 C63.9048936,28.3623998 65.8105345,30.2608984 68.1573133,30.2579666 C70.504092,30.2550347 72.4049834,28.3517806 72.405,26.005 C72.4217233,24.8692016 71.9767999,23.7752411 71.1720755,22.9735327 C70.3673511,22.1718244 69.2717275,21.7310119 68.136,21.752 Z M68.136,28.583 C67.0762828,28.6590355 66.0779571,28.0789276 65.6192938,27.1205904 C65.1606306,26.1622533 65.3350445,25.0208685 66.0589784,24.2432429 C66.7829123,23.4656172 67.9089248,23.2101273 68.8975737,23.5991715 C69.8862226,23.9882156 70.5361527,24.9425585 70.536,26.005 C70.5677064,26.6672619 70.3308524,27.3143013 69.8790788,27.7995815 C69.4273052,28.2848616 68.7988352,28.5673245 68.136,28.583 Z M58.822,21.752 C56.4753688,21.76138 54.579768,23.6696464 54.5860151,26.016288 C54.5922621,28.3629297 56.4979961,30.2610764 58.844644,30.2579623 C61.1912919,30.2548481 63.0919813,28.3516499 63.092,26.005 C63.1087309,24.8690249 62.6636715,23.7749066 61.858728,22.9731677 C61.0537844,22.1714288 59.9578993,21.7307376 58.822,21.752 Z M58.822,28.583 C57.7622828,28.6590355 56.7639571,28.0789276 56.3052938,27.1205904 C55.8466306,26.1622533 56.0210445,25.0208685 56.7449784,24.2432429 C57.4689123,23.4656172 58.5949248,23.2101273 59.5835737,23.5991715 C60.5722226,23.9882156 61.2221527,24.9425585 61.222,26.005 C61.2537064,26.6672619 61.0168524,27.3143013 60.5650788,27.7995815 C60.1133052,28.2848616 59.4848352,28.5673245 58.822,28.583 Z M47.744,23.057 L47.744,24.857 L52.061,24.857 C51.9987188,25.7034663 51.6523286,26.5040753 51.078,27.129 C50.2032475,28.0206455 48.9920662,28.5005407 47.744,28.45 C45.0930332,28.45 42.944,26.3009668 42.944,23.65 C42.944,20.9990332 45.0930332,18.85 47.744,18.85 C48.9571128,18.8341222 50.1273791,19.2981314 51,20.141 L52.273,18.868 C51.0698777,17.677537 49.4383482,17.0212492 47.746,17.047 C45.3667144,17.0177247 43.1555289,18.2702839 41.9573548,20.326065 C40.7591807,22.381846 40.7591807,24.923154 41.9573548,26.978935 C43.1555289,29.0347161 45.3667144,30.2872753 47.746,30.258 C49.4763886,30.3298686 51.1542838,29.6549957 52.353,28.405 C53.4055051,27.2562686 53.9665308,25.7411762 53.916,24.184 C53.9192466,23.8059812 53.8857559,23.4285412 53.816,23.057 L47.744,23.057 Z M93.052,24.457 C92.527918,22.8792408 91.072864,21.7978412 89.411,21.751 C88.3066236,21.7579489 87.2531855,22.2164842 86.4955455,23.0200246 C85.7379056,23.823565 85.3420532,24.902123 85.4,26.005 C85.3751814,27.134646 85.8107225,28.2258336 86.6065778,29.0279124 C87.4024331,29.8299912 88.4901949,30.2740187 89.62,30.258 C91.0434886,30.2658685 92.3755655,29.5575568 93.165,28.373 L91.715,27.407 C91.2725524,28.1406455 90.4767242,28.5873729 89.62,28.583 C88.7334159,28.6166613 87.9161043,28.1057424 87.558,27.294 L93.245,24.942 L93.052,24.457 Z M87.252,25.875 C87.2132885,25.2507035 87.4268873,24.6370094 87.8448541,24.1716617 C88.262821,23.706314 88.8501446,23.4282928 89.475,23.4 C90.1341417,23.3564255 90.7556122,23.7106519 91.054,24.3 L87.252,25.875 Z M82.628,30 L84.5,30 L84.5,17.5 L82.628,17.5 L82.628,30 Z M79.567,22.7 L79.5,22.7 C78.9251639,22.0758672 78.1092722,21.7296871 77.261,21.75 C74.9838203,21.8487863 73.1884993,23.7236785 73.1884993,26.003 C73.1884993,28.2823215 74.9838203,30.1572137 77.261,30.256 C78.1131857,30.2784211 78.9320725,29.9247527 79.5,29.289 L79.564,29.289 L79.564,29.9 C79.564,31.527 78.694,32.4 77.293,32.4 C76.3373104,32.376987 75.4904434,31.7782919 75.15,30.885 L73.523,31.562 C74.1504065,33.0894421 75.6417443,34.0835355 77.293,34.075 C79.484,34.075 81.337,32.786 81.337,29.645 L81.337,22.009 L79.567,22.009 L79.567,22.7 Z M77.425,28.581 C76.0845053,28.4688915 75.0536038,27.3481744 75.0536038,26.003 C75.0536038,24.6578256 76.0845053,23.5371085 77.425,23.425 C78.0750164,23.4566577 78.6843091,23.75093 79.1132288,24.2403698 C79.5421485,24.7298096 79.753918,25.3724506 79.7,26.021 C79.750825,26.6654453 79.5369832,27.3027946 79.1077536,27.7861732 C78.6785239,28.2695519 78.0709338,28.5572613 77.425,28.583 L77.425,28.581 Z M101.806,17.5 L97.335,17.5 L97.335,30 L99.2,30 L99.2,25.264 L101.806,25.264 C103.242394,25.3404835 104.603649,24.6176652 105.344839,23.3848975 C106.086029,22.1521299 106.086029,20.6108701 105.344839,19.3781025 C104.603649,18.1453348 103.242394,17.4225165 101.806,17.499 L101.806,17.5 Z M101.854,23.525 L99.2,23.525 L99.2,19.239 L101.854,19.239 C102.630476,19.2222238 103.355257,19.6268732 103.748419,20.2966641 C104.14158,20.9664551 104.14158,21.7965449 103.748419,22.4663359 C103.355257,23.1361268 102.630476,23.5407762 101.854,23.524 L101.854,23.525 Z M113.386,21.725 C111.993803,21.6425712 110.685531,22.3945328 110.056,23.639 L111.713,24.33 C112.04881,23.7128759 112.717995,23.3529681 113.418,23.413 C114.403103,23.3188185 115.279485,24.0375233 115.38,25.022 L115.38,25.15 C114.780752,24.8319816 114.112404,24.6664402 113.434,24.668 C111.649,24.668 109.834,25.649 109.834,27.482 C109.869152,28.2619855 110.218512,28.9945326 110.802498,29.5127731 C111.386484,30.0310137 112.155366,30.2908163 112.934,30.233 C113.891143,30.2892557 114.803207,29.8207745 115.315,29.01 L115.379,29.01 L115.379,29.975 L117.179,29.975 L117.179,25.187 C117.181,22.967 115.525,21.729 113.386,21.729 L113.386,21.725 Z M113.16,28.576 C112.549,28.576 111.697,28.276 111.697,27.515 C111.697,26.55 112.758,26.18 113.675,26.18 C114.26881,26.165172 114.855774,26.3094959 115.375,26.598 C115.235246,27.7191184 114.289699,28.565202 113.16,28.58 L113.16,28.576 Z M123.743,22 L121.604,27.42 L121.54,27.42 L119.32,22 L117.31,22 L120.639,29.575 L118.739,33.789 L120.685,33.789 L125.818,22 L123.743,22 Z M106.936,30 L108.8,30 L108.8,17.5 L106.934,17.5 L106.936,30 Z" id="Shape" fill="#FFFFFF" fill-rule="nonzero"></path>
                            <path d="M10.435,7.538 C10.107987,7.92866276 9.94238731,8.42939601 9.972,8.938 L9.972,31.059 C9.94238731,31.567604 10.107987,32.0683372 10.435,32.459 L10.509,32.531 L22.9,20.147 L22.9,19.855 L10.509,7.466 L10.435,7.538 Z" id="Shape" fill="url(#linearGradient-1)" fill-rule="nonzero"></path>
                            <path d="M27.028,24.279 L22.9,20.147 L22.9,19.855 L27.031,15.725 L27.124,15.778 L32.017,18.558 C33.417,19.352 33.417,20.651 32.017,21.445 L27.124,24.226 L27.028,24.279 Z" id="Shape" fill="url(#linearGradient-2)" fill-rule="nonzero"></path>
                            <path d="M27.122,24.225 L22.9,20 L10.435,32.464 C11.0225142,32.9823025 11.896094,33.0079466 12.513,32.525 L27.122,24.225" id="Shape" fill="url(#linearGradient-3)" fill-rule="nonzero"></path>
                            <path d="M27.122,15.777 L12.513,7.477 C11.896094,6.99405342 11.0225142,7.01969748 10.435,7.538 L22.9,20 L27.122,15.777 Z" id="Shape" fill="url(#linearGradient-4)" fill-rule="nonzero"></path>
                            <path d="M27.029,24.132 L12.513,32.379 C11.9232707,32.8279359 11.1076318,32.8324219 10.513,32.39 L10.438,32.465 L10.512,32.537 C11.1066318,32.9794219 11.9222707,32.9749359 12.512,32.526 L27.121,24.226 L27.029,24.132 Z" id="Shape" fill="#000000" fill-rule="nonzero" opacity="0.2"></path>
                            <path d="M10.435,32.318 C10.107987,31.9273372 9.94238731,31.426604 9.972,30.918 L9.972,31.064 C9.94109129,31.5742955 10.1067691,32.0770544 10.435,32.469 L10.51,32.394 L10.435,32.318 Z" id="Shape" fill="#000000" fill-rule="nonzero" opacity="0.12"></path>
                            <path d="M32.015,21.3 L27.029,24.133 L27.122,24.226 L32.015,21.446 C32.6017865,21.191053 33.0033471,20.6369913 33.063,20 C32.9381529,20.5743214 32.5497478,21.0561216 32.015,21.3 Z" id="Shape" fill="#000000" fill-rule="nonzero" opacity="0.12"></path>
                            <path d="M12.513,7.623 L32.013,18.703 C32.5478842,18.9456449 32.937021,19.4263216 33.063,20 C33.0026505,19.3637509 32.6011998,18.810607 32.015,18.556 L12.515,7.476 C11.115,6.682 9.974,7.342 9.974,8.943 L9.974,9.09 C9.972,7.489 11.116,6.829 12.513,7.623 Z" id="Shape" fill="#FFFFFF" fill-rule="nonzero" opacity="0.25"></path>
                            <path d="M46.218,12.225 C45.0018954,13.4374208 43.0341046,13.4374208 41.818,12.225 C41.2345298,11.6334935 40.9159119,10.8306341 40.935,10 C40.9159882,9.16948197 41.2350235,8.36684105 41.819,7.776 C42.4008017,7.1912843 43.1916451,6.86254836 44.0165,6.86254836 C44.8413549,6.86254836 45.6321983,7.1912843 46.214,7.776 C46.7984141,8.36670183 47.1181357,9.16925361 47.1,10 C47.1188931,10.8304066 46.8007127,11.6330726 46.218,12.225 Z M42.388,11.725 C43.2884143,12.624765 44.7475857,12.624765 45.648,11.725 C46.0969638,11.265465 46.3380229,10.6420365 46.315,10 C46.3369591,9.35903182 46.0959961,8.73693559 45.648,8.278 C44.7471299,7.3793366 43.2888701,7.3793366 42.388,8.278 C41.9406691,8.73729413 41.7001269,9.35923672 41.722,10 C41.7000098,10.6407831 41.9405692,11.26277 42.388,11.722 L42.388,11.725 Z" id="Shape" stroke="#FFFFFF" stroke-width="0.2" fill="#FFFFFF" fill-rule="nonzero"></path>
                            <polygon id="Shape" stroke="#FFFFFF" stroke-width="0.2" fill="#FFFFFF" fill-rule="nonzero" points="48.184 13 48.184 7 49.122 7 52.038 11.668 52.072 11.668 52.038 10.511 52.038 7 52.81 7 52.81 13 52.01 13 48.954 8.106 48.921 8.106 48.954 9.263 48.954 13"></polygon>
                            <polygon id="Shape" stroke="#FFFFFF" stroke-width="0.2" fill="#FFFFFF" fill-rule="nonzero" points="56.228 13 55.456 13 55.456 7.737 53.781 7.737 53.781 7 57.9 7 57.9 7.737 56.228 7.737"></polygon>
                            <path d="M58.876,13 L58.876,7 L60.711,7 C61.5320478,6.9613442 62.3326815,7.26307422 62.924,7.834 C63.4857694,8.41170451 63.7855041,9.19484733 63.753,10 C63.7852667,10.8051137 63.4855666,11.588166 62.924,12.166 C62.3326815,12.7369258 61.5320478,13.0386558 60.711,13 L58.876,13 Z M59.647,12.263 L60.711,12.263 C61.3185014,12.2936379 61.9125608,12.0772228 62.358,11.663 C62.7812277,11.2162287 63.0009121,10.6143587 62.965,10 C63.0009121,9.38564131 62.7812277,8.7837713 62.358,8.337 C61.9128656,7.92227942 61.3185882,7.7057849 60.711,7.737 L59.647,7.737 L59.647,12.263 Z" id="Shape" stroke="#FFFFFF" stroke-width="0.2" fill="#FFFFFF" fill-rule="nonzero"></path>
                            <polygon id="Shape" stroke="#FFFFFF" stroke-width="0.2" fill="#FFFFFF" fill-rule="nonzero" points="68.337 7.737 65.6 7.737 65.6 9.637 68.064 9.637 68.064 10.357 65.6 10.357 65.6 12.257 68.333 12.257 68.333 13 64.833 13 64.833 7 68.333 7"></polygon>
                            <polygon id="Shape" stroke="#FFFFFF" stroke-width="0.2" fill="#FFFFFF" fill-rule="nonzero" points="73.985 7 73.985 7.033 71.756 9.606 74.136 12.967 74.136 13 73.189 13 71.236 10.2 70.314 11.265 70.314 13 69.544 13 69.544 7 70.314 7 70.314 10.092 70.348 10.092 72.988 7"></polygon>
                            <polygon id="Shape" stroke="#FFFFFF" stroke-width="0.2" fill="#FFFFFF" fill-rule="nonzero" points="76.935 13 76.935 7 77.705 7 77.705 9.572 80.705 9.572 80.705 7 81.476 7 81.476 13 80.705 13 80.705 10.293 77.705 10.293 77.705 13"></polygon>
                            <polygon id="Shape" stroke="#FFFFFF" stroke-width="0.2" fill="#FFFFFF" fill-rule="nonzero" points="86.354 7.737 83.622 7.737 83.622 9.637 86.086 9.637 86.086 10.357 83.622 10.357 83.622 12.257 86.354 12.257 86.354 13 82.854 13 82.854 7 86.354 7"></polygon>
                            <polygon id="Shape" stroke="#FFFFFF" stroke-width="0.2" fill="#FFFFFF" fill-rule="nonzero" points="89.606 13 88.835 13 88.835 7.737 87.159 7.737 87.159 7 91.282 7 91.282 7.737 89.606 7.737"></polygon>
                            <path d="M99.088,12.225 C97.8716685,13.4368717 95.9043315,13.4368717 94.688,12.225 C94.1044317,11.6335575 93.7857966,10.8306548 93.805,10 C93.7856077,9.16960661 94.1042913,8.36694276 94.688,7.776 C95.2707883,7.19122906 96.0624098,6.86254099 96.888,6.86254099 C97.7135902,6.86254099 98.5052117,7.19122906 99.088,7.776 C99.671682,8.36703347 99.9906656,9.16954418 99.972,10 C99.9903626,10.8306966 99.6714445,11.6334034 99.088,12.225 Z M95.258,11.725 C95.6895876,12.1582666 96.2759546,12.4018149 96.8875,12.4018149 C97.4990454,12.4018149 98.0854124,12.1582666 98.517,11.725 C98.9663672,11.2657245 99.2074959,10.6421159 99.184,10 C99.2064294,9.3589523 98.9653973,8.73667751 98.517,8.278 C97.6164727,7.37945162 96.1585273,7.37945162 95.258,8.278 C94.8102691,8.73703726 94.5696581,9.35915757 94.592,10 C94.5695406,10.6408622 94.8101688,11.2630271 95.258,11.722 L95.258,11.725 Z" id="Shape" stroke="#FFFFFF" stroke-width="0.2" fill="#FFFFFF" fill-rule="nonzero"></path>
                            <path d="M101.823,13 L101.053,13 L101.053,7 L103.1,7 C103.588498,6.99313801 104.060867,7.17470823 104.419,7.507 C104.774101,7.83714007 104.975833,8.30014023 104.975833,8.785 C104.975833,9.26985977 104.774101,9.73285993 104.419,10.063 C104.060867,10.3952918 103.588498,10.576862 103.1,10.57 L101.825,10.57 L101.823,13 Z M101.823,9.832 L103.114,9.832 C103.409214,9.84451839 103.694694,9.72504911 103.893,9.506 C104.283863,9.10518105 104.283863,8.46581895 103.893,8.065 C103.695233,7.84497716 103.409585,7.72470432 103.114,7.737 L101.823,7.737 L101.823,9.832 Z" id="Shape" stroke="#FFFFFF" stroke-width="0.2" fill="#FFFFFF" fill-rule="nonzero"></path>
                        </g>
                    </g>
                </g>
            </g>
        </g>
    </g>
</svg>